<mxfile host="app.diagrams.net" modified="2022-01-18T09:46:48.064Z" agent="5.0 (Windows NT 10.0; Win64; x64) AppleWebKit/537.36 (KHTML, like Gecko) Chrome/97.0.4692.71 Safari/537.36" etag="6tFEphDaeDV-43oN72Pd" version="16.2.7" type="github" pages="4">
  <diagram id="gRzTxI_gcK3ZxRwoawaZ" name="Style Guide">
    <mxGraphModel dx="1038" dy="600" grid="1" gridSize="10" guides="1" tooltips="1" connect="1" arrows="1" fold="1" page="1" pageScale="1" pageWidth="827" pageHeight="1169" math="0" shadow="0">
      <root>
        <mxCell id="c5S3hnpAkCvErc0u6A9T-0" />
        <mxCell id="c5S3hnpAkCvErc0u6A9T-1" parent="c5S3hnpAkCvErc0u6A9T-0" />
        <mxCell id="5HFytyJhrGUjJDbnpsgP-0" value="" style="shape=image;verticalLabelPosition=bottom;verticalAlign=top;imageAspect=0;aspect=fixed;image=data:image/svg+xml,PHN2ZyB4bWxucz0iaHR0cDovL3d3dy53My5vcmcvMjAwMC9zdmciIHdpZHRoPSIxMzkiIGhlaWdodD0iMTM5IiB2aWV3Qm94PSIwIDAgMTM5IDEzOSI+JiN4YTsgIDxnIGlkPSJUcmlnZ2VyIiB0cmFuc2Zvcm09InRyYW5zbGF0ZSgtMzg5IC0xNDQpIj4mI3hhOyAgICA8ZyBpZD0iVHJpZ2dlci0yIiBkYXRhLW5hbWU9IlRyaWdnZXIiIHRyYW5zZm9ybT0idHJhbnNsYXRlKC0yMTEgLTMxMykiPiYjeGE7ICAgICAgPGcgaWQ9IkludGVyc2VjdGlvbiIgdHJhbnNmb3JtPSJ0cmFuc2xhdGUoNjAyIDQ3MykiIGZpbGw9IiMzMzMiPiYjeGE7ICAgICAgICA8cGF0aCBkPSJNIDUzLjk5OTk5NjE4NTMwMjczIDgzLjAwMDMwNTE3NTc4MTI1IEMgNDkuMDAwMjI4ODgxODM1OTQgODMuMDAwMzA1MTc1NzgxMjUgNDQuMTE3MjEwMzg4MTgzNTkgODIuMTc0MTE4MDQxOTkyMTkgMzkuNDU4NzQwMjM0Mzc1IDgwLjU0MjEyMTg4NzIwNzAzIEMgMzcuODI2NjE4MTk0NTgwMDggNzUuODgzMjA5MjI4NTE1NjIgMzcuMDAwMzA4OTkwNDc4NTIgNzAuOTk5Njg3MTk0ODI0MjIgMzcuMDAwMzA4OTkwNDc4NTIgNjUuOTk5NzAyNDUzNjEzMjggQyAzNy4wMDAzMDg5OTA0Nzg1MiA2MC4wNTgwMTM5MTYwMTU2MiAzOC4xNjMwOTM1NjY4OTQ1MyA1NC4yOTYxODgzNTQ0OTIxOSA0MC40NTYzODI3NTE0NjQ4NCA0OC44NzQyNjM3NjM0Mjc3MyBDIDQyLjY3MjI4MzE3MjYwNzQyIDQzLjYzNTI4ODIzODUyNTM5IDQ1Ljg0NTM3MTI0NjMzNzg5IDM4LjkyOTM2MzI1MDczMjQyIDQ5Ljg4NzUxOTgzNjQyNTc4IDM0Ljg4NzIxNDY2MDY0NDUzIEMgNTMuOTI5NjY4NDI2NTEzNjcgMzAuODQ1MDY0MTYzMjA4MDEgNTguNjM1NTgxOTcwMjE0ODQgMjcuNjcxOTc3OTk2ODI2MTcgNjMuODc0NTU3NDk1MTE3MTkgMjUuNDU2MDc3NTc1NjgzNTkgQyA2OS4yOTY0ODU5MDA4Nzg5MSAyMy4xNjI3OTAyOTg0NjE5MSA3NS4wNTgzMTkwOTE3OTY4OCAyMi4wMDAwMDE5MDczNDg2MyA4MC45OTk5OTIzNzA2MDU0NyAyMi4wMDAwMDE5MDczNDg2MyBDIDg1Ljk5OTc3ODc0NzU1ODU5IDIyLjAwMDAwMTkwNzM0ODYzIDkwLjg4MjkwNDA1MjczNDM4IDIyLjgyNjIyNzE4ODExMDM1IDk1LjU0MTQ1MDUwMDQ4ODI4IDI0LjQ1ODI1MDA0NTc3NjM3IEMgOTcuMTczNDg0ODAyMjQ2MDkgMjkuMTE2ODA5ODQ0OTcwNyA5Ny45OTk3MTAwODMwMDc4MSAzMy45OTk5Mjc1MjA3NTE5NSA5Ny45OTk3MTAwODMwMDc4MSAzOC45OTk3MDI0NTM2MTMyOCBDIDk3Ljk5OTcxMDA4MzAwNzgxIDQ0Ljk0MTYxNjA1ODM0OTYxIDk2LjgzNjkwNjQzMzEwNTQ3IDUwLjcwMzYyODU0MDAzOTA2IDk0LjU0MzYxNzI0ODUzNTE2IDU2LjEyNTY5MDQ2MDIwNTA4IEMgOTIuMzI3NzIwNjQyMDg5ODQgNjEuMzY0Nzc2NjExMzI4MTIgODkuMTU0NjE3MzA5NTcwMzEgNjYuMDcwNzkzMTUxODU1NDcgODUuMTEyNDcyNTM0MTc5NjkgNzAuMTEyOTkxMzMzMDA3ODEgQyA4MS4wNzAzMzUzODgxODM1OSA3NC4xNTUxNzQyNTUzNzEwOSA3Ni4zNjQ0MTA0MDAzOTA2MiA3Ny4zMjgzMDA0NzYwNzQyMiA3MS4xMjU0MzQ4NzU0ODgyOCA3OS41NDQyMTIzNDEzMDg1OSBDIDY1LjcwMzUyMTcyODUxNTYyIDgxLjgzNzUwMTUyNTg3ODkxIDU5Ljk0MTY4MDkwODIwMzEyIDgzLjAwMDMwNTE3NTc4MTI1IDUzLjk5OTk5NjE4NTMwMjczIDgzLjAwMDMwNTE3NTc4MTI1IFoiIHN0cm9rZT0ibm9uZSIvPiYjeGE7ICAgICAgICA8cGF0aCBkPSJNIDU0LjAwMDAwNzYyOTM5NDUzIDc5LjAwMDMwNTE3NTc4MTI1IEMgNzYuMDU1OTIzNDYxOTE0MDYgNzkuMDAwMzA1MTc1NzgxMjUgOTMuOTk5NzEwMDgzMDA3ODEgNjEuMDU2MTAyNzUyNjg1NTUgOTMuOTk5NzEwMDgzMDA3ODEgMzguOTk5NzAyNDUzNjEzMjggQyA5My45OTk3MTAwODMwMDc4MSAzNS4xMTIxMjkyMTE0MjU3OCA5My40NTA4OTcyMTY3OTY4OCAzMS4zMDMxMzg3MzI5MTAxNiA5Mi4zNjUwNTg4OTg5MjU3OCAyNy42MzQ2NjA3MjA4MjUyIEMgODguNjk2NTcxMzUwMDk3NjYgMjYuNTQ4ODIwNDk1NjA1NDcgODQuODg3NTczMjQyMTg3NSAyNi4wMDAwMDE5MDczNDg2MyA4MS4wMDAwMDc2MjkzOTQ1MyAyNi4wMDAwMDE5MDczNDg2MyBDIDU4Ljk0NDA5MTc5Njg3NSAyNi4wMDAwMDE5MDczNDg2MyA0MS4wMDAzMDg5OTA0Nzg1MiA0My45NDM3ODY2MjEwOTM3NSA0MS4wMDAzMDg5OTA0Nzg1MiA2NS45OTk3MDI0NTM2MTMyOCBDIDQxLjAwMDMwODk5MDQ3ODUyIDY5Ljg4Nzc0MTA4ODg2NzE5IDQxLjU0OTA1NzAwNjgzNTk0IDczLjY5NjYzMjM4NTI1MzkxIDQyLjYzNTE0MzI4MDAyOTMgNzcuMzY1NzA3Mzk3NDYwOTQgQyA0Ni4zMDM1NjU5NzkwMDM5MSA3OC40NTE1MjI4MjcxNDg0NCA1MC4xMTI0NDU4MzEyOTg4MyA3OS4wMDAzMDUxNzU3ODEyNSA1NC4wMDAwMDc2MjkzOTQ1MyA3OS4wMDAzMDUxNzU3ODEyNSBNIDU0LjAwMDAwNzYyOTM5NDUzIDg3LjAwMDMwNTE3NTc4MTI1IEMgNDcuNzY3NDI1NTM3MTA5MzggODcuMDAwMzA1MTc1NzgxMjUgNDEuODEzNDA3ODk3OTQ5MjIgODUuODEyODA1MTc1NzgxMjUgMzYuMzQ5NzU4MTQ4MTkzMzYgODMuNjUxMDg0ODk5OTAyMzQgQyAzNC4xODgwNTY5NDU4MDA3OCA3OC4xODczMTY4OTQ1MzEyNSAzMy4wMDAzMDg5OTA0Nzg1MiA3Mi4yMzI0ODI5MTAxNTYyNSAzMy4wMDAzMDg5OTA0Nzg1MiA2NS45OTk3MDI0NTM2MTMyOCBDIDMzLjAwMDMwODk5MDQ3ODUyIDM5LjQ5MDIwMzg1NzQyMTg4IDU0LjQ5MDUwOTAzMzIwMzEyIDE4LjAwMDAwMTkwNzM0ODYzIDgxLjAwMDAwNzYyOTM5NDUzIDE4LjAwMDAwMTkwNzM0ODYzIEMgODcuMjMyNTg5NzIxNjc5NjkgMTguMDAwMDAxOTA3MzQ4NjMgOTMuMTg2Nzc1MjA3NTE5NTMgMTkuMTg3NTY4NjY0NTUwNzggOTguNjUwNDIxMTQyNTc4MTIgMjEuMzQ5Mjg1MTI1NzMyNDIgQyAxMDAuODEyMTQxNDE4NDU3IDI2LjgxMjkxOTYxNjY5OTIyIDEwMS45OTk3MTAwODMwMDc4IDMyLjc2NzEyMDM2MTMyODEyIDEwMS45OTk3MTAwODMwMDc4IDM4Ljk5OTcwMjQ1MzYxMzI4IEMgMTAxLjk5OTcxMDA4MzAwNzggNjUuNTEwMTAxMzE4MzU5MzggODAuNTA5NDkwOTY2Nzk2ODggODcuMDAwMzA1MTc1NzgxMjUgNTQuMDAwMDA3NjI5Mzk0NTMgODcuMDAwMzA1MTc1NzgxMjUgWiIgc3Ryb2tlPSJub25lIiBmaWxsPSIjMzMzIi8+JiN4YTsgICAgICA8L2c+JiN4YTsgICAgICA8ZyBpZD0iVW5pb24iIHRyYW5zZm9ybT0idHJhbnNsYXRlKDYwMiA0NzQpIiBmaWxsPSJub25lIj4mI3hhOyAgICAgICAgPHBhdGggZD0iTTM2LjM1LDgzLjY1MWE0OC4wMDgsNDguMDA4LDAsMSwxLDYyLjMtNjIuMyw0OC4wMDgsNDguMDA4LDAsMSwxLTYyLjMsNjIuM1oiIHN0cm9rZT0ibm9uZSIvPiYjeGE7ICAgICAgICA8cGF0aCBkPSJNIDgxLjAwMDAwNzYyOTM5NDUzIDEwNi4wMDAzMjA0MzQ1NzAzIEMgMTAzLjA1NTkzODcyMDcwMzEgMTA2LjAwMDMyMDQzNDU3MDMgMTIwLjk5OTcyNTM0MTc5NjkgODguMDU2MTA2NTY3MzgyODEgMTIwLjk5OTcyNTM0MTc5NjkgNjUuOTk5NzAyNDUzNjEzMjggQyAxMjAuOTk5NzI1MzQxNzk2OSA0OS40NzM2NTE4ODU5ODYzMyAxMTEuMDcxODE1NDkwNzIyNyAzNC44NjcyNDg1MzUxNTYyNSA5NS43MDcxNzYyMDg0OTYwOSAyOC43ODgxNzU1ODI4ODU3NCBMIDkyLjQ4NTk4NDgwMjI0NjA5IDI3LjUxMzcwMDQ4NTIyOTQ5IEwgOTEuMjExNTA5NzA0NTg5ODQgMjQuMjkyNTA5MDc4OTc5NDkgQyA4NS4xMzI0Mzg2NTk2Njc5NyA4LjkyNzkxNDYxOTQ0NTgwMSA3MC41MjYwNTQzODIzMjQyMiAtMC45OTk5OTAyODQ0NDI5MDE2IDU0LjAwMDAwNzYyOTM5NDUzIC0wLjk5OTk5MDI4NDQ0MjkwMTYgQyAzMS45NDQwNzg0NDU0MzQ1NyAtMC45OTk5OTAyODQ0NDI5MDE2IDE0LjAwMDI5MzczMTY4OTQ1IDE2Ljk0Mzc5NjE1NzgzNjkxIDE0LjAwMDI5MzczMTY4OTQ1IDM4Ljk5OTY5ODYzODkxNjAyIEMgMTQuMDAwMjkzNzMxNjg5NDUgNTUuNTI2MjQ4OTMxODg0NzcgMjMuOTI4MjcwMzM5OTY1ODIgNzAuMTMzMDEwODY0MjU3ODEgMzkuMjkzMDA2ODk2OTcyNjYgNzYuMjEyMTczNDYxOTE0MDYgTCA0Mi41MTQyNDQwNzk1ODk4NCA3Ny40ODY2NzkwNzcxNDg0NCBMIDQzLjc4ODY5NjI4OTA2MjUgODAuNzA3OTE2MjU5NzY1NjIgQyA0OS44Njc2MDMzMDIwMDE5NSA5Ni4wNzI0NjM5ODkyNTc4MSA2NC40NzM5MTUxMDAwOTc2NiAxMDYuMDAwMzIwNDM0NTcwMyA4MS4wMDAwMDc2MjkzOTQ1MyAxMDYuMDAwMzIwNDM0NTcwMyBNIDgxLjAwMDAwNzYyOTM5NDUzIDExNC4wMDAzMjA0MzQ1NzAzIEMgNjAuNzIzMDc5NjgxMzk2NDggMTE0LjAwMDMyMDQzNDU3MDMgNDMuMzgyNjI1NTc5ODMzOTggMTAxLjQyNjc1MDE4MzEwNTUgMzYuMzQ5NzY5NTkyMjg1MTYgODMuNjUxMDg0ODk5OTAyMzQgQyAxOC41NzQ0ODM4NzE0NTk5NiA3Ni42MTgxNzkzMjEyODkwNiA2LjAwMDI5MzI1NDg1MjI5NSA1OS4yNzczMjA4NjE4MTY0MSA2LjAwMDI5MzI1NDg1MjI5NSAzOC45OTk2OTg2Mzg5MTYwMiBDIDYuMDAwMjkzMjU0ODUyMjk1IDEyLjQ5MDIwMDA0MjcyNDYxIDI3LjQ5MDUwNzEyNTg1NDQ5IC04Ljk5OTk5MDQ2MzI1NjgzNiA1NC4wMDAwMDc2MjkzOTQ1MyAtOC45OTk5OTA0NjMyNTY4MzYgQyA3NC4yNzY5MzkzOTIwODk4NCAtOC45OTk5OTA0NjMyNTY4MzYgOTEuNjE3NTUzNzEwOTM3NSAzLjU3NDAwOTY1NjkwNjEyOCA5OC42NTA0MTM1MTMxODM1OSAyMS4zNDkyNzE3NzQyOTE5OSBDIDExNi40MjU2OTczMjY2NjAyIDI4LjM4MjEyOTY2OTE4OTQ1IDEyOC45OTk3MjUzNDE3OTY5IDQ1LjcyMjc3MDY5MDkxNzk3IDEyOC45OTk3MjUzNDE3OTY5IDY1Ljk5OTcwMjQ1MzYxMzI4IEMgMTI4Ljk5OTcyNTM0MTc5NjkgOTIuNTEwMTAxMzE4MzU5MzggMTA3LjUwOTUwNjIyNTU4NTkgMTE0LjAwMDMyMDQzNDU3MDMgODEuMDAwMDA3NjI5Mzk0NTMgMTE0LjAwMDMyMDQzNDU3MDMgWiIgc3Ryb2tlPSJub25lIiBmaWxsPSIjMzMzIi8+JiN4YTsgICAgICA8L2c+JiN4YTsgICAgPC9nPiYjeGE7ICAgIDxwYXRoIGlkPSJCb3VuZGVyIiBkPSJNMCwwSDEzOVYxMzlIMFoiIHRyYW5zZm9ybT0idHJhbnNsYXRlKDM4OSAxNDQpIiBmaWxsPSJub25lIi8+JiN4YTsgIDwvZz4mI3hhOzwvc3ZnPg==;labelBackgroundColor=none;labelBorderColor=none;sketch=0;fontColor=#000000;strokeColor=default;fillColor=#333333;gradientColor=none;" parent="c5S3hnpAkCvErc0u6A9T-1" vertex="1">
          <mxGeometry x="360" y="64" width="80" height="80" as="geometry" />
        </mxCell>
        <mxCell id="0ZiLFCwHW02lN8iRYSul-0" value="" style="shape=image;verticalLabelPosition=bottom;verticalAlign=top;imageAspect=0;aspect=fixed;image=data:image/svg+xml,PHN2ZyB4bWxucz0iaHR0cDovL3d3dy53My5vcmcvMjAwMC9zdmciIHdpZHRoPSIxMzkiIGhlaWdodD0iMTM5IiB2aWV3Qm94PSIwIDAgMTM5IDEzOSI+JiN4YTsgIDxnIGlkPSJHVE0iIHRyYW5zZm9ybT0idHJhbnNsYXRlKC02NzIgLTgwKSI+JiN4YTsgICAgPGcgaWQ9IkdUTS0yIiBkYXRhLW5hbWU9IkdUTSIgdHJhbnNmb3JtPSJ0cmFuc2xhdGUoNjc5Ljk5NyA4OC4wMDIpIj4mI3hhOyAgICAgIDxwYXRoIGlkPSJQYXRoXzEiIGRhdGEtbmFtZT0iUGF0aCAxIiBkPSJNNzIuMTMsMTE4LjIyLDUwLjgsOTYuODZsNDUuODMtNDYuMywyMS43MiwyMS43Mkw3Mi4xMywxMTguMjJaIiB0cmFuc2Zvcm09InRyYW5zbGF0ZSgwLjEzMyAwLjEwOCkiIGZpbGw9IiM4YWI0ZjgiLz4mI3hhOyAgICAgIDxwYXRoIGlkPSJQYXRoXzIiIGRhdGEtbmFtZT0iUGF0aCAyIiBkPSJNNzIuMjksMjYuMjUxLDUwLjU2LDQuNSw0LjUsNTAuNmExNS4zNzUsMTUuMzc1LDAsMCwwLDAsMjEuNzMxaDBsNDYuMDYsNDYuMSwyMS4zMS0yMS40MkwzNy4wNyw2MS41WiIgdHJhbnNmb3JtPSJ0cmFuc2xhdGUoMCAwKSIgZmlsbD0iIzQyODVmNCIvPiYjeGE7ICAgICAgPHBhdGggaWQ9IlBhdGhfMyIgZGF0YS1uYW1lPSJQYXRoIDMiIGQ9Ik0xMTguMzUsNTAuNTYsNzIuMjksNC41QTE1LjM2MiwxNS4zNjIsMCwxLDAsNTAuNTYsMjYuMjJMOTYuNjUsNzIuMjhhMTUuMzU5LDE1LjM1OSwwLDEsMCwyMS43MjEtMjEuNzIxWiIgdHJhbnNmb3JtPSJ0cmFuc2xhdGUoMC4xMzMpIiBmaWxsPSIjOGFiNGY4Ii8+JiN4YTsgICAgICA8cGF0aCBpZD0iUGF0aF80IiBkYXRhLW5hbWU9IlBhdGggNCIgZD0iTTc2LjQ4LDEwNy42NmExNS4yMywxNS4yMywwLDEsMC0xNS4yMiwxNS4yMywxNS4yMywxNS4yMywwLDAsMCwxNS4yMi0xNS4yM1oiIHRyYW5zZm9ybT0idHJhbnNsYXRlKDAuMDY2IDAuMTA4KSIgZmlsbD0iIzI0NmZkYiIvPiYjeGE7ICAgIDwvZz4mI3hhOyAgICA8cmVjdCBpZD0iQm91bmRlciIgd2lkdGg9IjEzOSIgaGVpZ2h0PSIxMzkiIHRyYW5zZm9ybT0idHJhbnNsYXRlKDY3MiA4MCkiIGZpbGw9Im5vbmUiLz4mI3hhOyAgPC9nPiYjeGE7PC9zdmc+;labelBackgroundColor=none;labelBorderColor=none;sketch=0;fontColor=#000000;strokeColor=default;fillColor=#333333;gradientColor=none;" parent="c5S3hnpAkCvErc0u6A9T-1" vertex="1">
          <mxGeometry x="30" y="64" width="80" height="80" as="geometry" />
        </mxCell>
        <mxCell id="WD3S5opRwEf6ZhlkS9kt-0" value="&lt;b&gt;Data Layer&lt;/b&gt;" style="whiteSpace=wrap;html=1;align=center;sketch=0;strokeColor=#d6b656;fillColor=#fff2cc;labelBackgroundColor=none;" parent="c5S3hnpAkCvErc0u6A9T-1" vertex="1">
          <mxGeometry x="19" y="217" width="100" height="40" as="geometry" />
        </mxCell>
        <mxCell id="Bbi3WZAqMkF8lYHWg2ze-0" value="" style="shape=image;verticalLabelPosition=bottom;verticalAlign=top;imageAspect=0;aspect=fixed;image=data:image/svg+xml,PHN2ZyB4bWxucz0iaHR0cDovL3d3dy53My5vcmcvMjAwMC9zdmciIHdpZHRoPSIxMjQuODQ5OTc1NTg1OTM3NSIgaGVpZ2h0PSIxMzkiIHZpZXdCb3g9IjAgMCAxMjQuODQ5OTc1NTg1OTM3NSAxMzkiPiYjeGE7ICA8ZyBpZD0iR0EiIHRyYW5zZm9ybT0idHJhbnNsYXRlKC0xMDQ4IC0yMDgpIj4mI3hhOyAgICA8cmVjdCBpZD0iQm91bmRlciIgd2lkdGg9IjEyNC44NSIgaGVpZ2h0PSIxMzkiIHRyYW5zZm9ybT0idHJhbnNsYXRlKDEwNDggMjA4KSIgZmlsbD0ibm9uZSIvPiYjeGE7ICAgIDxnIGlkPSJHQS0yIiBkYXRhLW5hbWU9IkdBIiB0cmFuc2Zvcm09InRyYW5zbGF0ZSg0NDYgMTU3KSI+JiN4YTsgICAgICA8Y2lyY2xlIGlkPSJFbGxpcHNlXzUiIGRhdGEtbmFtZT0iRWxsaXBzZSA1IiBjeD0iMTQiIGN5PSIxNCIgcj0iMTQiIHRyYW5zZm9ybT0idHJhbnNsYXRlKDYxMCAxNTIpIiBmaWxsPSIjZTM3NDAwIi8+JiN4YTsgICAgICA8cmVjdCBpZD0iUmVjdGFuZ2xlXzIiIGRhdGEtbmFtZT0iUmVjdGFuZ2xlIDIiIHdpZHRoPSIyOCIgaGVpZ2h0PSI2OS44NTYiIHJ4PSIxNCIgdHJhbnNmb3JtPSJ0cmFuc2xhdGUoNjUwLjU0NSAxMTAuMzE2KSIgZmlsbD0iI2UzNzQwMCIvPiYjeGE7ICAgICAgPHJlY3QgaWQ9IlJlY3RhbmdsZV8zIiBkYXRhLW5hbWU9IlJlY3RhbmdsZSAzIiB3aWR0aD0iMjgiIGhlaWdodD0iMTIxLjIzNyIgcng9IjE0IiB0cmFuc2Zvcm09InRyYW5zbGF0ZSg2OTAuOTQ4IDU5KSIgZmlsbD0iI2Y5YWIwMCIvPiYjeGE7ICAgIDwvZz4mI3hhOyAgPC9nPiYjeGE7PC9zdmc+;labelBackgroundColor=none;labelBorderColor=none;sketch=0;fontColor=#000000;strokeColor=default;fillColor=#333333;gradientColor=none;" parent="c5S3hnpAkCvErc0u6A9T-1" vertex="1">
          <mxGeometry x="194.0299999999999" y="64" width="71.94" height="80" as="geometry" />
        </mxCell>
        <mxCell id="Bbi3WZAqMkF8lYHWg2ze-1" value="" style="shape=image;verticalLabelPosition=bottom;labelBackgroundColor=#ffffff;verticalAlign=top;aspect=fixed;imageAspect=0;image=data:image/svg+xml,PHN2ZyB4bWxucz0iaHR0cDovL3d3dy53My5vcmcvMjAwMC9zdmciIHdpZHRoPSIxNjkuMTc5OTkyNjc1NzgxMjUiIGhlaWdodD0iMTM5IiB2aWV3Qm94PSIwIDAgMTY5LjE3OTk5MjY3NTc4MTI1IDEzOSI+JiN4YTsgIDxnIGlkPSJGb2xkZXIiIHRyYW5zZm9ybT0idHJhbnNsYXRlKC0yMzIgLTIxNikiPiYjeGE7ICAgIDxyZWN0IGlkPSJCb3VuZGVyIiB3aWR0aD0iMTY5LjE4IiBoZWlnaHQ9IjEzOSIgdHJhbnNmb3JtPSJ0cmFuc2xhdGUoMjMyIDIxNikiIGZpbGw9Im5vbmUiLz4mI3hhOyAgICA8cGF0aCBpZD0iRm9sZGVyLTIiIGRhdGEtbmFtZT0iRm9sZGVyIiBkPSJNMTU2LjE4LDExM0gzNUExNiwxNiwwLDAsMSwxOSw5N1Y2QTE2LDE2LDAsMCwxLDM1LTEwSDgwLjQwNmwxNSwxNWg2MC43NzVhMTYsMTYsMCwwLDEsMTYsMTZWOTdhMTUuOTg0LDE1Ljk4NCwwLDAsMS0xNiwxNloiIHRyYW5zZm9ybT0idHJhbnNsYXRlKDIyMSAyMzQpIiBmaWxsPSIjMzMzIi8+JiN4YTsgIDwvZz4mI3hhOzwvc3ZnPg==;" parent="c5S3hnpAkCvErc0u6A9T-1" vertex="1">
          <mxGeometry x="530" y="64" width="97.27" height="80" as="geometry" />
        </mxCell>
        <mxCell id="Bbi3WZAqMkF8lYHWg2ze-2" value="" style="shape=image;verticalLabelPosition=bottom;labelBackgroundColor=#ffffff;verticalAlign=top;aspect=fixed;imageAspect=0;image=data:image/svg+xml,PHN2ZyB4bWxucz0iaHR0cDovL3d3dy53My5vcmcvMjAwMC9zdmciIHdpZHRoPSIxODUuNDE5OTgyOTEwMTU2MjUiIGhlaWdodD0iMTE2IiB2aWV3Qm94PSIwIDAgMTg1LjQxOTk4MjkxMDE1NjI1IDExNiI+JiN4YTsgIDxnIGlkPSJUYWciIHRyYW5zZm9ybT0idHJhbnNsYXRlKC0yNTYgLTE5KSI+JiN4YTsgICAgPHJlY3QgaWQ9IkJvdW5kZXIiIHdpZHRoPSIxODUuNDIiIGhlaWdodD0iMTE2IiB0cmFuc2Zvcm09InRyYW5zbGF0ZSgyNTYgMTkpIiBmaWxsPSJub25lIi8+JiN4YTsgICAgPHBhdGggaWQ9IlRhZy0yIiBkYXRhLW5hbWU9IlRhZyIgZD0iTTI0LDkwYTUsNSwwLDAsMS01LTVWLTVhNSw1LDAsMCwxLDUtNUgxNDNhNC45ODksNC45ODksMCwwLDEsMy44MjQsMS43NzksMS4wMTIsMS4wMTIsMCwwLDEsLjMxMi4yNDVsNDEuMDQzLDQ3LjMyYTEsMSwwLDAsMSwwLDEuMzFMMTQ3LjEzNyw4Ny45NzZhMS4wMTEsMS4wMTEsMCwwLDEtLjMxMi4yNDVBNC45ODgsNC45ODgsMCwwLDEsMTQzLDkwWiIgdHJhbnNmb3JtPSJ0cmFuc2xhdGUoMjQ1IDM3KSIgZmlsbD0iIzMzMyIvPiYjeGE7ICA8L2c+JiN4YTs8L3N2Zz4=;" parent="c5S3hnpAkCvErc0u6A9T-1" vertex="1">
          <mxGeometry x="360" y="204" width="90.91" height="57" as="geometry" />
        </mxCell>
        <mxCell id="Bbi3WZAqMkF8lYHWg2ze-3" value="" style="shape=image;verticalLabelPosition=bottom;labelBackgroundColor=#ffffff;verticalAlign=top;aspect=fixed;imageAspect=0;image=data:image/svg+xml,PHN2ZyB4bWxucz0iaHR0cDovL3d3dy53My5vcmcvMjAwMC9zdmciIHdpZHRoPSIxODYiIGhlaWdodD0iMTE2IiB2aWV3Qm94PSIwIDAgMTg2IDExNiI+JiN4YTsgIDxnIGlkPSJWYXJpYWJsZSIgdHJhbnNmb3JtPSJ0cmFuc2xhdGUoLTk1MiAtNDU2KSI+JiN4YTsgICAgPGcgaWQ9IlZhcmlhYmxlLTIiIGRhdGEtbmFtZT0iVmFyaWFibGUiPiYjeGE7ICAgICAgPHJlY3QgaWQ9IlJlY3RhbmdsZV80IiBkYXRhLW5hbWU9IlJlY3RhbmdsZSA0IiB3aWR0aD0iMTcwIiBoZWlnaHQ9IjgwIiB0cmFuc2Zvcm09InRyYW5zbGF0ZSg5NjAgNDg0KSIgZmlsbD0iIzMzMyIvPiYjeGE7ICAgICAgPHJlY3QgaWQ9IlJlY3RhbmdsZV81IiBkYXRhLW5hbWU9IlJlY3RhbmdsZSA1IiB3aWR0aD0iMzAiIGhlaWdodD0iMjEiIHRyYW5zZm9ybT0idHJhbnNsYXRlKDk4MCA0NjQpIiBmaWxsPSIjMzMzIi8+JiN4YTsgICAgICA8cmVjdCBpZD0iUmVjdGFuZ2xlXzYiIGRhdGEtbmFtZT0iUmVjdGFuZ2xlIDYiIHdpZHRoPSIzMCIgaGVpZ2h0PSIyMSIgdHJhbnNmb3JtPSJ0cmFuc2xhdGUoMTA4MCA0NjQpIiBmaWxsPSIjMzMzIi8+JiN4YTsgICAgICA8cmVjdCBpZD0iUmVjdGFuZ2xlXzciIGRhdGEtbmFtZT0iUmVjdGFuZ2xlIDciIHdpZHRoPSIzMCIgaGVpZ2h0PSIyMSIgdHJhbnNmb3JtPSJ0cmFuc2xhdGUoMTAzMCA0NjQpIiBmaWxsPSIjMzMzIi8+JiN4YTsgICAgPC9nPiYjeGE7ICAgIDxyZWN0IGlkPSJCb3VuZGVyIiB3aWR0aD0iMTg2IiBoZWlnaHQ9IjExNiIgdHJhbnNmb3JtPSJ0cmFuc2xhdGUoOTUyIDQ1NikiIGZpbGw9Im5vbmUiLz4mI3hhOyAgPC9nPiYjeGE7PC9zdmc+;" parent="c5S3hnpAkCvErc0u6A9T-1" vertex="1">
          <mxGeometry x="184.3" y="204" width="91.4" height="57" as="geometry" />
        </mxCell>
        <mxCell id="Bbi3WZAqMkF8lYHWg2ze-4" value="" style="shape=image;verticalLabelPosition=bottom;labelBackgroundColor=#ffffff;verticalAlign=top;aspect=fixed;imageAspect=0;image=data:image/svg+xml,PHN2ZyB4bWxucz0iaHR0cDovL3d3dy53My5vcmcvMjAwMC9zdmciIHdpZHRoPSIxODIuNDEwMDAzNjYyMTA5MzgiIGhlaWdodD0iMTM5IiB2aWV3Qm94PSIwIDAgMTgyLjQxMDAwMzY2MjEwOTM4IDEzOSI+JiN4YTsgIDxnIGlkPSJUZW1wbGF0ZSIgdHJhbnNmb3JtPSJ0cmFuc2xhdGUoLTIxNy41OSAtMzY4KSI+JiN4YTsgICAgPHJlY3QgaWQ9IkJvdW5kZXIiIHdpZHRoPSIxODIuNDEiIGhlaWdodD0iMTM5IiB0cmFuc2Zvcm09InRyYW5zbGF0ZSgyMTcuNTkgMzY4KSIgZmlsbD0ibm9uZSIvPiYjeGE7ICAgIDxnIGlkPSJ0ZW1wbGF0ZS0yIiBkYXRhLW5hbWU9InRlbXBsYXRlIiB0cmFuc2Zvcm09InRyYW5zbGF0ZSgyMjUuNTkgMzc2KSIgZmlsbD0ibm9uZSI+JiN4YTsgICAgICA8cGF0aCBkPSJNMTgsMGg5NS4yYzkuOTQxLDAsMTIuOTU0LDUuNDMyLDEzLjIxLDUuMTc2bDQwLDU1LjIzNC0zOC43OSw1NS45NDhBMTguMTkxLDE4LjE5MSwwLDAsMSwxMTMuMiwxMjNIMThBMTgsMTgsMCwwLDEsMCwxMDVWMThBMTgsMTgsMCwwLDEsMTgsMFoiIHN0cm9rZT0ibm9uZSIvPiYjeGE7ICAgICAgPHBhdGggZD0iTSAxOCAxOCBMIDE4IDEwNSBMIDExMy42ODA0NzMzMjc2MzY3IDEwNC44NzEyMDgxOTA5MTggTCAxNDQuMzQ5NzMxNDQ1MzEyNSA2MC42MzY1OTI4NjQ5OTAyMyBMIDExMy40NzYwMTMxODM1OTM4IDE4LjAwNDM3OTI3MjQ2MDk0IEMgMTEzLjM5MTQzMzcxNTgyMDMgMTguMDAxNjAyMTcyODUxNTYgMTEzLjI5OTUzMDAyOTI5NjkgMTggMTEzLjE5OTk5Njk0ODI0MjIgMTggTCAxOCAxOCBNIDE4IDAgTCAxMTMuMTk5OTk2OTQ4MjQyMiAwIEMgMTIzLjE0MTA3NTEzNDI3NzMgLTcuNjI5Mzk0NTMxMjVlLTA2IDEyNi4xNTM0ODgxNTkxNzk3IDUuNDMyMjI4MDg4Mzc4OTA2IDEyNi40MTAwMDM2NjIxMDk0IDUuMTc1NzI3ODQ0MjM4MjgxIEwgMTY2LjQxMDAwMzY2MjEwOTQgNjAuNDEwMDM3OTk0Mzg0NzcgTCAxMjcuNjE5NTM3MzUzNTE1NiAxMTYuMzU3OTYzNTYyMDExNyBDIDEyNy44NzY5NTMxMjUgMTE1Ljk5NzI3NjMwNjE1MjMgMTIzLjE0MDA5MDk0MjM4MjggMTIzIDExMy4xOTk5OTY5NDgyNDIyIDEyMyBMIDE4IDEyMyBDIDguMDU4ODUzMTQ5NDE0MDYyIDEyMyAwIDExNC45NDExMTYzMzMwMDc4IDAgMTA1IEwgMCAxOCBDIDAgOC4wNTg4ODM2NjY5OTIxODggOC4wNTg4NTMxNDk0MTQwNjIgMCAxOCAwIFoiIHN0cm9rZT0ibm9uZSIgZmlsbD0iIzMzMyIvPiYjeGE7ICAgIDwvZz4mI3hhOyAgPC9nPiYjeGE7PC9zdmc+;" parent="c5S3hnpAkCvErc0u6A9T-1" vertex="1">
          <mxGeometry x="700" y="64" width="104.75" height="80" as="geometry" />
        </mxCell>
        <mxCell id="Bbi3WZAqMkF8lYHWg2ze-5" value="Tag" style="text;html=1;strokeColor=none;fillColor=none;align=center;verticalAlign=middle;whiteSpace=wrap;rounded=0;" parent="c5S3hnpAkCvErc0u6A9T-1" vertex="1">
          <mxGeometry x="40" y="144" width="60" height="30" as="geometry" />
        </mxCell>
        <mxCell id="Bbi3WZAqMkF8lYHWg2ze-6" value="Google Analytics" style="text;html=1;strokeColor=none;fillColor=none;align=center;verticalAlign=middle;whiteSpace=wrap;rounded=0;" parent="c5S3hnpAkCvErc0u6A9T-1" vertex="1">
          <mxGeometry x="180" y="144" width="100" height="30" as="geometry" />
        </mxCell>
        <mxCell id="Bbi3WZAqMkF8lYHWg2ze-7" value="Variable" style="text;html=1;strokeColor=none;fillColor=none;align=center;verticalAlign=middle;whiteSpace=wrap;rounded=0;" parent="c5S3hnpAkCvErc0u6A9T-1" vertex="1">
          <mxGeometry x="200" y="261" width="60" height="30" as="geometry" />
        </mxCell>
        <mxCell id="Bbi3WZAqMkF8lYHWg2ze-8" value="Trigger" style="text;html=1;strokeColor=none;fillColor=none;align=center;verticalAlign=middle;whiteSpace=wrap;rounded=0;" parent="c5S3hnpAkCvErc0u6A9T-1" vertex="1">
          <mxGeometry x="370" y="144" width="60" height="30" as="geometry" />
        </mxCell>
        <mxCell id="Bbi3WZAqMkF8lYHWg2ze-9" value="Folder" style="text;html=1;strokeColor=none;fillColor=none;align=center;verticalAlign=middle;whiteSpace=wrap;rounded=0;" parent="c5S3hnpAkCvErc0u6A9T-1" vertex="1">
          <mxGeometry x="549" y="144" width="60" height="30" as="geometry" />
        </mxCell>
        <mxCell id="Bbi3WZAqMkF8lYHWg2ze-10" value="Template" style="text;html=1;strokeColor=none;fillColor=none;align=center;verticalAlign=middle;whiteSpace=wrap;rounded=0;" parent="c5S3hnpAkCvErc0u6A9T-1" vertex="1">
          <mxGeometry x="722" y="144" width="60" height="30" as="geometry" />
        </mxCell>
        <mxCell id="Bbi3WZAqMkF8lYHWg2ze-12" value="Tag" style="text;html=1;strokeColor=none;fillColor=none;align=center;verticalAlign=middle;whiteSpace=wrap;rounded=0;" parent="c5S3hnpAkCvErc0u6A9T-1" vertex="1">
          <mxGeometry x="370" y="261" width="60" height="30" as="geometry" />
        </mxCell>
        <mxCell id="F6XHh6pwDf41nAXVtgKm-1" value="" style="endArrow=none;html=1;rounded=0;" parent="c5S3hnpAkCvErc0u6A9T-1" edge="1">
          <mxGeometry width="50" height="50" relative="1" as="geometry">
            <mxPoint y="319" as="sourcePoint" />
            <mxPoint x="820" y="319" as="targetPoint" />
          </mxGeometry>
        </mxCell>
        <mxCell id="F6XHh6pwDf41nAXVtgKm-2" value="&lt;h1&gt;Common Group&lt;/h1&gt;" style="text;html=1;strokeColor=none;fillColor=none;spacing=5;spacingTop=-20;whiteSpace=wrap;overflow=hidden;rounded=0;" parent="c5S3hnpAkCvErc0u6A9T-1" vertex="1">
          <mxGeometry x="10" y="343" width="220" height="40" as="geometry" />
        </mxCell>
        <mxCell id="F6XHh6pwDf41nAXVtgKm-3" value="&lt;h1&gt;Icon Gallery&lt;/h1&gt;" style="text;html=1;strokeColor=none;fillColor=none;spacing=5;spacingTop=-20;whiteSpace=wrap;overflow=hidden;rounded=0;" parent="c5S3hnpAkCvErc0u6A9T-1" vertex="1">
          <mxGeometry x="10" y="10" width="220" height="40" as="geometry" />
        </mxCell>
        <mxCell id="dJE50GDlpLbIHQwaJ28i-0" value="" style="group" parent="c5S3hnpAkCvErc0u6A9T-1" vertex="1" connectable="0">
          <mxGeometry x="15" y="414" width="170" height="129" as="geometry" />
        </mxCell>
        <mxCell id="dJE50GDlpLbIHQwaJ28i-1" value="&lt;b&gt;Type:&lt;/b&gt; Window Loaded" style="text;html=1;strokeColor=none;fillColor=none;align=center;verticalAlign=middle;whiteSpace=wrap;rounded=0;labelBackgroundColor=none;labelBorderColor=none;sketch=0;fontColor=#000000;" parent="dJE50GDlpLbIHQwaJ28i-0" vertex="1">
          <mxGeometry x="15" y="100" width="140" height="30" as="geometry" />
        </mxCell>
        <mxCell id="dJE50GDlpLbIHQwaJ28i-2" value="" style="shape=image;verticalLabelPosition=bottom;verticalAlign=top;imageAspect=0;aspect=fixed;image=data:image/svg+xml,PHN2ZyB4bWxucz0iaHR0cDovL3d3dy53My5vcmcvMjAwMC9zdmciIHdpZHRoPSIxMzkiIGhlaWdodD0iMTM5IiB2aWV3Qm94PSIwIDAgMTM5IDEzOSI+JiN4YTsgIDxnIGlkPSJUcmlnZ2VyIiB0cmFuc2Zvcm09InRyYW5zbGF0ZSgtMzg5IC0xNDQpIj4mI3hhOyAgICA8ZyBpZD0iVHJpZ2dlci0yIiBkYXRhLW5hbWU9IlRyaWdnZXIiIHRyYW5zZm9ybT0idHJhbnNsYXRlKC0yMTEgLTMxMykiPiYjeGE7ICAgICAgPGcgaWQ9IkludGVyc2VjdGlvbiIgdHJhbnNmb3JtPSJ0cmFuc2xhdGUoNjAyIDQ3MykiIGZpbGw9IiMzMzMiPiYjeGE7ICAgICAgICA8cGF0aCBkPSJNIDUzLjk5OTk5NjE4NTMwMjczIDgzLjAwMDMwNTE3NTc4MTI1IEMgNDkuMDAwMjI4ODgxODM1OTQgODMuMDAwMzA1MTc1NzgxMjUgNDQuMTE3MjEwMzg4MTgzNTkgODIuMTc0MTE4MDQxOTkyMTkgMzkuNDU4NzQwMjM0Mzc1IDgwLjU0MjEyMTg4NzIwNzAzIEMgMzcuODI2NjE4MTk0NTgwMDggNzUuODgzMjA5MjI4NTE1NjIgMzcuMDAwMzA4OTkwNDc4NTIgNzAuOTk5Njg3MTk0ODI0MjIgMzcuMDAwMzA4OTkwNDc4NTIgNjUuOTk5NzAyNDUzNjEzMjggQyAzNy4wMDAzMDg5OTA0Nzg1MiA2MC4wNTgwMTM5MTYwMTU2MiAzOC4xNjMwOTM1NjY4OTQ1MyA1NC4yOTYxODgzNTQ0OTIxOSA0MC40NTYzODI3NTE0NjQ4NCA0OC44NzQyNjM3NjM0Mjc3MyBDIDQyLjY3MjI4MzE3MjYwNzQyIDQzLjYzNTI4ODIzODUyNTM5IDQ1Ljg0NTM3MTI0NjMzNzg5IDM4LjkyOTM2MzI1MDczMjQyIDQ5Ljg4NzUxOTgzNjQyNTc4IDM0Ljg4NzIxNDY2MDY0NDUzIEMgNTMuOTI5NjY4NDI2NTEzNjcgMzAuODQ1MDY0MTYzMjA4MDEgNTguNjM1NTgxOTcwMjE0ODQgMjcuNjcxOTc3OTk2ODI2MTcgNjMuODc0NTU3NDk1MTE3MTkgMjUuNDU2MDc3NTc1NjgzNTkgQyA2OS4yOTY0ODU5MDA4Nzg5MSAyMy4xNjI3OTAyOTg0NjE5MSA3NS4wNTgzMTkwOTE3OTY4OCAyMi4wMDAwMDE5MDczNDg2MyA4MC45OTk5OTIzNzA2MDU0NyAyMi4wMDAwMDE5MDczNDg2MyBDIDg1Ljk5OTc3ODc0NzU1ODU5IDIyLjAwMDAwMTkwNzM0ODYzIDkwLjg4MjkwNDA1MjczNDM4IDIyLjgyNjIyNzE4ODExMDM1IDk1LjU0MTQ1MDUwMDQ4ODI4IDI0LjQ1ODI1MDA0NTc3NjM3IEMgOTcuMTczNDg0ODAyMjQ2MDkgMjkuMTE2ODA5ODQ0OTcwNyA5Ny45OTk3MTAwODMwMDc4MSAzMy45OTk5Mjc1MjA3NTE5NSA5Ny45OTk3MTAwODMwMDc4MSAzOC45OTk3MDI0NTM2MTMyOCBDIDk3Ljk5OTcxMDA4MzAwNzgxIDQ0Ljk0MTYxNjA1ODM0OTYxIDk2LjgzNjkwNjQzMzEwNTQ3IDUwLjcwMzYyODU0MDAzOTA2IDk0LjU0MzYxNzI0ODUzNTE2IDU2LjEyNTY5MDQ2MDIwNTA4IEMgOTIuMzI3NzIwNjQyMDg5ODQgNjEuMzY0Nzc2NjExMzI4MTIgODkuMTU0NjE3MzA5NTcwMzEgNjYuMDcwNzkzMTUxODU1NDcgODUuMTEyNDcyNTM0MTc5NjkgNzAuMTEyOTkxMzMzMDA3ODEgQyA4MS4wNzAzMzUzODgxODM1OSA3NC4xNTUxNzQyNTUzNzEwOSA3Ni4zNjQ0MTA0MDAzOTA2MiA3Ny4zMjgzMDA0NzYwNzQyMiA3MS4xMjU0MzQ4NzU0ODgyOCA3OS41NDQyMTIzNDEzMDg1OSBDIDY1LjcwMzUyMTcyODUxNTYyIDgxLjgzNzUwMTUyNTg3ODkxIDU5Ljk0MTY4MDkwODIwMzEyIDgzLjAwMDMwNTE3NTc4MTI1IDUzLjk5OTk5NjE4NTMwMjczIDgzLjAwMDMwNTE3NTc4MTI1IFoiIHN0cm9rZT0ibm9uZSIvPiYjeGE7ICAgICAgICA8cGF0aCBkPSJNIDU0LjAwMDAwNzYyOTM5NDUzIDc5LjAwMDMwNTE3NTc4MTI1IEMgNzYuMDU1OTIzNDYxOTE0MDYgNzkuMDAwMzA1MTc1NzgxMjUgOTMuOTk5NzEwMDgzMDA3ODEgNjEuMDU2MTAyNzUyNjg1NTUgOTMuOTk5NzEwMDgzMDA3ODEgMzguOTk5NzAyNDUzNjEzMjggQyA5My45OTk3MTAwODMwMDc4MSAzNS4xMTIxMjkyMTE0MjU3OCA5My40NTA4OTcyMTY3OTY4OCAzMS4zMDMxMzg3MzI5MTAxNiA5Mi4zNjUwNTg4OTg5MjU3OCAyNy42MzQ2NjA3MjA4MjUyIEMgODguNjk2NTcxMzUwMDk3NjYgMjYuNTQ4ODIwNDk1NjA1NDcgODQuODg3NTczMjQyMTg3NSAyNi4wMDAwMDE5MDczNDg2MyA4MS4wMDAwMDc2MjkzOTQ1MyAyNi4wMDAwMDE5MDczNDg2MyBDIDU4Ljk0NDA5MTc5Njg3NSAyNi4wMDAwMDE5MDczNDg2MyA0MS4wMDAzMDg5OTA0Nzg1MiA0My45NDM3ODY2MjEwOTM3NSA0MS4wMDAzMDg5OTA0Nzg1MiA2NS45OTk3MDI0NTM2MTMyOCBDIDQxLjAwMDMwODk5MDQ3ODUyIDY5Ljg4Nzc0MTA4ODg2NzE5IDQxLjU0OTA1NzAwNjgzNTk0IDczLjY5NjYzMjM4NTI1MzkxIDQyLjYzNTE0MzI4MDAyOTMgNzcuMzY1NzA3Mzk3NDYwOTQgQyA0Ni4zMDM1NjU5NzkwMDM5MSA3OC40NTE1MjI4MjcxNDg0NCA1MC4xMTI0NDU4MzEyOTg4MyA3OS4wMDAzMDUxNzU3ODEyNSA1NC4wMDAwMDc2MjkzOTQ1MyA3OS4wMDAzMDUxNzU3ODEyNSBNIDU0LjAwMDAwNzYyOTM5NDUzIDg3LjAwMDMwNTE3NTc4MTI1IEMgNDcuNzY3NDI1NTM3MTA5MzggODcuMDAwMzA1MTc1NzgxMjUgNDEuODEzNDA3ODk3OTQ5MjIgODUuODEyODA1MTc1NzgxMjUgMzYuMzQ5NzU4MTQ4MTkzMzYgODMuNjUxMDg0ODk5OTAyMzQgQyAzNC4xODgwNTY5NDU4MDA3OCA3OC4xODczMTY4OTQ1MzEyNSAzMy4wMDAzMDg5OTA0Nzg1MiA3Mi4yMzI0ODI5MTAxNTYyNSAzMy4wMDAzMDg5OTA0Nzg1MiA2NS45OTk3MDI0NTM2MTMyOCBDIDMzLjAwMDMwODk5MDQ3ODUyIDM5LjQ5MDIwMzg1NzQyMTg4IDU0LjQ5MDUwOTAzMzIwMzEyIDE4LjAwMDAwMTkwNzM0ODYzIDgxLjAwMDAwNzYyOTM5NDUzIDE4LjAwMDAwMTkwNzM0ODYzIEMgODcuMjMyNTg5NzIxNjc5NjkgMTguMDAwMDAxOTA3MzQ4NjMgOTMuMTg2Nzc1MjA3NTE5NTMgMTkuMTg3NTY4NjY0NTUwNzggOTguNjUwNDIxMTQyNTc4MTIgMjEuMzQ5Mjg1MTI1NzMyNDIgQyAxMDAuODEyMTQxNDE4NDU3IDI2LjgxMjkxOTYxNjY5OTIyIDEwMS45OTk3MTAwODMwMDc4IDMyLjc2NzEyMDM2MTMyODEyIDEwMS45OTk3MTAwODMwMDc4IDM4Ljk5OTcwMjQ1MzYxMzI4IEMgMTAxLjk5OTcxMDA4MzAwNzggNjUuNTEwMTAxMzE4MzU5MzggODAuNTA5NDkwOTY2Nzk2ODggODcuMDAwMzA1MTc1NzgxMjUgNTQuMDAwMDA3NjI5Mzk0NTMgODcuMDAwMzA1MTc1NzgxMjUgWiIgc3Ryb2tlPSJub25lIiBmaWxsPSIjMzMzIi8+JiN4YTsgICAgICA8L2c+JiN4YTsgICAgICA8ZyBpZD0iVW5pb24iIHRyYW5zZm9ybT0idHJhbnNsYXRlKDYwMiA0NzQpIiBmaWxsPSJub25lIj4mI3hhOyAgICAgICAgPHBhdGggZD0iTTM2LjM1LDgzLjY1MWE0OC4wMDgsNDguMDA4LDAsMSwxLDYyLjMtNjIuMyw0OC4wMDgsNDguMDA4LDAsMSwxLTYyLjMsNjIuM1oiIHN0cm9rZT0ibm9uZSIvPiYjeGE7ICAgICAgICA8cGF0aCBkPSJNIDgxLjAwMDAwNzYyOTM5NDUzIDEwNi4wMDAzMjA0MzQ1NzAzIEMgMTAzLjA1NTkzODcyMDcwMzEgMTA2LjAwMDMyMDQzNDU3MDMgMTIwLjk5OTcyNTM0MTc5NjkgODguMDU2MTA2NTY3MzgyODEgMTIwLjk5OTcyNTM0MTc5NjkgNjUuOTk5NzAyNDUzNjEzMjggQyAxMjAuOTk5NzI1MzQxNzk2OSA0OS40NzM2NTE4ODU5ODYzMyAxMTEuMDcxODE1NDkwNzIyNyAzNC44NjcyNDg1MzUxNTYyNSA5NS43MDcxNzYyMDg0OTYwOSAyOC43ODgxNzU1ODI4ODU3NCBMIDkyLjQ4NTk4NDgwMjI0NjA5IDI3LjUxMzcwMDQ4NTIyOTQ5IEwgOTEuMjExNTA5NzA0NTg5ODQgMjQuMjkyNTA5MDc4OTc5NDkgQyA4NS4xMzI0Mzg2NTk2Njc5NyA4LjkyNzkxNDYxOTQ0NTgwMSA3MC41MjYwNTQzODIzMjQyMiAtMC45OTk5OTAyODQ0NDI5MDE2IDU0LjAwMDAwNzYyOTM5NDUzIC0wLjk5OTk5MDI4NDQ0MjkwMTYgQyAzMS45NDQwNzg0NDU0MzQ1NyAtMC45OTk5OTAyODQ0NDI5MDE2IDE0LjAwMDI5MzczMTY4OTQ1IDE2Ljk0Mzc5NjE1NzgzNjkxIDE0LjAwMDI5MzczMTY4OTQ1IDM4Ljk5OTY5ODYzODkxNjAyIEMgMTQuMDAwMjkzNzMxNjg5NDUgNTUuNTI2MjQ4OTMxODg0NzcgMjMuOTI4MjcwMzM5OTY1ODIgNzAuMTMzMDEwODY0MjU3ODEgMzkuMjkzMDA2ODk2OTcyNjYgNzYuMjEyMTczNDYxOTE0MDYgTCA0Mi41MTQyNDQwNzk1ODk4NCA3Ny40ODY2NzkwNzcxNDg0NCBMIDQzLjc4ODY5NjI4OTA2MjUgODAuNzA3OTE2MjU5NzY1NjIgQyA0OS44Njc2MDMzMDIwMDE5NSA5Ni4wNzI0NjM5ODkyNTc4MSA2NC40NzM5MTUxMDAwOTc2NiAxMDYuMDAwMzIwNDM0NTcwMyA4MS4wMDAwMDc2MjkzOTQ1MyAxMDYuMDAwMzIwNDM0NTcwMyBNIDgxLjAwMDAwNzYyOTM5NDUzIDExNC4wMDAzMjA0MzQ1NzAzIEMgNjAuNzIzMDc5NjgxMzk2NDggMTE0LjAwMDMyMDQzNDU3MDMgNDMuMzgyNjI1NTc5ODMzOTggMTAxLjQyNjc1MDE4MzEwNTUgMzYuMzQ5NzY5NTkyMjg1MTYgODMuNjUxMDg0ODk5OTAyMzQgQyAxOC41NzQ0ODM4NzE0NTk5NiA3Ni42MTgxNzkzMjEyODkwNiA2LjAwMDI5MzI1NDg1MjI5NSA1OS4yNzczMjA4NjE4MTY0MSA2LjAwMDI5MzI1NDg1MjI5NSAzOC45OTk2OTg2Mzg5MTYwMiBDIDYuMDAwMjkzMjU0ODUyMjk1IDEyLjQ5MDIwMDA0MjcyNDYxIDI3LjQ5MDUwNzEyNTg1NDQ5IC04Ljk5OTk5MDQ2MzI1NjgzNiA1NC4wMDAwMDc2MjkzOTQ1MyAtOC45OTk5OTA0NjMyNTY4MzYgQyA3NC4yNzY5MzkzOTIwODk4NCAtOC45OTk5OTA0NjMyNTY4MzYgOTEuNjE3NTUzNzEwOTM3NSAzLjU3NDAwOTY1NjkwNjEyOCA5OC42NTA0MTM1MTMxODM1OSAyMS4zNDkyNzE3NzQyOTE5OSBDIDExNi40MjU2OTczMjY2NjAyIDI4LjM4MjEyOTY2OTE4OTQ1IDEyOC45OTk3MjUzNDE3OTY5IDQ1LjcyMjc3MDY5MDkxNzk3IDEyOC45OTk3MjUzNDE3OTY5IDY1Ljk5OTcwMjQ1MzYxMzI4IEMgMTI4Ljk5OTcyNTM0MTc5NjkgOTIuNTEwMTAxMzE4MzU5MzggMTA3LjUwOTUwNjIyNTU4NTkgMTE0LjAwMDMyMDQzNDU3MDMgODEuMDAwMDA3NjI5Mzk0NTMgMTE0LjAwMDMyMDQzNDU3MDMgWiIgc3Ryb2tlPSJub25lIiBmaWxsPSIjMzMzIi8+JiN4YTsgICAgICA8L2c+JiN4YTsgICAgPC9nPiYjeGE7ICAgIDxwYXRoIGlkPSJCb3VuZGVyIiBkPSJNMCwwSDEzOVYxMzlIMFoiIHRyYW5zZm9ybT0idHJhbnNsYXRlKDM4OSAxNDQpIiBmaWxsPSJub25lIi8+JiN4YTsgIDwvZz4mI3hhOzwvc3ZnPg==;labelBackgroundColor=none;labelBorderColor=none;sketch=0;fontColor=#000000;strokeColor=default;fillColor=#333333;gradientColor=none;" parent="dJE50GDlpLbIHQwaJ28i-0" vertex="1">
          <mxGeometry x="45" y="25" width="80" height="80" as="geometry" />
        </mxCell>
        <mxCell id="dJE50GDlpLbIHQwaJ28i-3" value="Window Loaded" style="text;html=1;strokeColor=none;fillColor=none;align=center;verticalAlign=middle;whiteSpace=wrap;rounded=0;labelBackgroundColor=none;labelBorderColor=none;sketch=0;fontColor=#000000;" parent="dJE50GDlpLbIHQwaJ28i-0" vertex="1">
          <mxGeometry width="170" height="30" as="geometry" />
        </mxCell>
        <mxCell id="SqjfMTXkafPcdIOfwF1Z-0" value="" style="group" parent="c5S3hnpAkCvErc0u6A9T-1" vertex="1" connectable="0">
          <mxGeometry x="220" y="414" width="180" height="130" as="geometry" />
        </mxCell>
        <mxCell id="SqjfMTXkafPcdIOfwF1Z-1" value="&lt;b&gt;Type:&lt;/b&gt; Custom HTML" style="text;html=1;strokeColor=none;fillColor=none;align=center;verticalAlign=middle;whiteSpace=wrap;rounded=0;sketch=1;" parent="SqjfMTXkafPcdIOfwF1Z-0" vertex="1">
          <mxGeometry y="100" width="180" height="30" as="geometry" />
        </mxCell>
        <mxCell id="SqjfMTXkafPcdIOfwF1Z-2" value="Login - Event Listener" style="text;html=1;strokeColor=none;fillColor=none;align=center;verticalAlign=middle;whiteSpace=wrap;rounded=0;sketch=1;" parent="SqjfMTXkafPcdIOfwF1Z-0" vertex="1">
          <mxGeometry x="10" width="160" height="30" as="geometry" />
        </mxCell>
        <mxCell id="SqjfMTXkafPcdIOfwF1Z-3" value="" style="shape=image;verticalLabelPosition=bottom;verticalAlign=top;imageAspect=0;aspect=fixed;image=data:image/svg+xml,PHN2ZyB4bWxucz0iaHR0cDovL3d3dy53My5vcmcvMjAwMC9zdmciIHdpZHRoPSIxMzkiIGhlaWdodD0iMTM5IiB2aWV3Qm94PSIwIDAgMTM5IDEzOSI+JiN4YTsgIDxnIGlkPSJHVE0iIHRyYW5zZm9ybT0idHJhbnNsYXRlKC02NzIgLTgwKSI+JiN4YTsgICAgPGcgaWQ9IkdUTS0yIiBkYXRhLW5hbWU9IkdUTSIgdHJhbnNmb3JtPSJ0cmFuc2xhdGUoNjc5Ljk5NyA4OC4wMDIpIj4mI3hhOyAgICAgIDxwYXRoIGlkPSJQYXRoXzEiIGRhdGEtbmFtZT0iUGF0aCAxIiBkPSJNNzIuMTMsMTE4LjIyLDUwLjgsOTYuODZsNDUuODMtNDYuMywyMS43MiwyMS43Mkw3Mi4xMywxMTguMjJaIiB0cmFuc2Zvcm09InRyYW5zbGF0ZSgwLjEzMyAwLjEwOCkiIGZpbGw9IiM4YWI0ZjgiLz4mI3hhOyAgICAgIDxwYXRoIGlkPSJQYXRoXzIiIGRhdGEtbmFtZT0iUGF0aCAyIiBkPSJNNzIuMjksMjYuMjUxLDUwLjU2LDQuNSw0LjUsNTAuNmExNS4zNzUsMTUuMzc1LDAsMCwwLDAsMjEuNzMxaDBsNDYuMDYsNDYuMSwyMS4zMS0yMS40MkwzNy4wNyw2MS41WiIgdHJhbnNmb3JtPSJ0cmFuc2xhdGUoMCAwKSIgZmlsbD0iIzQyODVmNCIvPiYjeGE7ICAgICAgPHBhdGggaWQ9IlBhdGhfMyIgZGF0YS1uYW1lPSJQYXRoIDMiIGQ9Ik0xMTguMzUsNTAuNTYsNzIuMjksNC41QTE1LjM2MiwxNS4zNjIsMCwxLDAsNTAuNTYsMjYuMjJMOTYuNjUsNzIuMjhhMTUuMzU5LDE1LjM1OSwwLDEsMCwyMS43MjEtMjEuNzIxWiIgdHJhbnNmb3JtPSJ0cmFuc2xhdGUoMC4xMzMpIiBmaWxsPSIjOGFiNGY4Ii8+JiN4YTsgICAgICA8cGF0aCBpZD0iUGF0aF80IiBkYXRhLW5hbWU9IlBhdGggNCIgZD0iTTc2LjQ4LDEwNy42NmExNS4yMywxNS4yMywwLDEsMC0xNS4yMiwxNS4yMywxNS4yMywxNS4yMywwLDAsMCwxNS4yMi0xNS4yM1oiIHRyYW5zZm9ybT0idHJhbnNsYXRlKDAuMDY2IDAuMTA4KSIgZmlsbD0iIzI0NmZkYiIvPiYjeGE7ICAgIDwvZz4mI3hhOyAgICA8cmVjdCBpZD0iQm91bmRlciIgd2lkdGg9IjEzOSIgaGVpZ2h0PSIxMzkiIHRyYW5zZm9ybT0idHJhbnNsYXRlKDY3MiA4MCkiIGZpbGw9Im5vbmUiLz4mI3hhOyAgPC9nPiYjeGE7PC9zdmc+;labelBackgroundColor=none;labelBorderColor=none;sketch=0;fontColor=#000000;strokeColor=default;fillColor=#333333;gradientColor=none;" parent="SqjfMTXkafPcdIOfwF1Z-0" vertex="1">
          <mxGeometry x="50" y="25" width="80" height="80" as="geometry" />
        </mxCell>
        <mxCell id="ozFDDIygUohYtpbml-cq-0" value="" style="group" parent="c5S3hnpAkCvErc0u6A9T-1" vertex="1" connectable="0">
          <mxGeometry x="439" y="440" width="130" height="104.5" as="geometry" />
        </mxCell>
        <mxCell id="ozFDDIygUohYtpbml-cq-1" value="Google Analytics" style="text;html=1;strokeColor=none;fillColor=none;align=center;verticalAlign=middle;whiteSpace=wrap;rounded=0;labelBackgroundColor=none;labelBorderColor=none;sketch=0;fontColor=#000000;" parent="ozFDDIygUohYtpbml-cq-0" vertex="1">
          <mxGeometry y="74.5" width="130" height="30" as="geometry" />
        </mxCell>
        <mxCell id="ozFDDIygUohYtpbml-cq-2" value="" style="shape=image;verticalLabelPosition=bottom;verticalAlign=top;imageAspect=0;aspect=fixed;image=data:image/svg+xml,PHN2ZyB4bWxucz0iaHR0cDovL3d3dy53My5vcmcvMjAwMC9zdmciIHdpZHRoPSIxMjQuODQ5OTc1NTg1OTM3NSIgaGVpZ2h0PSIxMzkiIHZpZXdCb3g9IjAgMCAxMjQuODQ5OTc1NTg1OTM3NSAxMzkiPiYjeGE7ICA8ZyBpZD0iR0EiIHRyYW5zZm9ybT0idHJhbnNsYXRlKC0xMDQ4IC0yMDgpIj4mI3hhOyAgICA8cmVjdCBpZD0iQm91bmRlciIgd2lkdGg9IjEyNC44NSIgaGVpZ2h0PSIxMzkiIHRyYW5zZm9ybT0idHJhbnNsYXRlKDEwNDggMjA4KSIgZmlsbD0ibm9uZSIvPiYjeGE7ICAgIDxnIGlkPSJHQS0yIiBkYXRhLW5hbWU9IkdBIiB0cmFuc2Zvcm09InRyYW5zbGF0ZSg0NDYgMTU3KSI+JiN4YTsgICAgICA8Y2lyY2xlIGlkPSJFbGxpcHNlXzUiIGRhdGEtbmFtZT0iRWxsaXBzZSA1IiBjeD0iMTQiIGN5PSIxNCIgcj0iMTQiIHRyYW5zZm9ybT0idHJhbnNsYXRlKDYxMCAxNTIpIiBmaWxsPSIjZTM3NDAwIi8+JiN4YTsgICAgICA8cmVjdCBpZD0iUmVjdGFuZ2xlXzIiIGRhdGEtbmFtZT0iUmVjdGFuZ2xlIDIiIHdpZHRoPSIyOCIgaGVpZ2h0PSI2OS44NTYiIHJ4PSIxNCIgdHJhbnNmb3JtPSJ0cmFuc2xhdGUoNjUwLjU0NSAxMTAuMzE2KSIgZmlsbD0iI2UzNzQwMCIvPiYjeGE7ICAgICAgPHJlY3QgaWQ9IlJlY3RhbmdsZV8zIiBkYXRhLW5hbWU9IlJlY3RhbmdsZSAzIiB3aWR0aD0iMjgiIGhlaWdodD0iMTIxLjIzNyIgcng9IjE0IiB0cmFuc2Zvcm09InRyYW5zbGF0ZSg2OTAuOTQ4IDU5KSIgZmlsbD0iI2Y5YWIwMCIvPiYjeGE7ICAgIDwvZz4mI3hhOyAgPC9nPiYjeGE7PC9zdmc+;labelBackgroundColor=none;labelBorderColor=none;sketch=0;fontColor=#000000;strokeColor=default;fillColor=#333333;gradientColor=none;" parent="ozFDDIygUohYtpbml-cq-0" vertex="1">
          <mxGeometry x="29.02999999999986" width="71.94" height="80" as="geometry" />
        </mxCell>
      </root>
    </mxGraphModel>
  </diagram>
  <diagram name="Single Workflow" id="c7488fd3-1785-93aa-aadb-54a6760d102a">
    <mxGraphModel dx="1038" dy="575" grid="1" gridSize="10" guides="1" tooltips="1" connect="1" arrows="1" fold="1" page="1" pageScale="1" pageWidth="1100" pageHeight="850" background="none" math="0" shadow="0">
      <root>
        <mxCell id="0" />
        <mxCell id="1" style="" parent="0" />
        <mxCell id="S8HlAuciJZGZXTFng0mN-30" style="edgeStyle=orthogonalEdgeStyle;rounded=0;orthogonalLoop=1;jettySize=auto;html=1;exitX=1;exitY=0.5;exitDx=0;exitDy=0;entryX=0;entryY=0.5;entryDx=0;entryDy=0;fontColor=#0000CC;" parent="1" source="S8HlAuciJZGZXTFng0mN-79" target="S8HlAuciJZGZXTFng0mN-20" edge="1">
          <mxGeometry relative="1" as="geometry">
            <mxPoint x="140" y="365" as="sourcePoint" />
          </mxGeometry>
        </mxCell>
        <mxCell id="S8HlAuciJZGZXTFng0mN-31" value="Push a Data Layer" style="edgeLabel;html=1;align=center;verticalAlign=middle;resizable=0;points=[];fontColor=#000000;" parent="S8HlAuciJZGZXTFng0mN-30" vertex="1" connectable="0">
          <mxGeometry x="-0.1575" y="-1" relative="1" as="geometry">
            <mxPoint y="-1" as="offset" />
          </mxGeometry>
        </mxCell>
        <mxCell id="S8HlAuciJZGZXTFng0mN-34" style="edgeStyle=orthogonalEdgeStyle;rounded=0;orthogonalLoop=1;jettySize=auto;html=1;exitX=0.5;exitY=0;exitDx=0;exitDy=0;fontColor=#000000;" parent="1" source="S8HlAuciJZGZXTFng0mN-20" target="S8HlAuciJZGZXTFng0mN-55" edge="1">
          <mxGeometry relative="1" as="geometry">
            <mxPoint x="400" y="170" as="targetPoint" />
          </mxGeometry>
        </mxCell>
        <mxCell id="S8HlAuciJZGZXTFng0mN-35" value="Trigger" style="edgeLabel;html=1;align=center;verticalAlign=middle;resizable=0;points=[];fontColor=#000000;" parent="S8HlAuciJZGZXTFng0mN-34" vertex="1" connectable="0">
          <mxGeometry x="0.1594" y="2" relative="1" as="geometry">
            <mxPoint x="2" y="5" as="offset" />
          </mxGeometry>
        </mxCell>
        <mxCell id="S8HlAuciJZGZXTFng0mN-20" value="&lt;b&gt;Data Layer&lt;/b&gt;" style="whiteSpace=wrap;html=1;align=center;sketch=0;strokeColor=#d6b656;fillColor=#fff2cc;labelBackgroundColor=none;" parent="1" vertex="1">
          <mxGeometry x="350" y="360" width="100" height="40" as="geometry" />
        </mxCell>
        <mxCell id="S8HlAuciJZGZXTFng0mN-45" style="edgeStyle=orthogonalEdgeStyle;rounded=0;orthogonalLoop=1;jettySize=auto;html=1;entryX=0;entryY=0.5;entryDx=0;entryDy=0;fontColor=#000000;exitX=1;exitY=0.5;exitDx=0;exitDy=0;" parent="1" source="S8HlAuciJZGZXTFng0mN-92" target="S8HlAuciJZGZXTFng0mN-99" edge="1">
          <mxGeometry relative="1" as="geometry">
            <mxPoint x="441.80999999999995" y="97.75" as="sourcePoint" />
            <mxPoint x="605" y="97.75" as="targetPoint" />
          </mxGeometry>
        </mxCell>
        <mxCell id="S8HlAuciJZGZXTFng0mN-61" style="edgeStyle=orthogonalEdgeStyle;rounded=0;orthogonalLoop=1;jettySize=auto;html=1;exitX=1;exitY=0.5;exitDx=0;exitDy=0;fontColor=#000000;entryX=0;entryY=0.5;entryDx=0;entryDy=0;" parent="1" source="S8HlAuciJZGZXTFng0mN-99" target="S8HlAuciJZGZXTFng0mN-101" edge="1">
          <mxGeometry relative="1" as="geometry">
            <mxPoint x="833.3699999999999" y="97.75" as="targetPoint" />
            <mxPoint x="675" y="97.75" as="sourcePoint" />
          </mxGeometry>
        </mxCell>
        <mxCell id="S8HlAuciJZGZXTFng0mN-71" style="edgeStyle=orthogonalEdgeStyle;rounded=0;orthogonalLoop=1;jettySize=auto;html=1;exitX=0.5;exitY=1;exitDx=0;exitDy=0;entryX=0.5;entryY=0;entryDx=0;entryDy=0;fontColor=#000000;" parent="1" source="S8HlAuciJZGZXTFng0mN-68" target="S8HlAuciJZGZXTFng0mN-14" edge="1">
          <mxGeometry relative="1" as="geometry" />
        </mxCell>
        <mxCell id="S8HlAuciJZGZXTFng0mN-72" value="Trigger" style="edgeLabel;html=1;align=center;verticalAlign=middle;resizable=0;points=[];fontColor=#000000;" parent="S8HlAuciJZGZXTFng0mN-71" vertex="1" connectable="0">
          <mxGeometry x="-0.1209" y="2" relative="1" as="geometry">
            <mxPoint as="offset" />
          </mxGeometry>
        </mxCell>
        <mxCell id="S8HlAuciJZGZXTFng0mN-74" style="edgeStyle=orthogonalEdgeStyle;rounded=0;orthogonalLoop=1;jettySize=auto;html=1;exitX=0.5;exitY=1;exitDx=0;exitDy=0;entryX=1;entryY=0.5;entryDx=0;entryDy=0;fontColor=#000000;" parent="1" source="S8HlAuciJZGZXTFng0mN-40" target="S8HlAuciJZGZXTFng0mN-20" edge="1">
          <mxGeometry relative="1" as="geometry" />
        </mxCell>
        <mxCell id="S8HlAuciJZGZXTFng0mN-75" value="Get value" style="edgeLabel;html=1;align=center;verticalAlign=middle;resizable=0;points=[];fontColor=#000000;" parent="S8HlAuciJZGZXTFng0mN-74" vertex="1" connectable="0">
          <mxGeometry x="0.4267" y="3" relative="1" as="geometry">
            <mxPoint y="-3" as="offset" />
          </mxGeometry>
        </mxCell>
        <mxCell id="S8HlAuciJZGZXTFng0mN-95" value="" style="group" parent="1" vertex="1" connectable="0">
          <mxGeometry x="15" y="20" width="170" height="129" as="geometry" />
        </mxCell>
        <mxCell id="S8HlAuciJZGZXTFng0mN-68" value="&lt;b&gt;Type:&lt;/b&gt; Window Loaded" style="text;html=1;strokeColor=none;fillColor=none;align=center;verticalAlign=middle;whiteSpace=wrap;rounded=0;labelBackgroundColor=none;labelBorderColor=none;sketch=0;fontColor=#000000;" parent="S8HlAuciJZGZXTFng0mN-95" vertex="1">
          <mxGeometry x="15" y="100" width="140" height="30" as="geometry" />
        </mxCell>
        <mxCell id="S8HlAuciJZGZXTFng0mN-91" value="" style="shape=image;verticalLabelPosition=bottom;verticalAlign=top;imageAspect=0;aspect=fixed;image=data:image/svg+xml,PHN2ZyB4bWxucz0iaHR0cDovL3d3dy53My5vcmcvMjAwMC9zdmciIHdpZHRoPSIxMzkiIGhlaWdodD0iMTM5IiB2aWV3Qm94PSIwIDAgMTM5IDEzOSI+JiN4YTsgIDxnIGlkPSJUcmlnZ2VyIiB0cmFuc2Zvcm09InRyYW5zbGF0ZSgtMzg5IC0xNDQpIj4mI3hhOyAgICA8ZyBpZD0iVHJpZ2dlci0yIiBkYXRhLW5hbWU9IlRyaWdnZXIiIHRyYW5zZm9ybT0idHJhbnNsYXRlKC0yMTEgLTMxMykiPiYjeGE7ICAgICAgPGcgaWQ9IkludGVyc2VjdGlvbiIgdHJhbnNmb3JtPSJ0cmFuc2xhdGUoNjAyIDQ3MykiIGZpbGw9IiMzMzMiPiYjeGE7ICAgICAgICA8cGF0aCBkPSJNIDUzLjk5OTk5NjE4NTMwMjczIDgzLjAwMDMwNTE3NTc4MTI1IEMgNDkuMDAwMjI4ODgxODM1OTQgODMuMDAwMzA1MTc1NzgxMjUgNDQuMTE3MjEwMzg4MTgzNTkgODIuMTc0MTE4MDQxOTkyMTkgMzkuNDU4NzQwMjM0Mzc1IDgwLjU0MjEyMTg4NzIwNzAzIEMgMzcuODI2NjE4MTk0NTgwMDggNzUuODgzMjA5MjI4NTE1NjIgMzcuMDAwMzA4OTkwNDc4NTIgNzAuOTk5Njg3MTk0ODI0MjIgMzcuMDAwMzA4OTkwNDc4NTIgNjUuOTk5NzAyNDUzNjEzMjggQyAzNy4wMDAzMDg5OTA0Nzg1MiA2MC4wNTgwMTM5MTYwMTU2MiAzOC4xNjMwOTM1NjY4OTQ1MyA1NC4yOTYxODgzNTQ0OTIxOSA0MC40NTYzODI3NTE0NjQ4NCA0OC44NzQyNjM3NjM0Mjc3MyBDIDQyLjY3MjI4MzE3MjYwNzQyIDQzLjYzNTI4ODIzODUyNTM5IDQ1Ljg0NTM3MTI0NjMzNzg5IDM4LjkyOTM2MzI1MDczMjQyIDQ5Ljg4NzUxOTgzNjQyNTc4IDM0Ljg4NzIxNDY2MDY0NDUzIEMgNTMuOTI5NjY4NDI2NTEzNjcgMzAuODQ1MDY0MTYzMjA4MDEgNTguNjM1NTgxOTcwMjE0ODQgMjcuNjcxOTc3OTk2ODI2MTcgNjMuODc0NTU3NDk1MTE3MTkgMjUuNDU2MDc3NTc1NjgzNTkgQyA2OS4yOTY0ODU5MDA4Nzg5MSAyMy4xNjI3OTAyOTg0NjE5MSA3NS4wNTgzMTkwOTE3OTY4OCAyMi4wMDAwMDE5MDczNDg2MyA4MC45OTk5OTIzNzA2MDU0NyAyMi4wMDAwMDE5MDczNDg2MyBDIDg1Ljk5OTc3ODc0NzU1ODU5IDIyLjAwMDAwMTkwNzM0ODYzIDkwLjg4MjkwNDA1MjczNDM4IDIyLjgyNjIyNzE4ODExMDM1IDk1LjU0MTQ1MDUwMDQ4ODI4IDI0LjQ1ODI1MDA0NTc3NjM3IEMgOTcuMTczNDg0ODAyMjQ2MDkgMjkuMTE2ODA5ODQ0OTcwNyA5Ny45OTk3MTAwODMwMDc4MSAzMy45OTk5Mjc1MjA3NTE5NSA5Ny45OTk3MTAwODMwMDc4MSAzOC45OTk3MDI0NTM2MTMyOCBDIDk3Ljk5OTcxMDA4MzAwNzgxIDQ0Ljk0MTYxNjA1ODM0OTYxIDk2LjgzNjkwNjQzMzEwNTQ3IDUwLjcwMzYyODU0MDAzOTA2IDk0LjU0MzYxNzI0ODUzNTE2IDU2LjEyNTY5MDQ2MDIwNTA4IEMgOTIuMzI3NzIwNjQyMDg5ODQgNjEuMzY0Nzc2NjExMzI4MTIgODkuMTU0NjE3MzA5NTcwMzEgNjYuMDcwNzkzMTUxODU1NDcgODUuMTEyNDcyNTM0MTc5NjkgNzAuMTEyOTkxMzMzMDA3ODEgQyA4MS4wNzAzMzUzODgxODM1OSA3NC4xNTUxNzQyNTUzNzEwOSA3Ni4zNjQ0MTA0MDAzOTA2MiA3Ny4zMjgzMDA0NzYwNzQyMiA3MS4xMjU0MzQ4NzU0ODgyOCA3OS41NDQyMTIzNDEzMDg1OSBDIDY1LjcwMzUyMTcyODUxNTYyIDgxLjgzNzUwMTUyNTg3ODkxIDU5Ljk0MTY4MDkwODIwMzEyIDgzLjAwMDMwNTE3NTc4MTI1IDUzLjk5OTk5NjE4NTMwMjczIDgzLjAwMDMwNTE3NTc4MTI1IFoiIHN0cm9rZT0ibm9uZSIvPiYjeGE7ICAgICAgICA8cGF0aCBkPSJNIDU0LjAwMDAwNzYyOTM5NDUzIDc5LjAwMDMwNTE3NTc4MTI1IEMgNzYuMDU1OTIzNDYxOTE0MDYgNzkuMDAwMzA1MTc1NzgxMjUgOTMuOTk5NzEwMDgzMDA3ODEgNjEuMDU2MTAyNzUyNjg1NTUgOTMuOTk5NzEwMDgzMDA3ODEgMzguOTk5NzAyNDUzNjEzMjggQyA5My45OTk3MTAwODMwMDc4MSAzNS4xMTIxMjkyMTE0MjU3OCA5My40NTA4OTcyMTY3OTY4OCAzMS4zMDMxMzg3MzI5MTAxNiA5Mi4zNjUwNTg4OTg5MjU3OCAyNy42MzQ2NjA3MjA4MjUyIEMgODguNjk2NTcxMzUwMDk3NjYgMjYuNTQ4ODIwNDk1NjA1NDcgODQuODg3NTczMjQyMTg3NSAyNi4wMDAwMDE5MDczNDg2MyA4MS4wMDAwMDc2MjkzOTQ1MyAyNi4wMDAwMDE5MDczNDg2MyBDIDU4Ljk0NDA5MTc5Njg3NSAyNi4wMDAwMDE5MDczNDg2MyA0MS4wMDAzMDg5OTA0Nzg1MiA0My45NDM3ODY2MjEwOTM3NSA0MS4wMDAzMDg5OTA0Nzg1MiA2NS45OTk3MDI0NTM2MTMyOCBDIDQxLjAwMDMwODk5MDQ3ODUyIDY5Ljg4Nzc0MTA4ODg2NzE5IDQxLjU0OTA1NzAwNjgzNTk0IDczLjY5NjYzMjM4NTI1MzkxIDQyLjYzNTE0MzI4MDAyOTMgNzcuMzY1NzA3Mzk3NDYwOTQgQyA0Ni4zMDM1NjU5NzkwMDM5MSA3OC40NTE1MjI4MjcxNDg0NCA1MC4xMTI0NDU4MzEyOTg4MyA3OS4wMDAzMDUxNzU3ODEyNSA1NC4wMDAwMDc2MjkzOTQ1MyA3OS4wMDAzMDUxNzU3ODEyNSBNIDU0LjAwMDAwNzYyOTM5NDUzIDg3LjAwMDMwNTE3NTc4MTI1IEMgNDcuNzY3NDI1NTM3MTA5MzggODcuMDAwMzA1MTc1NzgxMjUgNDEuODEzNDA3ODk3OTQ5MjIgODUuODEyODA1MTc1NzgxMjUgMzYuMzQ5NzU4MTQ4MTkzMzYgODMuNjUxMDg0ODk5OTAyMzQgQyAzNC4xODgwNTY5NDU4MDA3OCA3OC4xODczMTY4OTQ1MzEyNSAzMy4wMDAzMDg5OTA0Nzg1MiA3Mi4yMzI0ODI5MTAxNTYyNSAzMy4wMDAzMDg5OTA0Nzg1MiA2NS45OTk3MDI0NTM2MTMyOCBDIDMzLjAwMDMwODk5MDQ3ODUyIDM5LjQ5MDIwMzg1NzQyMTg4IDU0LjQ5MDUwOTAzMzIwMzEyIDE4LjAwMDAwMTkwNzM0ODYzIDgxLjAwMDAwNzYyOTM5NDUzIDE4LjAwMDAwMTkwNzM0ODYzIEMgODcuMjMyNTg5NzIxNjc5NjkgMTguMDAwMDAxOTA3MzQ4NjMgOTMuMTg2Nzc1MjA3NTE5NTMgMTkuMTg3NTY4NjY0NTUwNzggOTguNjUwNDIxMTQyNTc4MTIgMjEuMzQ5Mjg1MTI1NzMyNDIgQyAxMDAuODEyMTQxNDE4NDU3IDI2LjgxMjkxOTYxNjY5OTIyIDEwMS45OTk3MTAwODMwMDc4IDMyLjc2NzEyMDM2MTMyODEyIDEwMS45OTk3MTAwODMwMDc4IDM4Ljk5OTcwMjQ1MzYxMzI4IEMgMTAxLjk5OTcxMDA4MzAwNzggNjUuNTEwMTAxMzE4MzU5MzggODAuNTA5NDkwOTY2Nzk2ODggODcuMDAwMzA1MTc1NzgxMjUgNTQuMDAwMDA3NjI5Mzk0NTMgODcuMDAwMzA1MTc1NzgxMjUgWiIgc3Ryb2tlPSJub25lIiBmaWxsPSIjMzMzIi8+JiN4YTsgICAgICA8L2c+JiN4YTsgICAgICA8ZyBpZD0iVW5pb24iIHRyYW5zZm9ybT0idHJhbnNsYXRlKDYwMiA0NzQpIiBmaWxsPSJub25lIj4mI3hhOyAgICAgICAgPHBhdGggZD0iTTM2LjM1LDgzLjY1MWE0OC4wMDgsNDguMDA4LDAsMSwxLDYyLjMtNjIuMyw0OC4wMDgsNDguMDA4LDAsMSwxLTYyLjMsNjIuM1oiIHN0cm9rZT0ibm9uZSIvPiYjeGE7ICAgICAgICA8cGF0aCBkPSJNIDgxLjAwMDAwNzYyOTM5NDUzIDEwNi4wMDAzMjA0MzQ1NzAzIEMgMTAzLjA1NTkzODcyMDcwMzEgMTA2LjAwMDMyMDQzNDU3MDMgMTIwLjk5OTcyNTM0MTc5NjkgODguMDU2MTA2NTY3MzgyODEgMTIwLjk5OTcyNTM0MTc5NjkgNjUuOTk5NzAyNDUzNjEzMjggQyAxMjAuOTk5NzI1MzQxNzk2OSA0OS40NzM2NTE4ODU5ODYzMyAxMTEuMDcxODE1NDkwNzIyNyAzNC44NjcyNDg1MzUxNTYyNSA5NS43MDcxNzYyMDg0OTYwOSAyOC43ODgxNzU1ODI4ODU3NCBMIDkyLjQ4NTk4NDgwMjI0NjA5IDI3LjUxMzcwMDQ4NTIyOTQ5IEwgOTEuMjExNTA5NzA0NTg5ODQgMjQuMjkyNTA5MDc4OTc5NDkgQyA4NS4xMzI0Mzg2NTk2Njc5NyA4LjkyNzkxNDYxOTQ0NTgwMSA3MC41MjYwNTQzODIzMjQyMiAtMC45OTk5OTAyODQ0NDI5MDE2IDU0LjAwMDAwNzYyOTM5NDUzIC0wLjk5OTk5MDI4NDQ0MjkwMTYgQyAzMS45NDQwNzg0NDU0MzQ1NyAtMC45OTk5OTAyODQ0NDI5MDE2IDE0LjAwMDI5MzczMTY4OTQ1IDE2Ljk0Mzc5NjE1NzgzNjkxIDE0LjAwMDI5MzczMTY4OTQ1IDM4Ljk5OTY5ODYzODkxNjAyIEMgMTQuMDAwMjkzNzMxNjg5NDUgNTUuNTI2MjQ4OTMxODg0NzcgMjMuOTI4MjcwMzM5OTY1ODIgNzAuMTMzMDEwODY0MjU3ODEgMzkuMjkzMDA2ODk2OTcyNjYgNzYuMjEyMTczNDYxOTE0MDYgTCA0Mi41MTQyNDQwNzk1ODk4NCA3Ny40ODY2NzkwNzcxNDg0NCBMIDQzLjc4ODY5NjI4OTA2MjUgODAuNzA3OTE2MjU5NzY1NjIgQyA0OS44Njc2MDMzMDIwMDE5NSA5Ni4wNzI0NjM5ODkyNTc4MSA2NC40NzM5MTUxMDAwOTc2NiAxMDYuMDAwMzIwNDM0NTcwMyA4MS4wMDAwMDc2MjkzOTQ1MyAxMDYuMDAwMzIwNDM0NTcwMyBNIDgxLjAwMDAwNzYyOTM5NDUzIDExNC4wMDAzMjA0MzQ1NzAzIEMgNjAuNzIzMDc5NjgxMzk2NDggMTE0LjAwMDMyMDQzNDU3MDMgNDMuMzgyNjI1NTc5ODMzOTggMTAxLjQyNjc1MDE4MzEwNTUgMzYuMzQ5NzY5NTkyMjg1MTYgODMuNjUxMDg0ODk5OTAyMzQgQyAxOC41NzQ0ODM4NzE0NTk5NiA3Ni42MTgxNzkzMjEyODkwNiA2LjAwMDI5MzI1NDg1MjI5NSA1OS4yNzczMjA4NjE4MTY0MSA2LjAwMDI5MzI1NDg1MjI5NSAzOC45OTk2OTg2Mzg5MTYwMiBDIDYuMDAwMjkzMjU0ODUyMjk1IDEyLjQ5MDIwMDA0MjcyNDYxIDI3LjQ5MDUwNzEyNTg1NDQ5IC04Ljk5OTk5MDQ2MzI1NjgzNiA1NC4wMDAwMDc2MjkzOTQ1MyAtOC45OTk5OTA0NjMyNTY4MzYgQyA3NC4yNzY5MzkzOTIwODk4NCAtOC45OTk5OTA0NjMyNTY4MzYgOTEuNjE3NTUzNzEwOTM3NSAzLjU3NDAwOTY1NjkwNjEyOCA5OC42NTA0MTM1MTMxODM1OSAyMS4zNDkyNzE3NzQyOTE5OSBDIDExNi40MjU2OTczMjY2NjAyIDI4LjM4MjEyOTY2OTE4OTQ1IDEyOC45OTk3MjUzNDE3OTY5IDQ1LjcyMjc3MDY5MDkxNzk3IDEyOC45OTk3MjUzNDE3OTY5IDY1Ljk5OTcwMjQ1MzYxMzI4IEMgMTI4Ljk5OTcyNTM0MTc5NjkgOTIuNTEwMTAxMzE4MzU5MzggMTA3LjUwOTUwNjIyNTU4NTkgMTE0LjAwMDMyMDQzNDU3MDMgODEuMDAwMDA3NjI5Mzk0NTMgMTE0LjAwMDMyMDQzNDU3MDMgWiIgc3Ryb2tlPSJub25lIiBmaWxsPSIjMzMzIi8+JiN4YTsgICAgICA8L2c+JiN4YTsgICAgPC9nPiYjeGE7ICAgIDxwYXRoIGlkPSJCb3VuZGVyIiBkPSJNMCwwSDEzOVYxMzlIMFoiIHRyYW5zZm9ybT0idHJhbnNsYXRlKDM4OSAxNDQpIiBmaWxsPSJub25lIi8+JiN4YTsgIDwvZz4mI3hhOzwvc3ZnPg==;labelBackgroundColor=none;labelBorderColor=none;sketch=0;fontColor=#000000;strokeColor=default;fillColor=#333333;gradientColor=none;" parent="S8HlAuciJZGZXTFng0mN-95" vertex="1">
          <mxGeometry x="45" y="25" width="80" height="80" as="geometry" />
        </mxCell>
        <mxCell id="S8HlAuciJZGZXTFng0mN-93" value="Window Loaded" style="text;html=1;strokeColor=none;fillColor=none;align=center;verticalAlign=middle;whiteSpace=wrap;rounded=0;labelBackgroundColor=none;labelBorderColor=none;sketch=0;fontColor=#000000;" parent="S8HlAuciJZGZXTFng0mN-95" vertex="1">
          <mxGeometry width="170" height="30" as="geometry" />
        </mxCell>
        <mxCell id="S8HlAuciJZGZXTFng0mN-96" value="" style="group" parent="1" vertex="1" connectable="0">
          <mxGeometry x="315" y="20" width="170" height="129" as="geometry" />
        </mxCell>
        <mxCell id="S8HlAuciJZGZXTFng0mN-76" value="Broadcast Event - Trigger" style="text;html=1;strokeColor=none;fillColor=none;align=center;verticalAlign=middle;whiteSpace=wrap;rounded=0;labelBackgroundColor=none;labelBorderColor=none;sketch=0;fontColor=#000000;" parent="S8HlAuciJZGZXTFng0mN-96" vertex="1">
          <mxGeometry width="170" height="30" as="geometry" />
        </mxCell>
        <mxCell id="S8HlAuciJZGZXTFng0mN-55" value="&lt;b&gt;Type:&lt;/b&gt; Custom Event" style="text;html=1;strokeColor=none;fillColor=none;align=center;verticalAlign=middle;whiteSpace=wrap;rounded=0;labelBackgroundColor=none;labelBorderColor=none;sketch=0;fontColor=#000000;" parent="S8HlAuciJZGZXTFng0mN-96" vertex="1">
          <mxGeometry x="25" y="100" width="120" height="30" as="geometry" />
        </mxCell>
        <mxCell id="S8HlAuciJZGZXTFng0mN-92" value="" style="shape=image;verticalLabelPosition=bottom;verticalAlign=top;imageAspect=0;aspect=fixed;image=data:image/svg+xml,PHN2ZyB4bWxucz0iaHR0cDovL3d3dy53My5vcmcvMjAwMC9zdmciIHdpZHRoPSIxMzkiIGhlaWdodD0iMTM5IiB2aWV3Qm94PSIwIDAgMTM5IDEzOSI+JiN4YTsgIDxnIGlkPSJUcmlnZ2VyIiB0cmFuc2Zvcm09InRyYW5zbGF0ZSgtMzg5IC0xNDQpIj4mI3hhOyAgICA8ZyBpZD0iVHJpZ2dlci0yIiBkYXRhLW5hbWU9IlRyaWdnZXIiIHRyYW5zZm9ybT0idHJhbnNsYXRlKC0yMTEgLTMxMykiPiYjeGE7ICAgICAgPGcgaWQ9IkludGVyc2VjdGlvbiIgdHJhbnNmb3JtPSJ0cmFuc2xhdGUoNjAyIDQ3MykiIGZpbGw9IiMzMzMiPiYjeGE7ICAgICAgICA8cGF0aCBkPSJNIDUzLjk5OTk5NjE4NTMwMjczIDgzLjAwMDMwNTE3NTc4MTI1IEMgNDkuMDAwMjI4ODgxODM1OTQgODMuMDAwMzA1MTc1NzgxMjUgNDQuMTE3MjEwMzg4MTgzNTkgODIuMTc0MTE4MDQxOTkyMTkgMzkuNDU4NzQwMjM0Mzc1IDgwLjU0MjEyMTg4NzIwNzAzIEMgMzcuODI2NjE4MTk0NTgwMDggNzUuODgzMjA5MjI4NTE1NjIgMzcuMDAwMzA4OTkwNDc4NTIgNzAuOTk5Njg3MTk0ODI0MjIgMzcuMDAwMzA4OTkwNDc4NTIgNjUuOTk5NzAyNDUzNjEzMjggQyAzNy4wMDAzMDg5OTA0Nzg1MiA2MC4wNTgwMTM5MTYwMTU2MiAzOC4xNjMwOTM1NjY4OTQ1MyA1NC4yOTYxODgzNTQ0OTIxOSA0MC40NTYzODI3NTE0NjQ4NCA0OC44NzQyNjM3NjM0Mjc3MyBDIDQyLjY3MjI4MzE3MjYwNzQyIDQzLjYzNTI4ODIzODUyNTM5IDQ1Ljg0NTM3MTI0NjMzNzg5IDM4LjkyOTM2MzI1MDczMjQyIDQ5Ljg4NzUxOTgzNjQyNTc4IDM0Ljg4NzIxNDY2MDY0NDUzIEMgNTMuOTI5NjY4NDI2NTEzNjcgMzAuODQ1MDY0MTYzMjA4MDEgNTguNjM1NTgxOTcwMjE0ODQgMjcuNjcxOTc3OTk2ODI2MTcgNjMuODc0NTU3NDk1MTE3MTkgMjUuNDU2MDc3NTc1NjgzNTkgQyA2OS4yOTY0ODU5MDA4Nzg5MSAyMy4xNjI3OTAyOTg0NjE5MSA3NS4wNTgzMTkwOTE3OTY4OCAyMi4wMDAwMDE5MDczNDg2MyA4MC45OTk5OTIzNzA2MDU0NyAyMi4wMDAwMDE5MDczNDg2MyBDIDg1Ljk5OTc3ODc0NzU1ODU5IDIyLjAwMDAwMTkwNzM0ODYzIDkwLjg4MjkwNDA1MjczNDM4IDIyLjgyNjIyNzE4ODExMDM1IDk1LjU0MTQ1MDUwMDQ4ODI4IDI0LjQ1ODI1MDA0NTc3NjM3IEMgOTcuMTczNDg0ODAyMjQ2MDkgMjkuMTE2ODA5ODQ0OTcwNyA5Ny45OTk3MTAwODMwMDc4MSAzMy45OTk5Mjc1MjA3NTE5NSA5Ny45OTk3MTAwODMwMDc4MSAzOC45OTk3MDI0NTM2MTMyOCBDIDk3Ljk5OTcxMDA4MzAwNzgxIDQ0Ljk0MTYxNjA1ODM0OTYxIDk2LjgzNjkwNjQzMzEwNTQ3IDUwLjcwMzYyODU0MDAzOTA2IDk0LjU0MzYxNzI0ODUzNTE2IDU2LjEyNTY5MDQ2MDIwNTA4IEMgOTIuMzI3NzIwNjQyMDg5ODQgNjEuMzY0Nzc2NjExMzI4MTIgODkuMTU0NjE3MzA5NTcwMzEgNjYuMDcwNzkzMTUxODU1NDcgODUuMTEyNDcyNTM0MTc5NjkgNzAuMTEyOTkxMzMzMDA3ODEgQyA4MS4wNzAzMzUzODgxODM1OSA3NC4xNTUxNzQyNTUzNzEwOSA3Ni4zNjQ0MTA0MDAzOTA2MiA3Ny4zMjgzMDA0NzYwNzQyMiA3MS4xMjU0MzQ4NzU0ODgyOCA3OS41NDQyMTIzNDEzMDg1OSBDIDY1LjcwMzUyMTcyODUxNTYyIDgxLjgzNzUwMTUyNTg3ODkxIDU5Ljk0MTY4MDkwODIwMzEyIDgzLjAwMDMwNTE3NTc4MTI1IDUzLjk5OTk5NjE4NTMwMjczIDgzLjAwMDMwNTE3NTc4MTI1IFoiIHN0cm9rZT0ibm9uZSIvPiYjeGE7ICAgICAgICA8cGF0aCBkPSJNIDU0LjAwMDAwNzYyOTM5NDUzIDc5LjAwMDMwNTE3NTc4MTI1IEMgNzYuMDU1OTIzNDYxOTE0MDYgNzkuMDAwMzA1MTc1NzgxMjUgOTMuOTk5NzEwMDgzMDA3ODEgNjEuMDU2MTAyNzUyNjg1NTUgOTMuOTk5NzEwMDgzMDA3ODEgMzguOTk5NzAyNDUzNjEzMjggQyA5My45OTk3MTAwODMwMDc4MSAzNS4xMTIxMjkyMTE0MjU3OCA5My40NTA4OTcyMTY3OTY4OCAzMS4zMDMxMzg3MzI5MTAxNiA5Mi4zNjUwNTg4OTg5MjU3OCAyNy42MzQ2NjA3MjA4MjUyIEMgODguNjk2NTcxMzUwMDk3NjYgMjYuNTQ4ODIwNDk1NjA1NDcgODQuODg3NTczMjQyMTg3NSAyNi4wMDAwMDE5MDczNDg2MyA4MS4wMDAwMDc2MjkzOTQ1MyAyNi4wMDAwMDE5MDczNDg2MyBDIDU4Ljk0NDA5MTc5Njg3NSAyNi4wMDAwMDE5MDczNDg2MyA0MS4wMDAzMDg5OTA0Nzg1MiA0My45NDM3ODY2MjEwOTM3NSA0MS4wMDAzMDg5OTA0Nzg1MiA2NS45OTk3MDI0NTM2MTMyOCBDIDQxLjAwMDMwODk5MDQ3ODUyIDY5Ljg4Nzc0MTA4ODg2NzE5IDQxLjU0OTA1NzAwNjgzNTk0IDczLjY5NjYzMjM4NTI1MzkxIDQyLjYzNTE0MzI4MDAyOTMgNzcuMzY1NzA3Mzk3NDYwOTQgQyA0Ni4zMDM1NjU5NzkwMDM5MSA3OC40NTE1MjI4MjcxNDg0NCA1MC4xMTI0NDU4MzEyOTg4MyA3OS4wMDAzMDUxNzU3ODEyNSA1NC4wMDAwMDc2MjkzOTQ1MyA3OS4wMDAzMDUxNzU3ODEyNSBNIDU0LjAwMDAwNzYyOTM5NDUzIDg3LjAwMDMwNTE3NTc4MTI1IEMgNDcuNzY3NDI1NTM3MTA5MzggODcuMDAwMzA1MTc1NzgxMjUgNDEuODEzNDA3ODk3OTQ5MjIgODUuODEyODA1MTc1NzgxMjUgMzYuMzQ5NzU4MTQ4MTkzMzYgODMuNjUxMDg0ODk5OTAyMzQgQyAzNC4xODgwNTY5NDU4MDA3OCA3OC4xODczMTY4OTQ1MzEyNSAzMy4wMDAzMDg5OTA0Nzg1MiA3Mi4yMzI0ODI5MTAxNTYyNSAzMy4wMDAzMDg5OTA0Nzg1MiA2NS45OTk3MDI0NTM2MTMyOCBDIDMzLjAwMDMwODk5MDQ3ODUyIDM5LjQ5MDIwMzg1NzQyMTg4IDU0LjQ5MDUwOTAzMzIwMzEyIDE4LjAwMDAwMTkwNzM0ODYzIDgxLjAwMDAwNzYyOTM5NDUzIDE4LjAwMDAwMTkwNzM0ODYzIEMgODcuMjMyNTg5NzIxNjc5NjkgMTguMDAwMDAxOTA3MzQ4NjMgOTMuMTg2Nzc1MjA3NTE5NTMgMTkuMTg3NTY4NjY0NTUwNzggOTguNjUwNDIxMTQyNTc4MTIgMjEuMzQ5Mjg1MTI1NzMyNDIgQyAxMDAuODEyMTQxNDE4NDU3IDI2LjgxMjkxOTYxNjY5OTIyIDEwMS45OTk3MTAwODMwMDc4IDMyLjc2NzEyMDM2MTMyODEyIDEwMS45OTk3MTAwODMwMDc4IDM4Ljk5OTcwMjQ1MzYxMzI4IEMgMTAxLjk5OTcxMDA4MzAwNzggNjUuNTEwMTAxMzE4MzU5MzggODAuNTA5NDkwOTY2Nzk2ODggODcuMDAwMzA1MTc1NzgxMjUgNTQuMDAwMDA3NjI5Mzk0NTMgODcuMDAwMzA1MTc1NzgxMjUgWiIgc3Ryb2tlPSJub25lIiBmaWxsPSIjMzMzIi8+JiN4YTsgICAgICA8L2c+JiN4YTsgICAgICA8ZyBpZD0iVW5pb24iIHRyYW5zZm9ybT0idHJhbnNsYXRlKDYwMiA0NzQpIiBmaWxsPSJub25lIj4mI3hhOyAgICAgICAgPHBhdGggZD0iTTM2LjM1LDgzLjY1MWE0OC4wMDgsNDguMDA4LDAsMSwxLDYyLjMtNjIuMyw0OC4wMDgsNDguMDA4LDAsMSwxLTYyLjMsNjIuM1oiIHN0cm9rZT0ibm9uZSIvPiYjeGE7ICAgICAgICA8cGF0aCBkPSJNIDgxLjAwMDAwNzYyOTM5NDUzIDEwNi4wMDAzMjA0MzQ1NzAzIEMgMTAzLjA1NTkzODcyMDcwMzEgMTA2LjAwMDMyMDQzNDU3MDMgMTIwLjk5OTcyNTM0MTc5NjkgODguMDU2MTA2NTY3MzgyODEgMTIwLjk5OTcyNTM0MTc5NjkgNjUuOTk5NzAyNDUzNjEzMjggQyAxMjAuOTk5NzI1MzQxNzk2OSA0OS40NzM2NTE4ODU5ODYzMyAxMTEuMDcxODE1NDkwNzIyNyAzNC44NjcyNDg1MzUxNTYyNSA5NS43MDcxNzYyMDg0OTYwOSAyOC43ODgxNzU1ODI4ODU3NCBMIDkyLjQ4NTk4NDgwMjI0NjA5IDI3LjUxMzcwMDQ4NTIyOTQ5IEwgOTEuMjExNTA5NzA0NTg5ODQgMjQuMjkyNTA5MDc4OTc5NDkgQyA4NS4xMzI0Mzg2NTk2Njc5NyA4LjkyNzkxNDYxOTQ0NTgwMSA3MC41MjYwNTQzODIzMjQyMiAtMC45OTk5OTAyODQ0NDI5MDE2IDU0LjAwMDAwNzYyOTM5NDUzIC0wLjk5OTk5MDI4NDQ0MjkwMTYgQyAzMS45NDQwNzg0NDU0MzQ1NyAtMC45OTk5OTAyODQ0NDI5MDE2IDE0LjAwMDI5MzczMTY4OTQ1IDE2Ljk0Mzc5NjE1NzgzNjkxIDE0LjAwMDI5MzczMTY4OTQ1IDM4Ljk5OTY5ODYzODkxNjAyIEMgMTQuMDAwMjkzNzMxNjg5NDUgNTUuNTI2MjQ4OTMxODg0NzcgMjMuOTI4MjcwMzM5OTY1ODIgNzAuMTMzMDEwODY0MjU3ODEgMzkuMjkzMDA2ODk2OTcyNjYgNzYuMjEyMTczNDYxOTE0MDYgTCA0Mi41MTQyNDQwNzk1ODk4NCA3Ny40ODY2NzkwNzcxNDg0NCBMIDQzLjc4ODY5NjI4OTA2MjUgODAuNzA3OTE2MjU5NzY1NjIgQyA0OS44Njc2MDMzMDIwMDE5NSA5Ni4wNzI0NjM5ODkyNTc4MSA2NC40NzM5MTUxMDAwOTc2NiAxMDYuMDAwMzIwNDM0NTcwMyA4MS4wMDAwMDc2MjkzOTQ1MyAxMDYuMDAwMzIwNDM0NTcwMyBNIDgxLjAwMDAwNzYyOTM5NDUzIDExNC4wMDAzMjA0MzQ1NzAzIEMgNjAuNzIzMDc5NjgxMzk2NDggMTE0LjAwMDMyMDQzNDU3MDMgNDMuMzgyNjI1NTc5ODMzOTggMTAxLjQyNjc1MDE4MzEwNTUgMzYuMzQ5NzY5NTkyMjg1MTYgODMuNjUxMDg0ODk5OTAyMzQgQyAxOC41NzQ0ODM4NzE0NTk5NiA3Ni42MTgxNzkzMjEyODkwNiA2LjAwMDI5MzI1NDg1MjI5NSA1OS4yNzczMjA4NjE4MTY0MSA2LjAwMDI5MzI1NDg1MjI5NSAzOC45OTk2OTg2Mzg5MTYwMiBDIDYuMDAwMjkzMjU0ODUyMjk1IDEyLjQ5MDIwMDA0MjcyNDYxIDI3LjQ5MDUwNzEyNTg1NDQ5IC04Ljk5OTk5MDQ2MzI1NjgzNiA1NC4wMDAwMDc2MjkzOTQ1MyAtOC45OTk5OTA0NjMyNTY4MzYgQyA3NC4yNzY5MzkzOTIwODk4NCAtOC45OTk5OTA0NjMyNTY4MzYgOTEuNjE3NTUzNzEwOTM3NSAzLjU3NDAwOTY1NjkwNjEyOCA5OC42NTA0MTM1MTMxODM1OSAyMS4zNDkyNzE3NzQyOTE5OSBDIDExNi40MjU2OTczMjY2NjAyIDI4LjM4MjEyOTY2OTE4OTQ1IDEyOC45OTk3MjUzNDE3OTY5IDQ1LjcyMjc3MDY5MDkxNzk3IDEyOC45OTk3MjUzNDE3OTY5IDY1Ljk5OTcwMjQ1MzYxMzI4IEMgMTI4Ljk5OTcyNTM0MTc5NjkgOTIuNTEwMTAxMzE4MzU5MzggMTA3LjUwOTUwNjIyNTU4NTkgMTE0LjAwMDMyMDQzNDU3MDMgODEuMDAwMDA3NjI5Mzk0NTMgMTE0LjAwMDMyMDQzNDU3MDMgWiIgc3Ryb2tlPSJub25lIiBmaWxsPSIjMzMzIi8+JiN4YTsgICAgICA8L2c+JiN4YTsgICAgPC9nPiYjeGE7ICAgIDxwYXRoIGlkPSJCb3VuZGVyIiBkPSJNMCwwSDEzOVYxMzlIMFoiIHRyYW5zZm9ybT0idHJhbnNsYXRlKDM4OSAxNDQpIiBmaWxsPSJub25lIi8+JiN4YTsgIDwvZz4mI3hhOzwvc3ZnPg==;labelBackgroundColor=none;labelBorderColor=none;sketch=0;fontColor=#000000;strokeColor=default;fillColor=#333333;gradientColor=none;" parent="S8HlAuciJZGZXTFng0mN-96" vertex="1">
          <mxGeometry x="45" y="25" width="80" height="80" as="geometry" />
        </mxCell>
        <mxCell id="S8HlAuciJZGZXTFng0mN-100" value="" style="group" parent="1" vertex="1" connectable="0">
          <mxGeometry x="540" y="20" width="180" height="136.25" as="geometry" />
        </mxCell>
        <mxCell id="w2PYYgAUTI1ovOgPapJx-2" value="" style="group" parent="S8HlAuciJZGZXTFng0mN-100" vertex="1" connectable="0">
          <mxGeometry width="180" height="136.25" as="geometry" />
        </mxCell>
        <mxCell id="S8HlAuciJZGZXTFng0mN-40" value="&lt;b&gt;Type:&lt;/b&gt; Google Analytics: Universal Analytics" style="text;html=1;strokeColor=none;fillColor=none;align=center;verticalAlign=middle;whiteSpace=wrap;rounded=0;sketch=1;" parent="w2PYYgAUTI1ovOgPapJx-2" vertex="1">
          <mxGeometry y="108.25" width="180" height="30" as="geometry" />
        </mxCell>
        <mxCell id="S8HlAuciJZGZXTFng0mN-41" value="Broadcast Event" style="text;html=1;strokeColor=none;fillColor=none;align=center;verticalAlign=middle;whiteSpace=wrap;rounded=0;sketch=1;" parent="w2PYYgAUTI1ovOgPapJx-2" vertex="1">
          <mxGeometry x="10" width="160" height="30" as="geometry" />
        </mxCell>
        <mxCell id="S8HlAuciJZGZXTFng0mN-99" value="" style="shape=image;verticalLabelPosition=bottom;verticalAlign=top;imageAspect=0;aspect=fixed;image=data:image/svg+xml,PHN2ZyB4bWxucz0iaHR0cDovL3d3dy53My5vcmcvMjAwMC9zdmciIHdpZHRoPSIxMzkiIGhlaWdodD0iMTM5IiB2aWV3Qm94PSIwIDAgMTM5IDEzOSI+JiN4YTsgIDxnIGlkPSJHVE0iIHRyYW5zZm9ybT0idHJhbnNsYXRlKC02NzIgLTgwKSI+JiN4YTsgICAgPGcgaWQ9IkdUTS0yIiBkYXRhLW5hbWU9IkdUTSIgdHJhbnNmb3JtPSJ0cmFuc2xhdGUoNjc5Ljk5NyA4OC4wMDIpIj4mI3hhOyAgICAgIDxwYXRoIGlkPSJQYXRoXzEiIGRhdGEtbmFtZT0iUGF0aCAxIiBkPSJNNzIuMTMsMTE4LjIyLDUwLjgsOTYuODZsNDUuODMtNDYuMywyMS43MiwyMS43Mkw3Mi4xMywxMTguMjJaIiB0cmFuc2Zvcm09InRyYW5zbGF0ZSgwLjEzMyAwLjEwOCkiIGZpbGw9IiM4YWI0ZjgiLz4mI3hhOyAgICAgIDxwYXRoIGlkPSJQYXRoXzIiIGRhdGEtbmFtZT0iUGF0aCAyIiBkPSJNNzIuMjksMjYuMjUxLDUwLjU2LDQuNSw0LjUsNTAuNmExNS4zNzUsMTUuMzc1LDAsMCwwLDAsMjEuNzMxaDBsNDYuMDYsNDYuMSwyMS4zMS0yMS40MkwzNy4wNyw2MS41WiIgdHJhbnNmb3JtPSJ0cmFuc2xhdGUoMCAwKSIgZmlsbD0iIzQyODVmNCIvPiYjeGE7ICAgICAgPHBhdGggaWQ9IlBhdGhfMyIgZGF0YS1uYW1lPSJQYXRoIDMiIGQ9Ik0xMTguMzUsNTAuNTYsNzIuMjksNC41QTE1LjM2MiwxNS4zNjIsMCwxLDAsNTAuNTYsMjYuMjJMOTYuNjUsNzIuMjhhMTUuMzU5LDE1LjM1OSwwLDEsMCwyMS43MjEtMjEuNzIxWiIgdHJhbnNmb3JtPSJ0cmFuc2xhdGUoMC4xMzMpIiBmaWxsPSIjOGFiNGY4Ii8+JiN4YTsgICAgICA8cGF0aCBpZD0iUGF0aF80IiBkYXRhLW5hbWU9IlBhdGggNCIgZD0iTTc2LjQ4LDEwNy42NmExNS4yMywxNS4yMywwLDEsMC0xNS4yMiwxNS4yMywxNS4yMywxNS4yMywwLDAsMCwxNS4yMi0xNS4yM1oiIHRyYW5zZm9ybT0idHJhbnNsYXRlKDAuMDY2IDAuMTA4KSIgZmlsbD0iIzI0NmZkYiIvPiYjeGE7ICAgIDwvZz4mI3hhOyAgICA8cmVjdCBpZD0iQm91bmRlciIgd2lkdGg9IjEzOSIgaGVpZ2h0PSIxMzkiIHRyYW5zZm9ybT0idHJhbnNsYXRlKDY3MiA4MCkiIGZpbGw9Im5vbmUiLz4mI3hhOyAgPC9nPiYjeGE7PC9zdmc+;labelBackgroundColor=none;labelBorderColor=none;sketch=0;fontColor=#000000;strokeColor=default;fillColor=#333333;gradientColor=none;" parent="w2PYYgAUTI1ovOgPapJx-2" vertex="1">
          <mxGeometry x="50" y="25" width="80" height="80" as="geometry" />
        </mxCell>
        <mxCell id="S8HlAuciJZGZXTFng0mN-102" value="" style="group" parent="1" vertex="1" connectable="0">
          <mxGeometry x="800" y="44.5" width="130" height="104.5" as="geometry" />
        </mxCell>
        <mxCell id="S8HlAuciJZGZXTFng0mN-59" value="Google Analytics" style="text;html=1;strokeColor=none;fillColor=none;align=center;verticalAlign=middle;whiteSpace=wrap;rounded=0;labelBackgroundColor=none;labelBorderColor=none;sketch=0;fontColor=#000000;" parent="S8HlAuciJZGZXTFng0mN-102" vertex="1">
          <mxGeometry y="74.5" width="130" height="30" as="geometry" />
        </mxCell>
        <mxCell id="S8HlAuciJZGZXTFng0mN-101" value="" style="shape=image;verticalLabelPosition=bottom;verticalAlign=top;imageAspect=0;aspect=fixed;image=data:image/svg+xml,PHN2ZyB4bWxucz0iaHR0cDovL3d3dy53My5vcmcvMjAwMC9zdmciIHdpZHRoPSIxMjQuODQ5OTc1NTg1OTM3NSIgaGVpZ2h0PSIxMzkiIHZpZXdCb3g9IjAgMCAxMjQuODQ5OTc1NTg1OTM3NSAxMzkiPiYjeGE7ICA8ZyBpZD0iR0EiIHRyYW5zZm9ybT0idHJhbnNsYXRlKC0xMDQ4IC0yMDgpIj4mI3hhOyAgICA8cmVjdCBpZD0iQm91bmRlciIgd2lkdGg9IjEyNC44NSIgaGVpZ2h0PSIxMzkiIHRyYW5zZm9ybT0idHJhbnNsYXRlKDEwNDggMjA4KSIgZmlsbD0ibm9uZSIvPiYjeGE7ICAgIDxnIGlkPSJHQS0yIiBkYXRhLW5hbWU9IkdBIiB0cmFuc2Zvcm09InRyYW5zbGF0ZSg0NDYgMTU3KSI+JiN4YTsgICAgICA8Y2lyY2xlIGlkPSJFbGxpcHNlXzUiIGRhdGEtbmFtZT0iRWxsaXBzZSA1IiBjeD0iMTQiIGN5PSIxNCIgcj0iMTQiIHRyYW5zZm9ybT0idHJhbnNsYXRlKDYxMCAxNTIpIiBmaWxsPSIjZTM3NDAwIi8+JiN4YTsgICAgICA8cmVjdCBpZD0iUmVjdGFuZ2xlXzIiIGRhdGEtbmFtZT0iUmVjdGFuZ2xlIDIiIHdpZHRoPSIyOCIgaGVpZ2h0PSI2OS44NTYiIHJ4PSIxNCIgdHJhbnNmb3JtPSJ0cmFuc2xhdGUoNjUwLjU0NSAxMTAuMzE2KSIgZmlsbD0iI2UzNzQwMCIvPiYjeGE7ICAgICAgPHJlY3QgaWQ9IlJlY3RhbmdsZV8zIiBkYXRhLW5hbWU9IlJlY3RhbmdsZSAzIiB3aWR0aD0iMjgiIGhlaWdodD0iMTIxLjIzNyIgcng9IjE0IiB0cmFuc2Zvcm09InRyYW5zbGF0ZSg2OTAuOTQ4IDU5KSIgZmlsbD0iI2Y5YWIwMCIvPiYjeGE7ICAgIDwvZz4mI3hhOyAgPC9nPiYjeGE7PC9zdmc+;labelBackgroundColor=none;labelBorderColor=none;sketch=0;fontColor=#000000;strokeColor=default;fillColor=#333333;gradientColor=none;" parent="S8HlAuciJZGZXTFng0mN-102" vertex="1">
          <mxGeometry x="29.02999999999986" width="71.94" height="80" as="geometry" />
        </mxCell>
        <mxCell id="w2PYYgAUTI1ovOgPapJx-1" value="" style="group" parent="1" vertex="1" connectable="0">
          <mxGeometry x="10" y="315" width="180" height="130" as="geometry" />
        </mxCell>
        <mxCell id="S8HlAuciJZGZXTFng0mN-13" value="&lt;b&gt;Type:&lt;/b&gt; Custom HTML" style="text;html=1;strokeColor=none;fillColor=none;align=center;verticalAlign=middle;whiteSpace=wrap;rounded=0;sketch=1;" parent="w2PYYgAUTI1ovOgPapJx-1" vertex="1">
          <mxGeometry y="100" width="180" height="30" as="geometry" />
        </mxCell>
        <mxCell id="S8HlAuciJZGZXTFng0mN-14" value="Login - Event Listener" style="text;html=1;strokeColor=none;fillColor=none;align=center;verticalAlign=middle;whiteSpace=wrap;rounded=0;sketch=1;" parent="w2PYYgAUTI1ovOgPapJx-1" vertex="1">
          <mxGeometry x="10" width="160" height="30" as="geometry" />
        </mxCell>
        <mxCell id="S8HlAuciJZGZXTFng0mN-79" value="" style="shape=image;verticalLabelPosition=bottom;verticalAlign=top;imageAspect=0;aspect=fixed;image=data:image/svg+xml,PHN2ZyB4bWxucz0iaHR0cDovL3d3dy53My5vcmcvMjAwMC9zdmciIHdpZHRoPSIxMzkiIGhlaWdodD0iMTM5IiB2aWV3Qm94PSIwIDAgMTM5IDEzOSI+JiN4YTsgIDxnIGlkPSJHVE0iIHRyYW5zZm9ybT0idHJhbnNsYXRlKC02NzIgLTgwKSI+JiN4YTsgICAgPGcgaWQ9IkdUTS0yIiBkYXRhLW5hbWU9IkdUTSIgdHJhbnNmb3JtPSJ0cmFuc2xhdGUoNjc5Ljk5NyA4OC4wMDIpIj4mI3hhOyAgICAgIDxwYXRoIGlkPSJQYXRoXzEiIGRhdGEtbmFtZT0iUGF0aCAxIiBkPSJNNzIuMTMsMTE4LjIyLDUwLjgsOTYuODZsNDUuODMtNDYuMywyMS43MiwyMS43Mkw3Mi4xMywxMTguMjJaIiB0cmFuc2Zvcm09InRyYW5zbGF0ZSgwLjEzMyAwLjEwOCkiIGZpbGw9IiM4YWI0ZjgiLz4mI3hhOyAgICAgIDxwYXRoIGlkPSJQYXRoXzIiIGRhdGEtbmFtZT0iUGF0aCAyIiBkPSJNNzIuMjksMjYuMjUxLDUwLjU2LDQuNSw0LjUsNTAuNmExNS4zNzUsMTUuMzc1LDAsMCwwLDAsMjEuNzMxaDBsNDYuMDYsNDYuMSwyMS4zMS0yMS40MkwzNy4wNyw2MS41WiIgdHJhbnNmb3JtPSJ0cmFuc2xhdGUoMCAwKSIgZmlsbD0iIzQyODVmNCIvPiYjeGE7ICAgICAgPHBhdGggaWQ9IlBhdGhfMyIgZGF0YS1uYW1lPSJQYXRoIDMiIGQ9Ik0xMTguMzUsNTAuNTYsNzIuMjksNC41QTE1LjM2MiwxNS4zNjIsMCwxLDAsNTAuNTYsMjYuMjJMOTYuNjUsNzIuMjhhMTUuMzU5LDE1LjM1OSwwLDEsMCwyMS43MjEtMjEuNzIxWiIgdHJhbnNmb3JtPSJ0cmFuc2xhdGUoMC4xMzMpIiBmaWxsPSIjOGFiNGY4Ii8+JiN4YTsgICAgICA8cGF0aCBpZD0iUGF0aF80IiBkYXRhLW5hbWU9IlBhdGggNCIgZD0iTTc2LjQ4LDEwNy42NmExNS4yMywxNS4yMywwLDEsMC0xNS4yMiwxNS4yMywxNS4yMywxNS4yMywwLDAsMCwxNS4yMi0xNS4yM1oiIHRyYW5zZm9ybT0idHJhbnNsYXRlKDAuMDY2IDAuMTA4KSIgZmlsbD0iIzI0NmZkYiIvPiYjeGE7ICAgIDwvZz4mI3hhOyAgICA8cmVjdCBpZD0iQm91bmRlciIgd2lkdGg9IjEzOSIgaGVpZ2h0PSIxMzkiIHRyYW5zZm9ybT0idHJhbnNsYXRlKDY3MiA4MCkiIGZpbGw9Im5vbmUiLz4mI3hhOyAgPC9nPiYjeGE7PC9zdmc+;labelBackgroundColor=none;labelBorderColor=none;sketch=0;fontColor=#000000;strokeColor=default;fillColor=#333333;gradientColor=none;" parent="w2PYYgAUTI1ovOgPapJx-1" vertex="1">
          <mxGeometry x="50" y="25" width="80" height="80" as="geometry" />
        </mxCell>
      </root>
    </mxGraphModel>
  </diagram>
  <diagram name="Vision Workflow" id="tqs_OeNNMNmu2mPZfXNh">
    <mxGraphModel dx="1038" dy="1450" grid="1" gridSize="10" guides="1" tooltips="1" connect="1" arrows="1" fold="1" page="1" pageScale="1" pageWidth="1100" pageHeight="850" background="none" math="0" shadow="0">
      <root>
        <mxCell id="J3jELrB6J5LH7U_Fg43S-0" />
        <mxCell id="J3jELrB6J5LH7U_Fg43S-1" style="" parent="J3jELrB6J5LH7U_Fg43S-0" />
        <mxCell id="J3jELrB6J5LH7U_Fg43S-4" style="edgeStyle=orthogonalEdgeStyle;rounded=0;orthogonalLoop=1;jettySize=auto;html=1;exitX=0.096;exitY=0.96;exitDx=0;exitDy=0;fontColor=#000000;entryX=0.5;entryY=0;entryDx=0;entryDy=0;exitPerimeter=0;" parent="J3jELrB6J5LH7U_Fg43S-1" source="J3jELrB6J5LH7U_Fg43S-6" target="J3jELrB6J5LH7U_Fg43S-18" edge="1">
          <mxGeometry relative="1" as="geometry">
            <mxPoint x="550" y="266" as="targetPoint" />
          </mxGeometry>
        </mxCell>
        <mxCell id="J3jELrB6J5LH7U_Fg43S-5" value="Trigger" style="edgeLabel;html=1;align=center;verticalAlign=middle;resizable=0;points=[];fontColor=#000000;" parent="J3jELrB6J5LH7U_Fg43S-4" vertex="1" connectable="0">
          <mxGeometry x="0.1594" y="2" relative="1" as="geometry">
            <mxPoint x="-1" y="-25" as="offset" />
          </mxGeometry>
        </mxCell>
        <mxCell id="J3jELrB6J5LH7U_Fg43S-6" value="&lt;b&gt;Data Layer&lt;/b&gt;" style="whiteSpace=wrap;html=1;align=center;sketch=0;strokeColor=#d6b656;fillColor=#fff2cc;labelBackgroundColor=none;" parent="J3jELrB6J5LH7U_Fg43S-1" vertex="1">
          <mxGeometry x="400" y="-132" width="300" height="40" as="geometry" />
        </mxCell>
        <mxCell id="J3jELrB6J5LH7U_Fg43S-7" style="edgeStyle=orthogonalEdgeStyle;rounded=0;orthogonalLoop=1;jettySize=auto;html=1;entryX=0;entryY=0.5;entryDx=0;entryDy=0;fontColor=#000000;exitX=1;exitY=0.5;exitDx=0;exitDy=0;" parent="J3jELrB6J5LH7U_Fg43S-1" source="J3jELrB6J5LH7U_Fg43S-20" target="J3jELrB6J5LH7U_Fg43S-25" edge="1">
          <mxGeometry relative="1" as="geometry">
            <mxPoint x="591.81" y="170.75" as="sourcePoint" />
            <mxPoint x="755" y="170.75" as="targetPoint" />
          </mxGeometry>
        </mxCell>
        <mxCell id="J3jELrB6J5LH7U_Fg43S-8" style="edgeStyle=orthogonalEdgeStyle;rounded=0;orthogonalLoop=1;jettySize=auto;html=1;exitX=1;exitY=0.5;exitDx=0;exitDy=0;fontColor=#000000;entryX=0;entryY=0.5;entryDx=0;entryDy=0;" parent="J3jELrB6J5LH7U_Fg43S-1" source="J3jELrB6J5LH7U_Fg43S-25" target="J3jELrB6J5LH7U_Fg43S-28" edge="1">
          <mxGeometry relative="1" as="geometry">
            <mxPoint x="983.3699999999999" y="170.75" as="targetPoint" />
            <mxPoint x="825" y="170.75" as="sourcePoint" />
          </mxGeometry>
        </mxCell>
        <mxCell id="J3jELrB6J5LH7U_Fg43S-11" style="edgeStyle=orthogonalEdgeStyle;rounded=0;orthogonalLoop=1;jettySize=auto;html=1;exitX=0.5;exitY=0;exitDx=0;exitDy=0;entryX=0.901;entryY=1;entryDx=0;entryDy=0;fontColor=#000000;entryPerimeter=0;" parent="J3jELrB6J5LH7U_Fg43S-1" source="J3jELrB6J5LH7U_Fg43S-24" target="J3jELrB6J5LH7U_Fg43S-6" edge="1">
          <mxGeometry relative="1" as="geometry" />
        </mxCell>
        <mxCell id="J3jELrB6J5LH7U_Fg43S-12" value="Get value" style="edgeLabel;html=1;align=center;verticalAlign=middle;resizable=0;points=[];fontColor=#000000;" parent="J3jELrB6J5LH7U_Fg43S-11" vertex="1" connectable="0">
          <mxGeometry x="0.4267" y="3" relative="1" as="geometry">
            <mxPoint y="32" as="offset" />
          </mxGeometry>
        </mxCell>
        <mxCell id="J3jELrB6J5LH7U_Fg43S-17" value="" style="group" parent="J3jELrB6J5LH7U_Fg43S-1" vertex="1" connectable="0">
          <mxGeometry x="344" y="83" width="170" height="129" as="geometry" />
        </mxCell>
        <mxCell id="J3jELrB6J5LH7U_Fg43S-18" value="Broadcast Event - Trigger" style="text;html=1;strokeColor=none;fillColor=none;align=center;verticalAlign=middle;whiteSpace=wrap;rounded=0;labelBackgroundColor=none;labelBorderColor=none;sketch=0;fontColor=#000000;" parent="J3jELrB6J5LH7U_Fg43S-17" vertex="1">
          <mxGeometry width="170" height="30" as="geometry" />
        </mxCell>
        <mxCell id="J3jELrB6J5LH7U_Fg43S-19" value="&lt;b&gt;Type:&lt;/b&gt; Custom Event" style="text;html=1;strokeColor=none;fillColor=none;align=center;verticalAlign=middle;whiteSpace=wrap;rounded=0;labelBackgroundColor=none;labelBorderColor=none;sketch=0;fontColor=#000000;" parent="J3jELrB6J5LH7U_Fg43S-17" vertex="1">
          <mxGeometry x="25" y="100" width="120" height="30" as="geometry" />
        </mxCell>
        <mxCell id="J3jELrB6J5LH7U_Fg43S-20" value="" style="shape=image;verticalLabelPosition=bottom;verticalAlign=top;imageAspect=0;aspect=fixed;image=data:image/svg+xml,PHN2ZyB4bWxucz0iaHR0cDovL3d3dy53My5vcmcvMjAwMC9zdmciIHdpZHRoPSIxMzkiIGhlaWdodD0iMTM5IiB2aWV3Qm94PSIwIDAgMTM5IDEzOSI+JiN4YTsgIDxnIGlkPSJUcmlnZ2VyIiB0cmFuc2Zvcm09InRyYW5zbGF0ZSgtMzg5IC0xNDQpIj4mI3hhOyAgICA8ZyBpZD0iVHJpZ2dlci0yIiBkYXRhLW5hbWU9IlRyaWdnZXIiIHRyYW5zZm9ybT0idHJhbnNsYXRlKC0yMTEgLTMxMykiPiYjeGE7ICAgICAgPGcgaWQ9IkludGVyc2VjdGlvbiIgdHJhbnNmb3JtPSJ0cmFuc2xhdGUoNjAyIDQ3MykiIGZpbGw9IiMzMzMiPiYjeGE7ICAgICAgICA8cGF0aCBkPSJNIDUzLjk5OTk5NjE4NTMwMjczIDgzLjAwMDMwNTE3NTc4MTI1IEMgNDkuMDAwMjI4ODgxODM1OTQgODMuMDAwMzA1MTc1NzgxMjUgNDQuMTE3MjEwMzg4MTgzNTkgODIuMTc0MTE4MDQxOTkyMTkgMzkuNDU4NzQwMjM0Mzc1IDgwLjU0MjEyMTg4NzIwNzAzIEMgMzcuODI2NjE4MTk0NTgwMDggNzUuODgzMjA5MjI4NTE1NjIgMzcuMDAwMzA4OTkwNDc4NTIgNzAuOTk5Njg3MTk0ODI0MjIgMzcuMDAwMzA4OTkwNDc4NTIgNjUuOTk5NzAyNDUzNjEzMjggQyAzNy4wMDAzMDg5OTA0Nzg1MiA2MC4wNTgwMTM5MTYwMTU2MiAzOC4xNjMwOTM1NjY4OTQ1MyA1NC4yOTYxODgzNTQ0OTIxOSA0MC40NTYzODI3NTE0NjQ4NCA0OC44NzQyNjM3NjM0Mjc3MyBDIDQyLjY3MjI4MzE3MjYwNzQyIDQzLjYzNTI4ODIzODUyNTM5IDQ1Ljg0NTM3MTI0NjMzNzg5IDM4LjkyOTM2MzI1MDczMjQyIDQ5Ljg4NzUxOTgzNjQyNTc4IDM0Ljg4NzIxNDY2MDY0NDUzIEMgNTMuOTI5NjY4NDI2NTEzNjcgMzAuODQ1MDY0MTYzMjA4MDEgNTguNjM1NTgxOTcwMjE0ODQgMjcuNjcxOTc3OTk2ODI2MTcgNjMuODc0NTU3NDk1MTE3MTkgMjUuNDU2MDc3NTc1NjgzNTkgQyA2OS4yOTY0ODU5MDA4Nzg5MSAyMy4xNjI3OTAyOTg0NjE5MSA3NS4wNTgzMTkwOTE3OTY4OCAyMi4wMDAwMDE5MDczNDg2MyA4MC45OTk5OTIzNzA2MDU0NyAyMi4wMDAwMDE5MDczNDg2MyBDIDg1Ljk5OTc3ODc0NzU1ODU5IDIyLjAwMDAwMTkwNzM0ODYzIDkwLjg4MjkwNDA1MjczNDM4IDIyLjgyNjIyNzE4ODExMDM1IDk1LjU0MTQ1MDUwMDQ4ODI4IDI0LjQ1ODI1MDA0NTc3NjM3IEMgOTcuMTczNDg0ODAyMjQ2MDkgMjkuMTE2ODA5ODQ0OTcwNyA5Ny45OTk3MTAwODMwMDc4MSAzMy45OTk5Mjc1MjA3NTE5NSA5Ny45OTk3MTAwODMwMDc4MSAzOC45OTk3MDI0NTM2MTMyOCBDIDk3Ljk5OTcxMDA4MzAwNzgxIDQ0Ljk0MTYxNjA1ODM0OTYxIDk2LjgzNjkwNjQzMzEwNTQ3IDUwLjcwMzYyODU0MDAzOTA2IDk0LjU0MzYxNzI0ODUzNTE2IDU2LjEyNTY5MDQ2MDIwNTA4IEMgOTIuMzI3NzIwNjQyMDg5ODQgNjEuMzY0Nzc2NjExMzI4MTIgODkuMTU0NjE3MzA5NTcwMzEgNjYuMDcwNzkzMTUxODU1NDcgODUuMTEyNDcyNTM0MTc5NjkgNzAuMTEyOTkxMzMzMDA3ODEgQyA4MS4wNzAzMzUzODgxODM1OSA3NC4xNTUxNzQyNTUzNzEwOSA3Ni4zNjQ0MTA0MDAzOTA2MiA3Ny4zMjgzMDA0NzYwNzQyMiA3MS4xMjU0MzQ4NzU0ODgyOCA3OS41NDQyMTIzNDEzMDg1OSBDIDY1LjcwMzUyMTcyODUxNTYyIDgxLjgzNzUwMTUyNTg3ODkxIDU5Ljk0MTY4MDkwODIwMzEyIDgzLjAwMDMwNTE3NTc4MTI1IDUzLjk5OTk5NjE4NTMwMjczIDgzLjAwMDMwNTE3NTc4MTI1IFoiIHN0cm9rZT0ibm9uZSIvPiYjeGE7ICAgICAgICA8cGF0aCBkPSJNIDU0LjAwMDAwNzYyOTM5NDUzIDc5LjAwMDMwNTE3NTc4MTI1IEMgNzYuMDU1OTIzNDYxOTE0MDYgNzkuMDAwMzA1MTc1NzgxMjUgOTMuOTk5NzEwMDgzMDA3ODEgNjEuMDU2MTAyNzUyNjg1NTUgOTMuOTk5NzEwMDgzMDA3ODEgMzguOTk5NzAyNDUzNjEzMjggQyA5My45OTk3MTAwODMwMDc4MSAzNS4xMTIxMjkyMTE0MjU3OCA5My40NTA4OTcyMTY3OTY4OCAzMS4zMDMxMzg3MzI5MTAxNiA5Mi4zNjUwNTg4OTg5MjU3OCAyNy42MzQ2NjA3MjA4MjUyIEMgODguNjk2NTcxMzUwMDk3NjYgMjYuNTQ4ODIwNDk1NjA1NDcgODQuODg3NTczMjQyMTg3NSAyNi4wMDAwMDE5MDczNDg2MyA4MS4wMDAwMDc2MjkzOTQ1MyAyNi4wMDAwMDE5MDczNDg2MyBDIDU4Ljk0NDA5MTc5Njg3NSAyNi4wMDAwMDE5MDczNDg2MyA0MS4wMDAzMDg5OTA0Nzg1MiA0My45NDM3ODY2MjEwOTM3NSA0MS4wMDAzMDg5OTA0Nzg1MiA2NS45OTk3MDI0NTM2MTMyOCBDIDQxLjAwMDMwODk5MDQ3ODUyIDY5Ljg4Nzc0MTA4ODg2NzE5IDQxLjU0OTA1NzAwNjgzNTk0IDczLjY5NjYzMjM4NTI1MzkxIDQyLjYzNTE0MzI4MDAyOTMgNzcuMzY1NzA3Mzk3NDYwOTQgQyA0Ni4zMDM1NjU5NzkwMDM5MSA3OC40NTE1MjI4MjcxNDg0NCA1MC4xMTI0NDU4MzEyOTg4MyA3OS4wMDAzMDUxNzU3ODEyNSA1NC4wMDAwMDc2MjkzOTQ1MyA3OS4wMDAzMDUxNzU3ODEyNSBNIDU0LjAwMDAwNzYyOTM5NDUzIDg3LjAwMDMwNTE3NTc4MTI1IEMgNDcuNzY3NDI1NTM3MTA5MzggODcuMDAwMzA1MTc1NzgxMjUgNDEuODEzNDA3ODk3OTQ5MjIgODUuODEyODA1MTc1NzgxMjUgMzYuMzQ5NzU4MTQ4MTkzMzYgODMuNjUxMDg0ODk5OTAyMzQgQyAzNC4xODgwNTY5NDU4MDA3OCA3OC4xODczMTY4OTQ1MzEyNSAzMy4wMDAzMDg5OTA0Nzg1MiA3Mi4yMzI0ODI5MTAxNTYyNSAzMy4wMDAzMDg5OTA0Nzg1MiA2NS45OTk3MDI0NTM2MTMyOCBDIDMzLjAwMDMwODk5MDQ3ODUyIDM5LjQ5MDIwMzg1NzQyMTg4IDU0LjQ5MDUwOTAzMzIwMzEyIDE4LjAwMDAwMTkwNzM0ODYzIDgxLjAwMDAwNzYyOTM5NDUzIDE4LjAwMDAwMTkwNzM0ODYzIEMgODcuMjMyNTg5NzIxNjc5NjkgMTguMDAwMDAxOTA3MzQ4NjMgOTMuMTg2Nzc1MjA3NTE5NTMgMTkuMTg3NTY4NjY0NTUwNzggOTguNjUwNDIxMTQyNTc4MTIgMjEuMzQ5Mjg1MTI1NzMyNDIgQyAxMDAuODEyMTQxNDE4NDU3IDI2LjgxMjkxOTYxNjY5OTIyIDEwMS45OTk3MTAwODMwMDc4IDMyLjc2NzEyMDM2MTMyODEyIDEwMS45OTk3MTAwODMwMDc4IDM4Ljk5OTcwMjQ1MzYxMzI4IEMgMTAxLjk5OTcxMDA4MzAwNzggNjUuNTEwMTAxMzE4MzU5MzggODAuNTA5NDkwOTY2Nzk2ODggODcuMDAwMzA1MTc1NzgxMjUgNTQuMDAwMDA3NjI5Mzk0NTMgODcuMDAwMzA1MTc1NzgxMjUgWiIgc3Ryb2tlPSJub25lIiBmaWxsPSIjMzMzIi8+JiN4YTsgICAgICA8L2c+JiN4YTsgICAgICA8ZyBpZD0iVW5pb24iIHRyYW5zZm9ybT0idHJhbnNsYXRlKDYwMiA0NzQpIiBmaWxsPSJub25lIj4mI3hhOyAgICAgICAgPHBhdGggZD0iTTM2LjM1LDgzLjY1MWE0OC4wMDgsNDguMDA4LDAsMSwxLDYyLjMtNjIuMyw0OC4wMDgsNDguMDA4LDAsMSwxLTYyLjMsNjIuM1oiIHN0cm9rZT0ibm9uZSIvPiYjeGE7ICAgICAgICA8cGF0aCBkPSJNIDgxLjAwMDAwNzYyOTM5NDUzIDEwNi4wMDAzMjA0MzQ1NzAzIEMgMTAzLjA1NTkzODcyMDcwMzEgMTA2LjAwMDMyMDQzNDU3MDMgMTIwLjk5OTcyNTM0MTc5NjkgODguMDU2MTA2NTY3MzgyODEgMTIwLjk5OTcyNTM0MTc5NjkgNjUuOTk5NzAyNDUzNjEzMjggQyAxMjAuOTk5NzI1MzQxNzk2OSA0OS40NzM2NTE4ODU5ODYzMyAxMTEuMDcxODE1NDkwNzIyNyAzNC44NjcyNDg1MzUxNTYyNSA5NS43MDcxNzYyMDg0OTYwOSAyOC43ODgxNzU1ODI4ODU3NCBMIDkyLjQ4NTk4NDgwMjI0NjA5IDI3LjUxMzcwMDQ4NTIyOTQ5IEwgOTEuMjExNTA5NzA0NTg5ODQgMjQuMjkyNTA5MDc4OTc5NDkgQyA4NS4xMzI0Mzg2NTk2Njc5NyA4LjkyNzkxNDYxOTQ0NTgwMSA3MC41MjYwNTQzODIzMjQyMiAtMC45OTk5OTAyODQ0NDI5MDE2IDU0LjAwMDAwNzYyOTM5NDUzIC0wLjk5OTk5MDI4NDQ0MjkwMTYgQyAzMS45NDQwNzg0NDU0MzQ1NyAtMC45OTk5OTAyODQ0NDI5MDE2IDE0LjAwMDI5MzczMTY4OTQ1IDE2Ljk0Mzc5NjE1NzgzNjkxIDE0LjAwMDI5MzczMTY4OTQ1IDM4Ljk5OTY5ODYzODkxNjAyIEMgMTQuMDAwMjkzNzMxNjg5NDUgNTUuNTI2MjQ4OTMxODg0NzcgMjMuOTI4MjcwMzM5OTY1ODIgNzAuMTMzMDEwODY0MjU3ODEgMzkuMjkzMDA2ODk2OTcyNjYgNzYuMjEyMTczNDYxOTE0MDYgTCA0Mi41MTQyNDQwNzk1ODk4NCA3Ny40ODY2NzkwNzcxNDg0NCBMIDQzLjc4ODY5NjI4OTA2MjUgODAuNzA3OTE2MjU5NzY1NjIgQyA0OS44Njc2MDMzMDIwMDE5NSA5Ni4wNzI0NjM5ODkyNTc4MSA2NC40NzM5MTUxMDAwOTc2NiAxMDYuMDAwMzIwNDM0NTcwMyA4MS4wMDAwMDc2MjkzOTQ1MyAxMDYuMDAwMzIwNDM0NTcwMyBNIDgxLjAwMDAwNzYyOTM5NDUzIDExNC4wMDAzMjA0MzQ1NzAzIEMgNjAuNzIzMDc5NjgxMzk2NDggMTE0LjAwMDMyMDQzNDU3MDMgNDMuMzgyNjI1NTc5ODMzOTggMTAxLjQyNjc1MDE4MzEwNTUgMzYuMzQ5NzY5NTkyMjg1MTYgODMuNjUxMDg0ODk5OTAyMzQgQyAxOC41NzQ0ODM4NzE0NTk5NiA3Ni42MTgxNzkzMjEyODkwNiA2LjAwMDI5MzI1NDg1MjI5NSA1OS4yNzczMjA4NjE4MTY0MSA2LjAwMDI5MzI1NDg1MjI5NSAzOC45OTk2OTg2Mzg5MTYwMiBDIDYuMDAwMjkzMjU0ODUyMjk1IDEyLjQ5MDIwMDA0MjcyNDYxIDI3LjQ5MDUwNzEyNTg1NDQ5IC04Ljk5OTk5MDQ2MzI1NjgzNiA1NC4wMDAwMDc2MjkzOTQ1MyAtOC45OTk5OTA0NjMyNTY4MzYgQyA3NC4yNzY5MzkzOTIwODk4NCAtOC45OTk5OTA0NjMyNTY4MzYgOTEuNjE3NTUzNzEwOTM3NSAzLjU3NDAwOTY1NjkwNjEyOCA5OC42NTA0MTM1MTMxODM1OSAyMS4zNDkyNzE3NzQyOTE5OSBDIDExNi40MjU2OTczMjY2NjAyIDI4LjM4MjEyOTY2OTE4OTQ1IDEyOC45OTk3MjUzNDE3OTY5IDQ1LjcyMjc3MDY5MDkxNzk3IDEyOC45OTk3MjUzNDE3OTY5IDY1Ljk5OTcwMjQ1MzYxMzI4IEMgMTI4Ljk5OTcyNTM0MTc5NjkgOTIuNTEwMTAxMzE4MzU5MzggMTA3LjUwOTUwNjIyNTU4NTkgMTE0LjAwMDMyMDQzNDU3MDMgODEuMDAwMDA3NjI5Mzk0NTMgMTE0LjAwMDMyMDQzNDU3MDMgWiIgc3Ryb2tlPSJub25lIiBmaWxsPSIjMzMzIi8+JiN4YTsgICAgICA8L2c+JiN4YTsgICAgPC9nPiYjeGE7ICAgIDxwYXRoIGlkPSJCb3VuZGVyIiBkPSJNMCwwSDEzOVYxMzlIMFoiIHRyYW5zZm9ybT0idHJhbnNsYXRlKDM4OSAxNDQpIiBmaWxsPSJub25lIi8+JiN4YTsgIDwvZz4mI3hhOzwvc3ZnPg==;labelBackgroundColor=none;labelBorderColor=none;sketch=0;fontColor=#000000;strokeColor=default;fillColor=#333333;gradientColor=none;" parent="J3jELrB6J5LH7U_Fg43S-17" vertex="1">
          <mxGeometry x="45" y="25" width="80" height="80" as="geometry" />
        </mxCell>
        <mxCell id="J3jELrB6J5LH7U_Fg43S-21" value="" style="group" parent="J3jELrB6J5LH7U_Fg43S-1" vertex="1" connectable="0">
          <mxGeometry x="580" y="83" width="180" height="136.25" as="geometry" />
        </mxCell>
        <mxCell id="J3jELrB6J5LH7U_Fg43S-22" value="" style="group" parent="J3jELrB6J5LH7U_Fg43S-21" vertex="1" connectable="0">
          <mxGeometry width="180" height="136.25" as="geometry" />
        </mxCell>
        <mxCell id="J3jELrB6J5LH7U_Fg43S-23" value="&lt;b&gt;Type:&lt;/b&gt; Google Analytics: Universal Analytics" style="text;html=1;strokeColor=none;fillColor=none;align=center;verticalAlign=middle;whiteSpace=wrap;rounded=0;sketch=1;" parent="J3jELrB6J5LH7U_Fg43S-22" vertex="1">
          <mxGeometry y="108.25" width="180" height="30" as="geometry" />
        </mxCell>
        <mxCell id="J3jELrB6J5LH7U_Fg43S-24" value="Broadcast Event" style="text;html=1;strokeColor=none;fillColor=none;align=center;verticalAlign=middle;whiteSpace=wrap;rounded=0;sketch=1;" parent="J3jELrB6J5LH7U_Fg43S-22" vertex="1">
          <mxGeometry x="10" width="160" height="30" as="geometry" />
        </mxCell>
        <mxCell id="J3jELrB6J5LH7U_Fg43S-25" value="" style="shape=image;verticalLabelPosition=bottom;verticalAlign=top;imageAspect=0;aspect=fixed;image=data:image/svg+xml,PHN2ZyB4bWxucz0iaHR0cDovL3d3dy53My5vcmcvMjAwMC9zdmciIHdpZHRoPSIxMzkiIGhlaWdodD0iMTM5IiB2aWV3Qm94PSIwIDAgMTM5IDEzOSI+JiN4YTsgIDxnIGlkPSJHVE0iIHRyYW5zZm9ybT0idHJhbnNsYXRlKC02NzIgLTgwKSI+JiN4YTsgICAgPGcgaWQ9IkdUTS0yIiBkYXRhLW5hbWU9IkdUTSIgdHJhbnNmb3JtPSJ0cmFuc2xhdGUoNjc5Ljk5NyA4OC4wMDIpIj4mI3hhOyAgICAgIDxwYXRoIGlkPSJQYXRoXzEiIGRhdGEtbmFtZT0iUGF0aCAxIiBkPSJNNzIuMTMsMTE4LjIyLDUwLjgsOTYuODZsNDUuODMtNDYuMywyMS43MiwyMS43Mkw3Mi4xMywxMTguMjJaIiB0cmFuc2Zvcm09InRyYW5zbGF0ZSgwLjEzMyAwLjEwOCkiIGZpbGw9IiM4YWI0ZjgiLz4mI3hhOyAgICAgIDxwYXRoIGlkPSJQYXRoXzIiIGRhdGEtbmFtZT0iUGF0aCAyIiBkPSJNNzIuMjksMjYuMjUxLDUwLjU2LDQuNSw0LjUsNTAuNmExNS4zNzUsMTUuMzc1LDAsMCwwLDAsMjEuNzMxaDBsNDYuMDYsNDYuMSwyMS4zMS0yMS40MkwzNy4wNyw2MS41WiIgdHJhbnNmb3JtPSJ0cmFuc2xhdGUoMCAwKSIgZmlsbD0iIzQyODVmNCIvPiYjeGE7ICAgICAgPHBhdGggaWQ9IlBhdGhfMyIgZGF0YS1uYW1lPSJQYXRoIDMiIGQ9Ik0xMTguMzUsNTAuNTYsNzIuMjksNC41QTE1LjM2MiwxNS4zNjIsMCwxLDAsNTAuNTYsMjYuMjJMOTYuNjUsNzIuMjhhMTUuMzU5LDE1LjM1OSwwLDEsMCwyMS43MjEtMjEuNzIxWiIgdHJhbnNmb3JtPSJ0cmFuc2xhdGUoMC4xMzMpIiBmaWxsPSIjOGFiNGY4Ii8+JiN4YTsgICAgICA8cGF0aCBpZD0iUGF0aF80IiBkYXRhLW5hbWU9IlBhdGggNCIgZD0iTTc2LjQ4LDEwNy42NmExNS4yMywxNS4yMywwLDEsMC0xNS4yMiwxNS4yMywxNS4yMywxNS4yMywwLDAsMCwxNS4yMi0xNS4yM1oiIHRyYW5zZm9ybT0idHJhbnNsYXRlKDAuMDY2IDAuMTA4KSIgZmlsbD0iIzI0NmZkYiIvPiYjeGE7ICAgIDwvZz4mI3hhOyAgICA8cmVjdCBpZD0iQm91bmRlciIgd2lkdGg9IjEzOSIgaGVpZ2h0PSIxMzkiIHRyYW5zZm9ybT0idHJhbnNsYXRlKDY3MiA4MCkiIGZpbGw9Im5vbmUiLz4mI3hhOyAgPC9nPiYjeGE7PC9zdmc+;labelBackgroundColor=none;labelBorderColor=none;sketch=0;fontColor=#000000;strokeColor=default;fillColor=#333333;gradientColor=none;" parent="J3jELrB6J5LH7U_Fg43S-22" vertex="1">
          <mxGeometry x="50" y="25" width="80" height="80" as="geometry" />
        </mxCell>
        <mxCell id="J3jELrB6J5LH7U_Fg43S-26" value="" style="group" parent="J3jELrB6J5LH7U_Fg43S-1" vertex="1" connectable="0">
          <mxGeometry x="880" y="108" width="130" height="104.5" as="geometry" />
        </mxCell>
        <mxCell id="J3jELrB6J5LH7U_Fg43S-27" value="Google Analytics" style="text;html=1;strokeColor=none;fillColor=none;align=center;verticalAlign=middle;whiteSpace=wrap;rounded=0;labelBackgroundColor=none;labelBorderColor=none;sketch=0;fontColor=#000000;" parent="J3jELrB6J5LH7U_Fg43S-26" vertex="1">
          <mxGeometry y="74.5" width="130" height="30" as="geometry" />
        </mxCell>
        <mxCell id="J3jELrB6J5LH7U_Fg43S-28" value="" style="shape=image;verticalLabelPosition=bottom;verticalAlign=top;imageAspect=0;aspect=fixed;image=data:image/svg+xml,PHN2ZyB4bWxucz0iaHR0cDovL3d3dy53My5vcmcvMjAwMC9zdmciIHdpZHRoPSIxMjQuODQ5OTc1NTg1OTM3NSIgaGVpZ2h0PSIxMzkiIHZpZXdCb3g9IjAgMCAxMjQuODQ5OTc1NTg1OTM3NSAxMzkiPiYjeGE7ICA8ZyBpZD0iR0EiIHRyYW5zZm9ybT0idHJhbnNsYXRlKC0xMDQ4IC0yMDgpIj4mI3hhOyAgICA8cmVjdCBpZD0iQm91bmRlciIgd2lkdGg9IjEyNC44NSIgaGVpZ2h0PSIxMzkiIHRyYW5zZm9ybT0idHJhbnNsYXRlKDEwNDggMjA4KSIgZmlsbD0ibm9uZSIvPiYjeGE7ICAgIDxnIGlkPSJHQS0yIiBkYXRhLW5hbWU9IkdBIiB0cmFuc2Zvcm09InRyYW5zbGF0ZSg0NDYgMTU3KSI+JiN4YTsgICAgICA8Y2lyY2xlIGlkPSJFbGxpcHNlXzUiIGRhdGEtbmFtZT0iRWxsaXBzZSA1IiBjeD0iMTQiIGN5PSIxNCIgcj0iMTQiIHRyYW5zZm9ybT0idHJhbnNsYXRlKDYxMCAxNTIpIiBmaWxsPSIjZTM3NDAwIi8+JiN4YTsgICAgICA8cmVjdCBpZD0iUmVjdGFuZ2xlXzIiIGRhdGEtbmFtZT0iUmVjdGFuZ2xlIDIiIHdpZHRoPSIyOCIgaGVpZ2h0PSI2OS44NTYiIHJ4PSIxNCIgdHJhbnNmb3JtPSJ0cmFuc2xhdGUoNjUwLjU0NSAxMTAuMzE2KSIgZmlsbD0iI2UzNzQwMCIvPiYjeGE7ICAgICAgPHJlY3QgaWQ9IlJlY3RhbmdsZV8zIiBkYXRhLW5hbWU9IlJlY3RhbmdsZSAzIiB3aWR0aD0iMjgiIGhlaWdodD0iMTIxLjIzNyIgcng9IjE0IiB0cmFuc2Zvcm09InRyYW5zbGF0ZSg2OTAuOTQ4IDU5KSIgZmlsbD0iI2Y5YWIwMCIvPiYjeGE7ICAgIDwvZz4mI3hhOyAgPC9nPiYjeGE7PC9zdmc+;labelBackgroundColor=none;labelBorderColor=none;sketch=0;fontColor=#000000;strokeColor=default;fillColor=#333333;gradientColor=none;" parent="J3jELrB6J5LH7U_Fg43S-26" vertex="1">
          <mxGeometry x="29.02999999999986" width="71.94" height="80" as="geometry" />
        </mxCell>
        <mxCell id="PE-pr11ScnCS8-mSCqlE-14" value="" style="group" parent="J3jELrB6J5LH7U_Fg43S-1" vertex="1" connectable="0">
          <mxGeometry y="-504" width="1100" height="220" as="geometry" />
        </mxCell>
        <mxCell id="PE-pr11ScnCS8-mSCqlE-12" value="" style="rounded=0;whiteSpace=wrap;html=1;fillColor=#f5f5f5;strokeColor=#666666;fontColor=#333333;" parent="PE-pr11ScnCS8-mSCqlE-14" vertex="1">
          <mxGeometry width="1100" height="220" as="geometry" />
        </mxCell>
        <mxCell id="J3jELrB6J5LH7U_Fg43S-29" value="" style="group" parent="PE-pr11ScnCS8-mSCqlE-14" vertex="1" connectable="0">
          <mxGeometry y="45" width="180" height="130" as="geometry" />
        </mxCell>
        <mxCell id="J3jELrB6J5LH7U_Fg43S-30" value="&lt;b&gt;Type:&lt;/b&gt; Custom HTML" style="text;html=1;strokeColor=none;fillColor=none;align=center;verticalAlign=middle;whiteSpace=wrap;rounded=0;sketch=1;" parent="J3jELrB6J5LH7U_Fg43S-29" vertex="1">
          <mxGeometry y="100" width="180" height="30" as="geometry" />
        </mxCell>
        <mxCell id="J3jELrB6J5LH7U_Fg43S-31" value="Login - Event Listener" style="text;html=1;strokeColor=none;fillColor=none;align=center;verticalAlign=middle;whiteSpace=wrap;rounded=0;sketch=1;" parent="J3jELrB6J5LH7U_Fg43S-29" vertex="1">
          <mxGeometry x="10" width="160" height="30" as="geometry" />
        </mxCell>
        <mxCell id="J3jELrB6J5LH7U_Fg43S-32" value="" style="shape=image;verticalLabelPosition=bottom;verticalAlign=top;imageAspect=0;aspect=fixed;image=data:image/svg+xml,PHN2ZyB4bWxucz0iaHR0cDovL3d3dy53My5vcmcvMjAwMC9zdmciIHdpZHRoPSIxMzkiIGhlaWdodD0iMTM5IiB2aWV3Qm94PSIwIDAgMTM5IDEzOSI+JiN4YTsgIDxnIGlkPSJHVE0iIHRyYW5zZm9ybT0idHJhbnNsYXRlKC02NzIgLTgwKSI+JiN4YTsgICAgPGcgaWQ9IkdUTS0yIiBkYXRhLW5hbWU9IkdUTSIgdHJhbnNmb3JtPSJ0cmFuc2xhdGUoNjc5Ljk5NyA4OC4wMDIpIj4mI3hhOyAgICAgIDxwYXRoIGlkPSJQYXRoXzEiIGRhdGEtbmFtZT0iUGF0aCAxIiBkPSJNNzIuMTMsMTE4LjIyLDUwLjgsOTYuODZsNDUuODMtNDYuMywyMS43MiwyMS43Mkw3Mi4xMywxMTguMjJaIiB0cmFuc2Zvcm09InRyYW5zbGF0ZSgwLjEzMyAwLjEwOCkiIGZpbGw9IiM4YWI0ZjgiLz4mI3hhOyAgICAgIDxwYXRoIGlkPSJQYXRoXzIiIGRhdGEtbmFtZT0iUGF0aCAyIiBkPSJNNzIuMjksMjYuMjUxLDUwLjU2LDQuNSw0LjUsNTAuNmExNS4zNzUsMTUuMzc1LDAsMCwwLDAsMjEuNzMxaDBsNDYuMDYsNDYuMSwyMS4zMS0yMS40MkwzNy4wNyw2MS41WiIgdHJhbnNmb3JtPSJ0cmFuc2xhdGUoMCAwKSIgZmlsbD0iIzQyODVmNCIvPiYjeGE7ICAgICAgPHBhdGggaWQ9IlBhdGhfMyIgZGF0YS1uYW1lPSJQYXRoIDMiIGQ9Ik0xMTguMzUsNTAuNTYsNzIuMjksNC41QTE1LjM2MiwxNS4zNjIsMCwxLDAsNTAuNTYsMjYuMjJMOTYuNjUsNzIuMjhhMTUuMzU5LDE1LjM1OSwwLDEsMCwyMS43MjEtMjEuNzIxWiIgdHJhbnNmb3JtPSJ0cmFuc2xhdGUoMC4xMzMpIiBmaWxsPSIjOGFiNGY4Ii8+JiN4YTsgICAgICA8cGF0aCBpZD0iUGF0aF80IiBkYXRhLW5hbWU9IlBhdGggNCIgZD0iTTc2LjQ4LDEwNy42NmExNS4yMywxNS4yMywwLDEsMC0xNS4yMiwxNS4yMywxNS4yMywxNS4yMywwLDAsMCwxNS4yMi0xNS4yM1oiIHRyYW5zZm9ybT0idHJhbnNsYXRlKDAuMDY2IDAuMTA4KSIgZmlsbD0iIzI0NmZkYiIvPiYjeGE7ICAgIDwvZz4mI3hhOyAgICA8cmVjdCBpZD0iQm91bmRlciIgd2lkdGg9IjEzOSIgaGVpZ2h0PSIxMzkiIHRyYW5zZm9ybT0idHJhbnNsYXRlKDY3MiA4MCkiIGZpbGw9Im5vbmUiLz4mI3hhOyAgPC9nPiYjeGE7PC9zdmc+;labelBackgroundColor=none;labelBorderColor=none;sketch=0;fontColor=#000000;strokeColor=default;fillColor=#333333;gradientColor=none;" parent="J3jELrB6J5LH7U_Fg43S-29" vertex="1">
          <mxGeometry x="50" y="25" width="80" height="80" as="geometry" />
        </mxCell>
        <mxCell id="J3jELrB6J5LH7U_Fg43S-33" value="" style="group" parent="PE-pr11ScnCS8-mSCqlE-14" vertex="1" connectable="0">
          <mxGeometry x="240" y="45" width="180" height="130" as="geometry" />
        </mxCell>
        <mxCell id="J3jELrB6J5LH7U_Fg43S-34" value="&lt;b&gt;Type:&lt;/b&gt; Custom HTML" style="text;html=1;strokeColor=none;fillColor=none;align=center;verticalAlign=middle;whiteSpace=wrap;rounded=0;sketch=1;" parent="J3jELrB6J5LH7U_Fg43S-33" vertex="1">
          <mxGeometry y="100" width="180" height="30" as="geometry" />
        </mxCell>
        <mxCell id="J3jELrB6J5LH7U_Fg43S-35" value="Lgout - Event Listener" style="text;html=1;strokeColor=none;fillColor=none;align=center;verticalAlign=middle;whiteSpace=wrap;rounded=0;sketch=1;" parent="J3jELrB6J5LH7U_Fg43S-33" vertex="1">
          <mxGeometry x="10" width="160" height="30" as="geometry" />
        </mxCell>
        <mxCell id="J3jELrB6J5LH7U_Fg43S-36" value="" style="shape=image;verticalLabelPosition=bottom;verticalAlign=top;imageAspect=0;aspect=fixed;image=data:image/svg+xml,PHN2ZyB4bWxucz0iaHR0cDovL3d3dy53My5vcmcvMjAwMC9zdmciIHdpZHRoPSIxMzkiIGhlaWdodD0iMTM5IiB2aWV3Qm94PSIwIDAgMTM5IDEzOSI+JiN4YTsgIDxnIGlkPSJHVE0iIHRyYW5zZm9ybT0idHJhbnNsYXRlKC02NzIgLTgwKSI+JiN4YTsgICAgPGcgaWQ9IkdUTS0yIiBkYXRhLW5hbWU9IkdUTSIgdHJhbnNmb3JtPSJ0cmFuc2xhdGUoNjc5Ljk5NyA4OC4wMDIpIj4mI3hhOyAgICAgIDxwYXRoIGlkPSJQYXRoXzEiIGRhdGEtbmFtZT0iUGF0aCAxIiBkPSJNNzIuMTMsMTE4LjIyLDUwLjgsOTYuODZsNDUuODMtNDYuMywyMS43MiwyMS43Mkw3Mi4xMywxMTguMjJaIiB0cmFuc2Zvcm09InRyYW5zbGF0ZSgwLjEzMyAwLjEwOCkiIGZpbGw9IiM4YWI0ZjgiLz4mI3hhOyAgICAgIDxwYXRoIGlkPSJQYXRoXzIiIGRhdGEtbmFtZT0iUGF0aCAyIiBkPSJNNzIuMjksMjYuMjUxLDUwLjU2LDQuNSw0LjUsNTAuNmExNS4zNzUsMTUuMzc1LDAsMCwwLDAsMjEuNzMxaDBsNDYuMDYsNDYuMSwyMS4zMS0yMS40MkwzNy4wNyw2MS41WiIgdHJhbnNmb3JtPSJ0cmFuc2xhdGUoMCAwKSIgZmlsbD0iIzQyODVmNCIvPiYjeGE7ICAgICAgPHBhdGggaWQ9IlBhdGhfMyIgZGF0YS1uYW1lPSJQYXRoIDMiIGQ9Ik0xMTguMzUsNTAuNTYsNzIuMjksNC41QTE1LjM2MiwxNS4zNjIsMCwxLDAsNTAuNTYsMjYuMjJMOTYuNjUsNzIuMjhhMTUuMzU5LDE1LjM1OSwwLDEsMCwyMS43MjEtMjEuNzIxWiIgdHJhbnNmb3JtPSJ0cmFuc2xhdGUoMC4xMzMpIiBmaWxsPSIjOGFiNGY4Ii8+JiN4YTsgICAgICA8cGF0aCBpZD0iUGF0aF80IiBkYXRhLW5hbWU9IlBhdGggNCIgZD0iTTc2LjQ4LDEwNy42NmExNS4yMywxNS4yMywwLDEsMC0xNS4yMiwxNS4yMywxNS4yMywxNS4yMywwLDAsMCwxNS4yMi0xNS4yM1oiIHRyYW5zZm9ybT0idHJhbnNsYXRlKDAuMDY2IDAuMTA4KSIgZmlsbD0iIzI0NmZkYiIvPiYjeGE7ICAgIDwvZz4mI3hhOyAgICA8cmVjdCBpZD0iQm91bmRlciIgd2lkdGg9IjEzOSIgaGVpZ2h0PSIxMzkiIHRyYW5zZm9ybT0idHJhbnNsYXRlKDY3MiA4MCkiIGZpbGw9Im5vbmUiLz4mI3hhOyAgPC9nPiYjeGE7PC9zdmc+;labelBackgroundColor=none;labelBorderColor=none;sketch=0;fontColor=#000000;strokeColor=default;fillColor=#333333;gradientColor=none;" parent="J3jELrB6J5LH7U_Fg43S-33" vertex="1">
          <mxGeometry x="50" y="25" width="80" height="80" as="geometry" />
        </mxCell>
        <mxCell id="J3jELrB6J5LH7U_Fg43S-37" value="" style="group" parent="PE-pr11ScnCS8-mSCqlE-14" vertex="1" connectable="0">
          <mxGeometry x="470" y="45" width="180" height="130" as="geometry" />
        </mxCell>
        <mxCell id="J3jELrB6J5LH7U_Fg43S-38" value="&lt;b&gt;Type:&lt;/b&gt; Custom HTML" style="text;html=1;strokeColor=none;fillColor=none;align=center;verticalAlign=middle;whiteSpace=wrap;rounded=0;sketch=1;" parent="J3jELrB6J5LH7U_Fg43S-37" vertex="1">
          <mxGeometry y="100" width="180" height="30" as="geometry" />
        </mxCell>
        <mxCell id="J3jELrB6J5LH7U_Fg43S-39" value="Navigation - Event Listener" style="text;html=1;strokeColor=none;fillColor=none;align=center;verticalAlign=middle;whiteSpace=wrap;rounded=0;sketch=1;" parent="J3jELrB6J5LH7U_Fg43S-37" vertex="1">
          <mxGeometry x="10" width="160" height="30" as="geometry" />
        </mxCell>
        <mxCell id="J3jELrB6J5LH7U_Fg43S-40" value="" style="shape=image;verticalLabelPosition=bottom;verticalAlign=top;imageAspect=0;aspect=fixed;image=data:image/svg+xml,PHN2ZyB4bWxucz0iaHR0cDovL3d3dy53My5vcmcvMjAwMC9zdmciIHdpZHRoPSIxMzkiIGhlaWdodD0iMTM5IiB2aWV3Qm94PSIwIDAgMTM5IDEzOSI+JiN4YTsgIDxnIGlkPSJHVE0iIHRyYW5zZm9ybT0idHJhbnNsYXRlKC02NzIgLTgwKSI+JiN4YTsgICAgPGcgaWQ9IkdUTS0yIiBkYXRhLW5hbWU9IkdUTSIgdHJhbnNmb3JtPSJ0cmFuc2xhdGUoNjc5Ljk5NyA4OC4wMDIpIj4mI3hhOyAgICAgIDxwYXRoIGlkPSJQYXRoXzEiIGRhdGEtbmFtZT0iUGF0aCAxIiBkPSJNNzIuMTMsMTE4LjIyLDUwLjgsOTYuODZsNDUuODMtNDYuMywyMS43MiwyMS43Mkw3Mi4xMywxMTguMjJaIiB0cmFuc2Zvcm09InRyYW5zbGF0ZSgwLjEzMyAwLjEwOCkiIGZpbGw9IiM4YWI0ZjgiLz4mI3hhOyAgICAgIDxwYXRoIGlkPSJQYXRoXzIiIGRhdGEtbmFtZT0iUGF0aCAyIiBkPSJNNzIuMjksMjYuMjUxLDUwLjU2LDQuNSw0LjUsNTAuNmExNS4zNzUsMTUuMzc1LDAsMCwwLDAsMjEuNzMxaDBsNDYuMDYsNDYuMSwyMS4zMS0yMS40MkwzNy4wNyw2MS41WiIgdHJhbnNmb3JtPSJ0cmFuc2xhdGUoMCAwKSIgZmlsbD0iIzQyODVmNCIvPiYjeGE7ICAgICAgPHBhdGggaWQ9IlBhdGhfMyIgZGF0YS1uYW1lPSJQYXRoIDMiIGQ9Ik0xMTguMzUsNTAuNTYsNzIuMjksNC41QTE1LjM2MiwxNS4zNjIsMCwxLDAsNTAuNTYsMjYuMjJMOTYuNjUsNzIuMjhhMTUuMzU5LDE1LjM1OSwwLDEsMCwyMS43MjEtMjEuNzIxWiIgdHJhbnNmb3JtPSJ0cmFuc2xhdGUoMC4xMzMpIiBmaWxsPSIjOGFiNGY4Ii8+JiN4YTsgICAgICA8cGF0aCBpZD0iUGF0aF80IiBkYXRhLW5hbWU9IlBhdGggNCIgZD0iTTc2LjQ4LDEwNy42NmExNS4yMywxNS4yMywwLDEsMC0xNS4yMiwxNS4yMywxNS4yMywxNS4yMywwLDAsMCwxNS4yMi0xNS4yM1oiIHRyYW5zZm9ybT0idHJhbnNsYXRlKDAuMDY2IDAuMTA4KSIgZmlsbD0iIzI0NmZkYiIvPiYjeGE7ICAgIDwvZz4mI3hhOyAgICA8cmVjdCBpZD0iQm91bmRlciIgd2lkdGg9IjEzOSIgaGVpZ2h0PSIxMzkiIHRyYW5zZm9ybT0idHJhbnNsYXRlKDY3MiA4MCkiIGZpbGw9Im5vbmUiLz4mI3hhOyAgPC9nPiYjeGE7PC9zdmc+;labelBackgroundColor=none;labelBorderColor=none;sketch=0;fontColor=#000000;strokeColor=default;fillColor=#333333;gradientColor=none;" parent="J3jELrB6J5LH7U_Fg43S-37" vertex="1">
          <mxGeometry x="50" y="25" width="80" height="80" as="geometry" />
        </mxCell>
        <mxCell id="J3jELrB6J5LH7U_Fg43S-41" value="" style="group" parent="PE-pr11ScnCS8-mSCqlE-14" vertex="1" connectable="0">
          <mxGeometry x="710" y="45" width="180" height="130" as="geometry" />
        </mxCell>
        <mxCell id="J3jELrB6J5LH7U_Fg43S-42" value="&lt;b&gt;Type:&lt;/b&gt; Custom HTML" style="text;html=1;strokeColor=none;fillColor=none;align=center;verticalAlign=middle;whiteSpace=wrap;rounded=0;sketch=1;" parent="J3jELrB6J5LH7U_Fg43S-41" vertex="1">
          <mxGeometry y="100" width="180" height="30" as="geometry" />
        </mxCell>
        <mxCell id="J3jELrB6J5LH7U_Fg43S-43" value="Footer Links - Event Listener" style="text;html=1;strokeColor=none;fillColor=none;align=center;verticalAlign=middle;whiteSpace=wrap;rounded=0;sketch=1;" parent="J3jELrB6J5LH7U_Fg43S-41" vertex="1">
          <mxGeometry x="10" width="160" height="30" as="geometry" />
        </mxCell>
        <mxCell id="J3jELrB6J5LH7U_Fg43S-44" value="" style="shape=image;verticalLabelPosition=bottom;verticalAlign=top;imageAspect=0;aspect=fixed;image=data:image/svg+xml,PHN2ZyB4bWxucz0iaHR0cDovL3d3dy53My5vcmcvMjAwMC9zdmciIHdpZHRoPSIxMzkiIGhlaWdodD0iMTM5IiB2aWV3Qm94PSIwIDAgMTM5IDEzOSI+JiN4YTsgIDxnIGlkPSJHVE0iIHRyYW5zZm9ybT0idHJhbnNsYXRlKC02NzIgLTgwKSI+JiN4YTsgICAgPGcgaWQ9IkdUTS0yIiBkYXRhLW5hbWU9IkdUTSIgdHJhbnNmb3JtPSJ0cmFuc2xhdGUoNjc5Ljk5NyA4OC4wMDIpIj4mI3hhOyAgICAgIDxwYXRoIGlkPSJQYXRoXzEiIGRhdGEtbmFtZT0iUGF0aCAxIiBkPSJNNzIuMTMsMTE4LjIyLDUwLjgsOTYuODZsNDUuODMtNDYuMywyMS43MiwyMS43Mkw3Mi4xMywxMTguMjJaIiB0cmFuc2Zvcm09InRyYW5zbGF0ZSgwLjEzMyAwLjEwOCkiIGZpbGw9IiM4YWI0ZjgiLz4mI3hhOyAgICAgIDxwYXRoIGlkPSJQYXRoXzIiIGRhdGEtbmFtZT0iUGF0aCAyIiBkPSJNNzIuMjksMjYuMjUxLDUwLjU2LDQuNSw0LjUsNTAuNmExNS4zNzUsMTUuMzc1LDAsMCwwLDAsMjEuNzMxaDBsNDYuMDYsNDYuMSwyMS4zMS0yMS40MkwzNy4wNyw2MS41WiIgdHJhbnNmb3JtPSJ0cmFuc2xhdGUoMCAwKSIgZmlsbD0iIzQyODVmNCIvPiYjeGE7ICAgICAgPHBhdGggaWQ9IlBhdGhfMyIgZGF0YS1uYW1lPSJQYXRoIDMiIGQ9Ik0xMTguMzUsNTAuNTYsNzIuMjksNC41QTE1LjM2MiwxNS4zNjIsMCwxLDAsNTAuNTYsMjYuMjJMOTYuNjUsNzIuMjhhMTUuMzU5LDE1LjM1OSwwLDEsMCwyMS43MjEtMjEuNzIxWiIgdHJhbnNmb3JtPSJ0cmFuc2xhdGUoMC4xMzMpIiBmaWxsPSIjOGFiNGY4Ii8+JiN4YTsgICAgICA8cGF0aCBpZD0iUGF0aF80IiBkYXRhLW5hbWU9IlBhdGggNCIgZD0iTTc2LjQ4LDEwNy42NmExNS4yMywxNS4yMywwLDEsMC0xNS4yMiwxNS4yMywxNS4yMywxNS4yMywwLDAsMCwxNS4yMi0xNS4yM1oiIHRyYW5zZm9ybT0idHJhbnNsYXRlKDAuMDY2IDAuMTA4KSIgZmlsbD0iIzI0NmZkYiIvPiYjeGE7ICAgIDwvZz4mI3hhOyAgICA8cmVjdCBpZD0iQm91bmRlciIgd2lkdGg9IjEzOSIgaGVpZ2h0PSIxMzkiIHRyYW5zZm9ybT0idHJhbnNsYXRlKDY3MiA4MCkiIGZpbGw9Im5vbmUiLz4mI3hhOyAgPC9nPiYjeGE7PC9zdmc+;labelBackgroundColor=none;labelBorderColor=none;sketch=0;fontColor=#000000;strokeColor=default;fillColor=#333333;gradientColor=none;" parent="J3jELrB6J5LH7U_Fg43S-41" vertex="1">
          <mxGeometry x="50" y="25" width="80" height="80" as="geometry" />
        </mxCell>
        <mxCell id="PE-pr11ScnCS8-mSCqlE-1" value="" style="group" parent="PE-pr11ScnCS8-mSCqlE-14" vertex="1" connectable="0">
          <mxGeometry x="910" y="45" width="180" height="130" as="geometry" />
        </mxCell>
        <mxCell id="PE-pr11ScnCS8-mSCqlE-2" value="&lt;b&gt;...............&lt;/b&gt;" style="text;html=1;strokeColor=none;fillColor=none;align=center;verticalAlign=middle;whiteSpace=wrap;rounded=0;sketch=1;" parent="PE-pr11ScnCS8-mSCqlE-1" vertex="1">
          <mxGeometry y="100" width="180" height="30" as="geometry" />
        </mxCell>
        <mxCell id="PE-pr11ScnCS8-mSCqlE-3" value="&lt;b&gt;......... - Event Listener&lt;/b&gt;" style="text;html=1;strokeColor=none;fillColor=none;align=center;verticalAlign=middle;whiteSpace=wrap;rounded=0;sketch=1;" parent="PE-pr11ScnCS8-mSCqlE-1" vertex="1">
          <mxGeometry x="10" width="160" height="30" as="geometry" />
        </mxCell>
        <mxCell id="PE-pr11ScnCS8-mSCqlE-4" value="" style="shape=image;verticalLabelPosition=bottom;verticalAlign=top;imageAspect=0;aspect=fixed;image=data:image/svg+xml,PHN2ZyB4bWxucz0iaHR0cDovL3d3dy53My5vcmcvMjAwMC9zdmciIHdpZHRoPSIxMzkiIGhlaWdodD0iMTM5IiB2aWV3Qm94PSIwIDAgMTM5IDEzOSI+JiN4YTsgIDxnIGlkPSJHVE0iIHRyYW5zZm9ybT0idHJhbnNsYXRlKC02NzIgLTgwKSI+JiN4YTsgICAgPGcgaWQ9IkdUTS0yIiBkYXRhLW5hbWU9IkdUTSIgdHJhbnNmb3JtPSJ0cmFuc2xhdGUoNjc5Ljk5NyA4OC4wMDIpIj4mI3hhOyAgICAgIDxwYXRoIGlkPSJQYXRoXzEiIGRhdGEtbmFtZT0iUGF0aCAxIiBkPSJNNzIuMTMsMTE4LjIyLDUwLjgsOTYuODZsNDUuODMtNDYuMywyMS43MiwyMS43Mkw3Mi4xMywxMTguMjJaIiB0cmFuc2Zvcm09InRyYW5zbGF0ZSgwLjEzMyAwLjEwOCkiIGZpbGw9IiM4YWI0ZjgiLz4mI3hhOyAgICAgIDxwYXRoIGlkPSJQYXRoXzIiIGRhdGEtbmFtZT0iUGF0aCAyIiBkPSJNNzIuMjksMjYuMjUxLDUwLjU2LDQuNSw0LjUsNTAuNmExNS4zNzUsMTUuMzc1LDAsMCwwLDAsMjEuNzMxaDBsNDYuMDYsNDYuMSwyMS4zMS0yMS40MkwzNy4wNyw2MS41WiIgdHJhbnNmb3JtPSJ0cmFuc2xhdGUoMCAwKSIgZmlsbD0iIzQyODVmNCIvPiYjeGE7ICAgICAgPHBhdGggaWQ9IlBhdGhfMyIgZGF0YS1uYW1lPSJQYXRoIDMiIGQ9Ik0xMTguMzUsNTAuNTYsNzIuMjksNC41QTE1LjM2MiwxNS4zNjIsMCwxLDAsNTAuNTYsMjYuMjJMOTYuNjUsNzIuMjhhMTUuMzU5LDE1LjM1OSwwLDEsMCwyMS43MjEtMjEuNzIxWiIgdHJhbnNmb3JtPSJ0cmFuc2xhdGUoMC4xMzMpIiBmaWxsPSIjOGFiNGY4Ii8+JiN4YTsgICAgICA8cGF0aCBpZD0iUGF0aF80IiBkYXRhLW5hbWU9IlBhdGggNCIgZD0iTTc2LjQ4LDEwNy42NmExNS4yMywxNS4yMywwLDEsMC0xNS4yMiwxNS4yMywxNS4yMywxNS4yMywwLDAsMCwxNS4yMi0xNS4yM1oiIHRyYW5zZm9ybT0idHJhbnNsYXRlKDAuMDY2IDAuMTA4KSIgZmlsbD0iIzI0NmZkYiIvPiYjeGE7ICAgIDwvZz4mI3hhOyAgICA8cmVjdCBpZD0iQm91bmRlciIgd2lkdGg9IjEzOSIgaGVpZ2h0PSIxMzkiIHRyYW5zZm9ybT0idHJhbnNsYXRlKDY3MiA4MCkiIGZpbGw9Im5vbmUiLz4mI3hhOyAgPC9nPiYjeGE7PC9zdmc+;labelBackgroundColor=none;labelBorderColor=none;sketch=0;fontColor=#000000;strokeColor=default;fillColor=#333333;gradientColor=none;" parent="PE-pr11ScnCS8-mSCqlE-1" vertex="1">
          <mxGeometry x="50" y="25" width="80" height="80" as="geometry" />
        </mxCell>
        <mxCell id="PE-pr11ScnCS8-mSCqlE-15" style="edgeStyle=orthogonalEdgeStyle;rounded=0;orthogonalLoop=1;jettySize=auto;html=1;exitX=0.5;exitY=1;exitDx=0;exitDy=0;fontColor=#000000;entryX=0.5;entryY=0;entryDx=0;entryDy=0;" parent="J3jELrB6J5LH7U_Fg43S-1" source="PE-pr11ScnCS8-mSCqlE-12" target="J3jELrB6J5LH7U_Fg43S-6" edge="1">
          <mxGeometry relative="1" as="geometry">
            <mxPoint x="439" y="116" as="targetPoint" />
            <mxPoint x="438.79999999999995" y="-83.59999999999991" as="sourcePoint" />
          </mxGeometry>
        </mxCell>
        <mxCell id="PE-pr11ScnCS8-mSCqlE-16" value="Push Data Layer" style="edgeLabel;html=1;align=center;verticalAlign=middle;resizable=0;points=[];fontColor=#000000;" parent="PE-pr11ScnCS8-mSCqlE-15" vertex="1" connectable="0">
          <mxGeometry x="0.1594" y="2" relative="1" as="geometry">
            <mxPoint y="-14" as="offset" />
          </mxGeometry>
        </mxCell>
        <mxCell id="J3jELrB6J5LH7U_Fg43S-9" style="edgeStyle=orthogonalEdgeStyle;rounded=0;orthogonalLoop=1;jettySize=auto;html=1;fontColor=#000000;exitX=0.5;exitY=1;exitDx=0;exitDy=0;" parent="J3jELrB6J5LH7U_Fg43S-1" source="S2MOjZ_E0dFiskpMWZ23-17" target="PE-pr11ScnCS8-mSCqlE-12" edge="1">
          <mxGeometry relative="1" as="geometry">
            <mxPoint x="380" y="-534" as="sourcePoint" />
            <mxPoint x="140" y="-524" as="targetPoint" />
          </mxGeometry>
        </mxCell>
        <mxCell id="J3jELrB6J5LH7U_Fg43S-10" value="Trigger" style="edgeLabel;html=1;align=center;verticalAlign=middle;resizable=0;points=[];fontColor=#000000;" parent="J3jELrB6J5LH7U_Fg43S-9" vertex="1" connectable="0">
          <mxGeometry x="-0.1209" y="2" relative="1" as="geometry">
            <mxPoint as="offset" />
          </mxGeometry>
        </mxCell>
        <mxCell id="S2MOjZ_E0dFiskpMWZ23-18" value="" style="group" parent="J3jELrB6J5LH7U_Fg43S-1" vertex="1" connectable="0">
          <mxGeometry x="125" y="-834" width="850" height="190" as="geometry" />
        </mxCell>
        <mxCell id="S2MOjZ_E0dFiskpMWZ23-17" value="" style="rounded=0;whiteSpace=wrap;html=1;fillColor=#f5f5f5;strokeColor=#666666;fontColor=#333333;" parent="S2MOjZ_E0dFiskpMWZ23-18" vertex="1">
          <mxGeometry width="850" height="190" as="geometry" />
        </mxCell>
        <mxCell id="S2MOjZ_E0dFiskpMWZ23-0" value="" style="group" parent="S2MOjZ_E0dFiskpMWZ23-18" vertex="1" connectable="0">
          <mxGeometry x="239" y="30" width="170" height="129" as="geometry" />
        </mxCell>
        <mxCell id="S2MOjZ_E0dFiskpMWZ23-1" value="&lt;b&gt;Type:&lt;/b&gt; Window Loaded" style="text;html=1;strokeColor=none;fillColor=none;align=center;verticalAlign=middle;whiteSpace=wrap;rounded=0;labelBackgroundColor=none;labelBorderColor=none;sketch=0;fontColor=#000000;" parent="S2MOjZ_E0dFiskpMWZ23-0" vertex="1">
          <mxGeometry x="15" y="100" width="140" height="30" as="geometry" />
        </mxCell>
        <mxCell id="S2MOjZ_E0dFiskpMWZ23-2" value="" style="shape=image;verticalLabelPosition=bottom;verticalAlign=top;imageAspect=0;aspect=fixed;image=data:image/svg+xml,PHN2ZyB4bWxucz0iaHR0cDovL3d3dy53My5vcmcvMjAwMC9zdmciIHdpZHRoPSIxMzkiIGhlaWdodD0iMTM5IiB2aWV3Qm94PSIwIDAgMTM5IDEzOSI+JiN4YTsgIDxnIGlkPSJUcmlnZ2VyIiB0cmFuc2Zvcm09InRyYW5zbGF0ZSgtMzg5IC0xNDQpIj4mI3hhOyAgICA8ZyBpZD0iVHJpZ2dlci0yIiBkYXRhLW5hbWU9IlRyaWdnZXIiIHRyYW5zZm9ybT0idHJhbnNsYXRlKC0yMTEgLTMxMykiPiYjeGE7ICAgICAgPGcgaWQ9IkludGVyc2VjdGlvbiIgdHJhbnNmb3JtPSJ0cmFuc2xhdGUoNjAyIDQ3MykiIGZpbGw9IiMzMzMiPiYjeGE7ICAgICAgICA8cGF0aCBkPSJNIDUzLjk5OTk5NjE4NTMwMjczIDgzLjAwMDMwNTE3NTc4MTI1IEMgNDkuMDAwMjI4ODgxODM1OTQgODMuMDAwMzA1MTc1NzgxMjUgNDQuMTE3MjEwMzg4MTgzNTkgODIuMTc0MTE4MDQxOTkyMTkgMzkuNDU4NzQwMjM0Mzc1IDgwLjU0MjEyMTg4NzIwNzAzIEMgMzcuODI2NjE4MTk0NTgwMDggNzUuODgzMjA5MjI4NTE1NjIgMzcuMDAwMzA4OTkwNDc4NTIgNzAuOTk5Njg3MTk0ODI0MjIgMzcuMDAwMzA4OTkwNDc4NTIgNjUuOTk5NzAyNDUzNjEzMjggQyAzNy4wMDAzMDg5OTA0Nzg1MiA2MC4wNTgwMTM5MTYwMTU2MiAzOC4xNjMwOTM1NjY4OTQ1MyA1NC4yOTYxODgzNTQ0OTIxOSA0MC40NTYzODI3NTE0NjQ4NCA0OC44NzQyNjM3NjM0Mjc3MyBDIDQyLjY3MjI4MzE3MjYwNzQyIDQzLjYzNTI4ODIzODUyNTM5IDQ1Ljg0NTM3MTI0NjMzNzg5IDM4LjkyOTM2MzI1MDczMjQyIDQ5Ljg4NzUxOTgzNjQyNTc4IDM0Ljg4NzIxNDY2MDY0NDUzIEMgNTMuOTI5NjY4NDI2NTEzNjcgMzAuODQ1MDY0MTYzMjA4MDEgNTguNjM1NTgxOTcwMjE0ODQgMjcuNjcxOTc3OTk2ODI2MTcgNjMuODc0NTU3NDk1MTE3MTkgMjUuNDU2MDc3NTc1NjgzNTkgQyA2OS4yOTY0ODU5MDA4Nzg5MSAyMy4xNjI3OTAyOTg0NjE5MSA3NS4wNTgzMTkwOTE3OTY4OCAyMi4wMDAwMDE5MDczNDg2MyA4MC45OTk5OTIzNzA2MDU0NyAyMi4wMDAwMDE5MDczNDg2MyBDIDg1Ljk5OTc3ODc0NzU1ODU5IDIyLjAwMDAwMTkwNzM0ODYzIDkwLjg4MjkwNDA1MjczNDM4IDIyLjgyNjIyNzE4ODExMDM1IDk1LjU0MTQ1MDUwMDQ4ODI4IDI0LjQ1ODI1MDA0NTc3NjM3IEMgOTcuMTczNDg0ODAyMjQ2MDkgMjkuMTE2ODA5ODQ0OTcwNyA5Ny45OTk3MTAwODMwMDc4MSAzMy45OTk5Mjc1MjA3NTE5NSA5Ny45OTk3MTAwODMwMDc4MSAzOC45OTk3MDI0NTM2MTMyOCBDIDk3Ljk5OTcxMDA4MzAwNzgxIDQ0Ljk0MTYxNjA1ODM0OTYxIDk2LjgzNjkwNjQzMzEwNTQ3IDUwLjcwMzYyODU0MDAzOTA2IDk0LjU0MzYxNzI0ODUzNTE2IDU2LjEyNTY5MDQ2MDIwNTA4IEMgOTIuMzI3NzIwNjQyMDg5ODQgNjEuMzY0Nzc2NjExMzI4MTIgODkuMTU0NjE3MzA5NTcwMzEgNjYuMDcwNzkzMTUxODU1NDcgODUuMTEyNDcyNTM0MTc5NjkgNzAuMTEyOTkxMzMzMDA3ODEgQyA4MS4wNzAzMzUzODgxODM1OSA3NC4xNTUxNzQyNTUzNzEwOSA3Ni4zNjQ0MTA0MDAzOTA2MiA3Ny4zMjgzMDA0NzYwNzQyMiA3MS4xMjU0MzQ4NzU0ODgyOCA3OS41NDQyMTIzNDEzMDg1OSBDIDY1LjcwMzUyMTcyODUxNTYyIDgxLjgzNzUwMTUyNTg3ODkxIDU5Ljk0MTY4MDkwODIwMzEyIDgzLjAwMDMwNTE3NTc4MTI1IDUzLjk5OTk5NjE4NTMwMjczIDgzLjAwMDMwNTE3NTc4MTI1IFoiIHN0cm9rZT0ibm9uZSIvPiYjeGE7ICAgICAgICA8cGF0aCBkPSJNIDU0LjAwMDAwNzYyOTM5NDUzIDc5LjAwMDMwNTE3NTc4MTI1IEMgNzYuMDU1OTIzNDYxOTE0MDYgNzkuMDAwMzA1MTc1NzgxMjUgOTMuOTk5NzEwMDgzMDA3ODEgNjEuMDU2MTAyNzUyNjg1NTUgOTMuOTk5NzEwMDgzMDA3ODEgMzguOTk5NzAyNDUzNjEzMjggQyA5My45OTk3MTAwODMwMDc4MSAzNS4xMTIxMjkyMTE0MjU3OCA5My40NTA4OTcyMTY3OTY4OCAzMS4zMDMxMzg3MzI5MTAxNiA5Mi4zNjUwNTg4OTg5MjU3OCAyNy42MzQ2NjA3MjA4MjUyIEMgODguNjk2NTcxMzUwMDk3NjYgMjYuNTQ4ODIwNDk1NjA1NDcgODQuODg3NTczMjQyMTg3NSAyNi4wMDAwMDE5MDczNDg2MyA4MS4wMDAwMDc2MjkzOTQ1MyAyNi4wMDAwMDE5MDczNDg2MyBDIDU4Ljk0NDA5MTc5Njg3NSAyNi4wMDAwMDE5MDczNDg2MyA0MS4wMDAzMDg5OTA0Nzg1MiA0My45NDM3ODY2MjEwOTM3NSA0MS4wMDAzMDg5OTA0Nzg1MiA2NS45OTk3MDI0NTM2MTMyOCBDIDQxLjAwMDMwODk5MDQ3ODUyIDY5Ljg4Nzc0MTA4ODg2NzE5IDQxLjU0OTA1NzAwNjgzNTk0IDczLjY5NjYzMjM4NTI1MzkxIDQyLjYzNTE0MzI4MDAyOTMgNzcuMzY1NzA3Mzk3NDYwOTQgQyA0Ni4zMDM1NjU5NzkwMDM5MSA3OC40NTE1MjI4MjcxNDg0NCA1MC4xMTI0NDU4MzEyOTg4MyA3OS4wMDAzMDUxNzU3ODEyNSA1NC4wMDAwMDc2MjkzOTQ1MyA3OS4wMDAzMDUxNzU3ODEyNSBNIDU0LjAwMDAwNzYyOTM5NDUzIDg3LjAwMDMwNTE3NTc4MTI1IEMgNDcuNzY3NDI1NTM3MTA5MzggODcuMDAwMzA1MTc1NzgxMjUgNDEuODEzNDA3ODk3OTQ5MjIgODUuODEyODA1MTc1NzgxMjUgMzYuMzQ5NzU4MTQ4MTkzMzYgODMuNjUxMDg0ODk5OTAyMzQgQyAzNC4xODgwNTY5NDU4MDA3OCA3OC4xODczMTY4OTQ1MzEyNSAzMy4wMDAzMDg5OTA0Nzg1MiA3Mi4yMzI0ODI5MTAxNTYyNSAzMy4wMDAzMDg5OTA0Nzg1MiA2NS45OTk3MDI0NTM2MTMyOCBDIDMzLjAwMDMwODk5MDQ3ODUyIDM5LjQ5MDIwMzg1NzQyMTg4IDU0LjQ5MDUwOTAzMzIwMzEyIDE4LjAwMDAwMTkwNzM0ODYzIDgxLjAwMDAwNzYyOTM5NDUzIDE4LjAwMDAwMTkwNzM0ODYzIEMgODcuMjMyNTg5NzIxNjc5NjkgMTguMDAwMDAxOTA3MzQ4NjMgOTMuMTg2Nzc1MjA3NTE5NTMgMTkuMTg3NTY4NjY0NTUwNzggOTguNjUwNDIxMTQyNTc4MTIgMjEuMzQ5Mjg1MTI1NzMyNDIgQyAxMDAuODEyMTQxNDE4NDU3IDI2LjgxMjkxOTYxNjY5OTIyIDEwMS45OTk3MTAwODMwMDc4IDMyLjc2NzEyMDM2MTMyODEyIDEwMS45OTk3MTAwODMwMDc4IDM4Ljk5OTcwMjQ1MzYxMzI4IEMgMTAxLjk5OTcxMDA4MzAwNzggNjUuNTEwMTAxMzE4MzU5MzggODAuNTA5NDkwOTY2Nzk2ODggODcuMDAwMzA1MTc1NzgxMjUgNTQuMDAwMDA3NjI5Mzk0NTMgODcuMDAwMzA1MTc1NzgxMjUgWiIgc3Ryb2tlPSJub25lIiBmaWxsPSIjMzMzIi8+JiN4YTsgICAgICA8L2c+JiN4YTsgICAgICA8ZyBpZD0iVW5pb24iIHRyYW5zZm9ybT0idHJhbnNsYXRlKDYwMiA0NzQpIiBmaWxsPSJub25lIj4mI3hhOyAgICAgICAgPHBhdGggZD0iTTM2LjM1LDgzLjY1MWE0OC4wMDgsNDguMDA4LDAsMSwxLDYyLjMtNjIuMyw0OC4wMDgsNDguMDA4LDAsMSwxLTYyLjMsNjIuM1oiIHN0cm9rZT0ibm9uZSIvPiYjeGE7ICAgICAgICA8cGF0aCBkPSJNIDgxLjAwMDAwNzYyOTM5NDUzIDEwNi4wMDAzMjA0MzQ1NzAzIEMgMTAzLjA1NTkzODcyMDcwMzEgMTA2LjAwMDMyMDQzNDU3MDMgMTIwLjk5OTcyNTM0MTc5NjkgODguMDU2MTA2NTY3MzgyODEgMTIwLjk5OTcyNTM0MTc5NjkgNjUuOTk5NzAyNDUzNjEzMjggQyAxMjAuOTk5NzI1MzQxNzk2OSA0OS40NzM2NTE4ODU5ODYzMyAxMTEuMDcxODE1NDkwNzIyNyAzNC44NjcyNDg1MzUxNTYyNSA5NS43MDcxNzYyMDg0OTYwOSAyOC43ODgxNzU1ODI4ODU3NCBMIDkyLjQ4NTk4NDgwMjI0NjA5IDI3LjUxMzcwMDQ4NTIyOTQ5IEwgOTEuMjExNTA5NzA0NTg5ODQgMjQuMjkyNTA5MDc4OTc5NDkgQyA4NS4xMzI0Mzg2NTk2Njc5NyA4LjkyNzkxNDYxOTQ0NTgwMSA3MC41MjYwNTQzODIzMjQyMiAtMC45OTk5OTAyODQ0NDI5MDE2IDU0LjAwMDAwNzYyOTM5NDUzIC0wLjk5OTk5MDI4NDQ0MjkwMTYgQyAzMS45NDQwNzg0NDU0MzQ1NyAtMC45OTk5OTAyODQ0NDI5MDE2IDE0LjAwMDI5MzczMTY4OTQ1IDE2Ljk0Mzc5NjE1NzgzNjkxIDE0LjAwMDI5MzczMTY4OTQ1IDM4Ljk5OTY5ODYzODkxNjAyIEMgMTQuMDAwMjkzNzMxNjg5NDUgNTUuNTI2MjQ4OTMxODg0NzcgMjMuOTI4MjcwMzM5OTY1ODIgNzAuMTMzMDEwODY0MjU3ODEgMzkuMjkzMDA2ODk2OTcyNjYgNzYuMjEyMTczNDYxOTE0MDYgTCA0Mi41MTQyNDQwNzk1ODk4NCA3Ny40ODY2NzkwNzcxNDg0NCBMIDQzLjc4ODY5NjI4OTA2MjUgODAuNzA3OTE2MjU5NzY1NjIgQyA0OS44Njc2MDMzMDIwMDE5NSA5Ni4wNzI0NjM5ODkyNTc4MSA2NC40NzM5MTUxMDAwOTc2NiAxMDYuMDAwMzIwNDM0NTcwMyA4MS4wMDAwMDc2MjkzOTQ1MyAxMDYuMDAwMzIwNDM0NTcwMyBNIDgxLjAwMDAwNzYyOTM5NDUzIDExNC4wMDAzMjA0MzQ1NzAzIEMgNjAuNzIzMDc5NjgxMzk2NDggMTE0LjAwMDMyMDQzNDU3MDMgNDMuMzgyNjI1NTc5ODMzOTggMTAxLjQyNjc1MDE4MzEwNTUgMzYuMzQ5NzY5NTkyMjg1MTYgODMuNjUxMDg0ODk5OTAyMzQgQyAxOC41NzQ0ODM4NzE0NTk5NiA3Ni42MTgxNzkzMjEyODkwNiA2LjAwMDI5MzI1NDg1MjI5NSA1OS4yNzczMjA4NjE4MTY0MSA2LjAwMDI5MzI1NDg1MjI5NSAzOC45OTk2OTg2Mzg5MTYwMiBDIDYuMDAwMjkzMjU0ODUyMjk1IDEyLjQ5MDIwMDA0MjcyNDYxIDI3LjQ5MDUwNzEyNTg1NDQ5IC04Ljk5OTk5MDQ2MzI1NjgzNiA1NC4wMDAwMDc2MjkzOTQ1MyAtOC45OTk5OTA0NjMyNTY4MzYgQyA3NC4yNzY5MzkzOTIwODk4NCAtOC45OTk5OTA0NjMyNTY4MzYgOTEuNjE3NTUzNzEwOTM3NSAzLjU3NDAwOTY1NjkwNjEyOCA5OC42NTA0MTM1MTMxODM1OSAyMS4zNDkyNzE3NzQyOTE5OSBDIDExNi40MjU2OTczMjY2NjAyIDI4LjM4MjEyOTY2OTE4OTQ1IDEyOC45OTk3MjUzNDE3OTY5IDQ1LjcyMjc3MDY5MDkxNzk3IDEyOC45OTk3MjUzNDE3OTY5IDY1Ljk5OTcwMjQ1MzYxMzI4IEMgMTI4Ljk5OTcyNTM0MTc5NjkgOTIuNTEwMTAxMzE4MzU5MzggMTA3LjUwOTUwNjIyNTU4NTkgMTE0LjAwMDMyMDQzNDU3MDMgODEuMDAwMDA3NjI5Mzk0NTMgMTE0LjAwMDMyMDQzNDU3MDMgWiIgc3Ryb2tlPSJub25lIiBmaWxsPSIjMzMzIi8+JiN4YTsgICAgICA8L2c+JiN4YTsgICAgPC9nPiYjeGE7ICAgIDxwYXRoIGlkPSJCb3VuZGVyIiBkPSJNMCwwSDEzOVYxMzlIMFoiIHRyYW5zZm9ybT0idHJhbnNsYXRlKDM4OSAxNDQpIiBmaWxsPSJub25lIi8+JiN4YTsgIDwvZz4mI3hhOzwvc3ZnPg==;labelBackgroundColor=none;labelBorderColor=none;sketch=0;fontColor=#000000;strokeColor=default;fillColor=#333333;gradientColor=none;" parent="S2MOjZ_E0dFiskpMWZ23-0" vertex="1">
          <mxGeometry x="45" y="25" width="80" height="80" as="geometry" />
        </mxCell>
        <mxCell id="S2MOjZ_E0dFiskpMWZ23-3" value="pt - Degree Finder Page" style="text;html=1;strokeColor=none;fillColor=none;align=center;verticalAlign=middle;whiteSpace=wrap;rounded=0;labelBackgroundColor=none;labelBorderColor=none;sketch=0;fontColor=#000000;" parent="S2MOjZ_E0dFiskpMWZ23-0" vertex="1">
          <mxGeometry width="170" height="30" as="geometry" />
        </mxCell>
        <mxCell id="S2MOjZ_E0dFiskpMWZ23-4" value="" style="group" parent="S2MOjZ_E0dFiskpMWZ23-18" vertex="1" connectable="0">
          <mxGeometry x="460" y="30" width="170" height="129" as="geometry" />
        </mxCell>
        <mxCell id="S2MOjZ_E0dFiskpMWZ23-5" value="&lt;b&gt;Type:&lt;/b&gt;&amp;nbsp;DOM Ready" style="text;html=1;strokeColor=none;fillColor=none;align=center;verticalAlign=middle;whiteSpace=wrap;rounded=0;labelBackgroundColor=none;labelBorderColor=none;sketch=0;fontColor=#000000;" parent="S2MOjZ_E0dFiskpMWZ23-4" vertex="1">
          <mxGeometry x="15" y="100" width="140" height="30" as="geometry" />
        </mxCell>
        <mxCell id="S2MOjZ_E0dFiskpMWZ23-6" value="" style="shape=image;verticalLabelPosition=bottom;verticalAlign=top;imageAspect=0;aspect=fixed;image=data:image/svg+xml,PHN2ZyB4bWxucz0iaHR0cDovL3d3dy53My5vcmcvMjAwMC9zdmciIHdpZHRoPSIxMzkiIGhlaWdodD0iMTM5IiB2aWV3Qm94PSIwIDAgMTM5IDEzOSI+JiN4YTsgIDxnIGlkPSJUcmlnZ2VyIiB0cmFuc2Zvcm09InRyYW5zbGF0ZSgtMzg5IC0xNDQpIj4mI3hhOyAgICA8ZyBpZD0iVHJpZ2dlci0yIiBkYXRhLW5hbWU9IlRyaWdnZXIiIHRyYW5zZm9ybT0idHJhbnNsYXRlKC0yMTEgLTMxMykiPiYjeGE7ICAgICAgPGcgaWQ9IkludGVyc2VjdGlvbiIgdHJhbnNmb3JtPSJ0cmFuc2xhdGUoNjAyIDQ3MykiIGZpbGw9IiMzMzMiPiYjeGE7ICAgICAgICA8cGF0aCBkPSJNIDUzLjk5OTk5NjE4NTMwMjczIDgzLjAwMDMwNTE3NTc4MTI1IEMgNDkuMDAwMjI4ODgxODM1OTQgODMuMDAwMzA1MTc1NzgxMjUgNDQuMTE3MjEwMzg4MTgzNTkgODIuMTc0MTE4MDQxOTkyMTkgMzkuNDU4NzQwMjM0Mzc1IDgwLjU0MjEyMTg4NzIwNzAzIEMgMzcuODI2NjE4MTk0NTgwMDggNzUuODgzMjA5MjI4NTE1NjIgMzcuMDAwMzA4OTkwNDc4NTIgNzAuOTk5Njg3MTk0ODI0MjIgMzcuMDAwMzA4OTkwNDc4NTIgNjUuOTk5NzAyNDUzNjEzMjggQyAzNy4wMDAzMDg5OTA0Nzg1MiA2MC4wNTgwMTM5MTYwMTU2MiAzOC4xNjMwOTM1NjY4OTQ1MyA1NC4yOTYxODgzNTQ0OTIxOSA0MC40NTYzODI3NTE0NjQ4NCA0OC44NzQyNjM3NjM0Mjc3MyBDIDQyLjY3MjI4MzE3MjYwNzQyIDQzLjYzNTI4ODIzODUyNTM5IDQ1Ljg0NTM3MTI0NjMzNzg5IDM4LjkyOTM2MzI1MDczMjQyIDQ5Ljg4NzUxOTgzNjQyNTc4IDM0Ljg4NzIxNDY2MDY0NDUzIEMgNTMuOTI5NjY4NDI2NTEzNjcgMzAuODQ1MDY0MTYzMjA4MDEgNTguNjM1NTgxOTcwMjE0ODQgMjcuNjcxOTc3OTk2ODI2MTcgNjMuODc0NTU3NDk1MTE3MTkgMjUuNDU2MDc3NTc1NjgzNTkgQyA2OS4yOTY0ODU5MDA4Nzg5MSAyMy4xNjI3OTAyOTg0NjE5MSA3NS4wNTgzMTkwOTE3OTY4OCAyMi4wMDAwMDE5MDczNDg2MyA4MC45OTk5OTIzNzA2MDU0NyAyMi4wMDAwMDE5MDczNDg2MyBDIDg1Ljk5OTc3ODc0NzU1ODU5IDIyLjAwMDAwMTkwNzM0ODYzIDkwLjg4MjkwNDA1MjczNDM4IDIyLjgyNjIyNzE4ODExMDM1IDk1LjU0MTQ1MDUwMDQ4ODI4IDI0LjQ1ODI1MDA0NTc3NjM3IEMgOTcuMTczNDg0ODAyMjQ2MDkgMjkuMTE2ODA5ODQ0OTcwNyA5Ny45OTk3MTAwODMwMDc4MSAzMy45OTk5Mjc1MjA3NTE5NSA5Ny45OTk3MTAwODMwMDc4MSAzOC45OTk3MDI0NTM2MTMyOCBDIDk3Ljk5OTcxMDA4MzAwNzgxIDQ0Ljk0MTYxNjA1ODM0OTYxIDk2LjgzNjkwNjQzMzEwNTQ3IDUwLjcwMzYyODU0MDAzOTA2IDk0LjU0MzYxNzI0ODUzNTE2IDU2LjEyNTY5MDQ2MDIwNTA4IEMgOTIuMzI3NzIwNjQyMDg5ODQgNjEuMzY0Nzc2NjExMzI4MTIgODkuMTU0NjE3MzA5NTcwMzEgNjYuMDcwNzkzMTUxODU1NDcgODUuMTEyNDcyNTM0MTc5NjkgNzAuMTEyOTkxMzMzMDA3ODEgQyA4MS4wNzAzMzUzODgxODM1OSA3NC4xNTUxNzQyNTUzNzEwOSA3Ni4zNjQ0MTA0MDAzOTA2MiA3Ny4zMjgzMDA0NzYwNzQyMiA3MS4xMjU0MzQ4NzU0ODgyOCA3OS41NDQyMTIzNDEzMDg1OSBDIDY1LjcwMzUyMTcyODUxNTYyIDgxLjgzNzUwMTUyNTg3ODkxIDU5Ljk0MTY4MDkwODIwMzEyIDgzLjAwMDMwNTE3NTc4MTI1IDUzLjk5OTk5NjE4NTMwMjczIDgzLjAwMDMwNTE3NTc4MTI1IFoiIHN0cm9rZT0ibm9uZSIvPiYjeGE7ICAgICAgICA8cGF0aCBkPSJNIDU0LjAwMDAwNzYyOTM5NDUzIDc5LjAwMDMwNTE3NTc4MTI1IEMgNzYuMDU1OTIzNDYxOTE0MDYgNzkuMDAwMzA1MTc1NzgxMjUgOTMuOTk5NzEwMDgzMDA3ODEgNjEuMDU2MTAyNzUyNjg1NTUgOTMuOTk5NzEwMDgzMDA3ODEgMzguOTk5NzAyNDUzNjEzMjggQyA5My45OTk3MTAwODMwMDc4MSAzNS4xMTIxMjkyMTE0MjU3OCA5My40NTA4OTcyMTY3OTY4OCAzMS4zMDMxMzg3MzI5MTAxNiA5Mi4zNjUwNTg4OTg5MjU3OCAyNy42MzQ2NjA3MjA4MjUyIEMgODguNjk2NTcxMzUwMDk3NjYgMjYuNTQ4ODIwNDk1NjA1NDcgODQuODg3NTczMjQyMTg3NSAyNi4wMDAwMDE5MDczNDg2MyA4MS4wMDAwMDc2MjkzOTQ1MyAyNi4wMDAwMDE5MDczNDg2MyBDIDU4Ljk0NDA5MTc5Njg3NSAyNi4wMDAwMDE5MDczNDg2MyA0MS4wMDAzMDg5OTA0Nzg1MiA0My45NDM3ODY2MjEwOTM3NSA0MS4wMDAzMDg5OTA0Nzg1MiA2NS45OTk3MDI0NTM2MTMyOCBDIDQxLjAwMDMwODk5MDQ3ODUyIDY5Ljg4Nzc0MTA4ODg2NzE5IDQxLjU0OTA1NzAwNjgzNTk0IDczLjY5NjYzMjM4NTI1MzkxIDQyLjYzNTE0MzI4MDAyOTMgNzcuMzY1NzA3Mzk3NDYwOTQgQyA0Ni4zMDM1NjU5NzkwMDM5MSA3OC40NTE1MjI4MjcxNDg0NCA1MC4xMTI0NDU4MzEyOTg4MyA3OS4wMDAzMDUxNzU3ODEyNSA1NC4wMDAwMDc2MjkzOTQ1MyA3OS4wMDAzMDUxNzU3ODEyNSBNIDU0LjAwMDAwNzYyOTM5NDUzIDg3LjAwMDMwNTE3NTc4MTI1IEMgNDcuNzY3NDI1NTM3MTA5MzggODcuMDAwMzA1MTc1NzgxMjUgNDEuODEzNDA3ODk3OTQ5MjIgODUuODEyODA1MTc1NzgxMjUgMzYuMzQ5NzU4MTQ4MTkzMzYgODMuNjUxMDg0ODk5OTAyMzQgQyAzNC4xODgwNTY5NDU4MDA3OCA3OC4xODczMTY4OTQ1MzEyNSAzMy4wMDAzMDg5OTA0Nzg1MiA3Mi4yMzI0ODI5MTAxNTYyNSAzMy4wMDAzMDg5OTA0Nzg1MiA2NS45OTk3MDI0NTM2MTMyOCBDIDMzLjAwMDMwODk5MDQ3ODUyIDM5LjQ5MDIwMzg1NzQyMTg4IDU0LjQ5MDUwOTAzMzIwMzEyIDE4LjAwMDAwMTkwNzM0ODYzIDgxLjAwMDAwNzYyOTM5NDUzIDE4LjAwMDAwMTkwNzM0ODYzIEMgODcuMjMyNTg5NzIxNjc5NjkgMTguMDAwMDAxOTA3MzQ4NjMgOTMuMTg2Nzc1MjA3NTE5NTMgMTkuMTg3NTY4NjY0NTUwNzggOTguNjUwNDIxMTQyNTc4MTIgMjEuMzQ5Mjg1MTI1NzMyNDIgQyAxMDAuODEyMTQxNDE4NDU3IDI2LjgxMjkxOTYxNjY5OTIyIDEwMS45OTk3MTAwODMwMDc4IDMyLjc2NzEyMDM2MTMyODEyIDEwMS45OTk3MTAwODMwMDc4IDM4Ljk5OTcwMjQ1MzYxMzI4IEMgMTAxLjk5OTcxMDA4MzAwNzggNjUuNTEwMTAxMzE4MzU5MzggODAuNTA5NDkwOTY2Nzk2ODggODcuMDAwMzA1MTc1NzgxMjUgNTQuMDAwMDA3NjI5Mzk0NTMgODcuMDAwMzA1MTc1NzgxMjUgWiIgc3Ryb2tlPSJub25lIiBmaWxsPSIjMzMzIi8+JiN4YTsgICAgICA8L2c+JiN4YTsgICAgICA8ZyBpZD0iVW5pb24iIHRyYW5zZm9ybT0idHJhbnNsYXRlKDYwMiA0NzQpIiBmaWxsPSJub25lIj4mI3hhOyAgICAgICAgPHBhdGggZD0iTTM2LjM1LDgzLjY1MWE0OC4wMDgsNDguMDA4LDAsMSwxLDYyLjMtNjIuMyw0OC4wMDgsNDguMDA4LDAsMSwxLTYyLjMsNjIuM1oiIHN0cm9rZT0ibm9uZSIvPiYjeGE7ICAgICAgICA8cGF0aCBkPSJNIDgxLjAwMDAwNzYyOTM5NDUzIDEwNi4wMDAzMjA0MzQ1NzAzIEMgMTAzLjA1NTkzODcyMDcwMzEgMTA2LjAwMDMyMDQzNDU3MDMgMTIwLjk5OTcyNTM0MTc5NjkgODguMDU2MTA2NTY3MzgyODEgMTIwLjk5OTcyNTM0MTc5NjkgNjUuOTk5NzAyNDUzNjEzMjggQyAxMjAuOTk5NzI1MzQxNzk2OSA0OS40NzM2NTE4ODU5ODYzMyAxMTEuMDcxODE1NDkwNzIyNyAzNC44NjcyNDg1MzUxNTYyNSA5NS43MDcxNzYyMDg0OTYwOSAyOC43ODgxNzU1ODI4ODU3NCBMIDkyLjQ4NTk4NDgwMjI0NjA5IDI3LjUxMzcwMDQ4NTIyOTQ5IEwgOTEuMjExNTA5NzA0NTg5ODQgMjQuMjkyNTA5MDc4OTc5NDkgQyA4NS4xMzI0Mzg2NTk2Njc5NyA4LjkyNzkxNDYxOTQ0NTgwMSA3MC41MjYwNTQzODIzMjQyMiAtMC45OTk5OTAyODQ0NDI5MDE2IDU0LjAwMDAwNzYyOTM5NDUzIC0wLjk5OTk5MDI4NDQ0MjkwMTYgQyAzMS45NDQwNzg0NDU0MzQ1NyAtMC45OTk5OTAyODQ0NDI5MDE2IDE0LjAwMDI5MzczMTY4OTQ1IDE2Ljk0Mzc5NjE1NzgzNjkxIDE0LjAwMDI5MzczMTY4OTQ1IDM4Ljk5OTY5ODYzODkxNjAyIEMgMTQuMDAwMjkzNzMxNjg5NDUgNTUuNTI2MjQ4OTMxODg0NzcgMjMuOTI4MjcwMzM5OTY1ODIgNzAuMTMzMDEwODY0MjU3ODEgMzkuMjkzMDA2ODk2OTcyNjYgNzYuMjEyMTczNDYxOTE0MDYgTCA0Mi41MTQyNDQwNzk1ODk4NCA3Ny40ODY2NzkwNzcxNDg0NCBMIDQzLjc4ODY5NjI4OTA2MjUgODAuNzA3OTE2MjU5NzY1NjIgQyA0OS44Njc2MDMzMDIwMDE5NSA5Ni4wNzI0NjM5ODkyNTc4MSA2NC40NzM5MTUxMDAwOTc2NiAxMDYuMDAwMzIwNDM0NTcwMyA4MS4wMDAwMDc2MjkzOTQ1MyAxMDYuMDAwMzIwNDM0NTcwMyBNIDgxLjAwMDAwNzYyOTM5NDUzIDExNC4wMDAzMjA0MzQ1NzAzIEMgNjAuNzIzMDc5NjgxMzk2NDggMTE0LjAwMDMyMDQzNDU3MDMgNDMuMzgyNjI1NTc5ODMzOTggMTAxLjQyNjc1MDE4MzEwNTUgMzYuMzQ5NzY5NTkyMjg1MTYgODMuNjUxMDg0ODk5OTAyMzQgQyAxOC41NzQ0ODM4NzE0NTk5NiA3Ni42MTgxNzkzMjEyODkwNiA2LjAwMDI5MzI1NDg1MjI5NSA1OS4yNzczMjA4NjE4MTY0MSA2LjAwMDI5MzI1NDg1MjI5NSAzOC45OTk2OTg2Mzg5MTYwMiBDIDYuMDAwMjkzMjU0ODUyMjk1IDEyLjQ5MDIwMDA0MjcyNDYxIDI3LjQ5MDUwNzEyNTg1NDQ5IC04Ljk5OTk5MDQ2MzI1NjgzNiA1NC4wMDAwMDc2MjkzOTQ1MyAtOC45OTk5OTA0NjMyNTY4MzYgQyA3NC4yNzY5MzkzOTIwODk4NCAtOC45OTk5OTA0NjMyNTY4MzYgOTEuNjE3NTUzNzEwOTM3NSAzLjU3NDAwOTY1NjkwNjEyOCA5OC42NTA0MTM1MTMxODM1OSAyMS4zNDkyNzE3NzQyOTE5OSBDIDExNi40MjU2OTczMjY2NjAyIDI4LjM4MjEyOTY2OTE4OTQ1IDEyOC45OTk3MjUzNDE3OTY5IDQ1LjcyMjc3MDY5MDkxNzk3IDEyOC45OTk3MjUzNDE3OTY5IDY1Ljk5OTcwMjQ1MzYxMzI4IEMgMTI4Ljk5OTcyNTM0MTc5NjkgOTIuNTEwMTAxMzE4MzU5MzggMTA3LjUwOTUwNjIyNTU4NTkgMTE0LjAwMDMyMDQzNDU3MDMgODEuMDAwMDA3NjI5Mzk0NTMgMTE0LjAwMDMyMDQzNDU3MDMgWiIgc3Ryb2tlPSJub25lIiBmaWxsPSIjMzMzIi8+JiN4YTsgICAgICA8L2c+JiN4YTsgICAgPC9nPiYjeGE7ICAgIDxwYXRoIGlkPSJCb3VuZGVyIiBkPSJNMCwwSDEzOVYxMzlIMFoiIHRyYW5zZm9ybT0idHJhbnNsYXRlKDM4OSAxNDQpIiBmaWxsPSJub25lIi8+JiN4YTsgIDwvZz4mI3hhOzwvc3ZnPg==;labelBackgroundColor=none;labelBorderColor=none;sketch=0;fontColor=#000000;strokeColor=default;fillColor=#333333;gradientColor=none;" parent="S2MOjZ_E0dFiskpMWZ23-4" vertex="1">
          <mxGeometry x="45" y="25" width="80" height="80" as="geometry" />
        </mxCell>
        <mxCell id="S2MOjZ_E0dFiskpMWZ23-7" value="elt - Home Page Header" style="text;html=1;strokeColor=none;fillColor=none;align=center;verticalAlign=middle;whiteSpace=wrap;rounded=0;labelBackgroundColor=none;labelBorderColor=none;sketch=0;fontColor=#000000;" parent="S2MOjZ_E0dFiskpMWZ23-4" vertex="1">
          <mxGeometry width="170" height="30" as="geometry" />
        </mxCell>
        <mxCell id="S2MOjZ_E0dFiskpMWZ23-8" value="" style="group" parent="S2MOjZ_E0dFiskpMWZ23-18" vertex="1" connectable="0">
          <mxGeometry x="670" y="30" width="170" height="129" as="geometry" />
        </mxCell>
        <mxCell id="S2MOjZ_E0dFiskpMWZ23-9" value="&lt;b&gt;...............&lt;/b&gt;" style="text;html=1;strokeColor=none;fillColor=none;align=center;verticalAlign=middle;whiteSpace=wrap;rounded=0;labelBackgroundColor=none;labelBorderColor=none;sketch=0;fontColor=#000000;" parent="S2MOjZ_E0dFiskpMWZ23-8" vertex="1">
          <mxGeometry x="15" y="100" width="140" height="30" as="geometry" />
        </mxCell>
        <mxCell id="S2MOjZ_E0dFiskpMWZ23-10" value="" style="shape=image;verticalLabelPosition=bottom;verticalAlign=top;imageAspect=0;aspect=fixed;image=data:image/svg+xml,PHN2ZyB4bWxucz0iaHR0cDovL3d3dy53My5vcmcvMjAwMC9zdmciIHdpZHRoPSIxMzkiIGhlaWdodD0iMTM5IiB2aWV3Qm94PSIwIDAgMTM5IDEzOSI+JiN4YTsgIDxnIGlkPSJUcmlnZ2VyIiB0cmFuc2Zvcm09InRyYW5zbGF0ZSgtMzg5IC0xNDQpIj4mI3hhOyAgICA8ZyBpZD0iVHJpZ2dlci0yIiBkYXRhLW5hbWU9IlRyaWdnZXIiIHRyYW5zZm9ybT0idHJhbnNsYXRlKC0yMTEgLTMxMykiPiYjeGE7ICAgICAgPGcgaWQ9IkludGVyc2VjdGlvbiIgdHJhbnNmb3JtPSJ0cmFuc2xhdGUoNjAyIDQ3MykiIGZpbGw9IiMzMzMiPiYjeGE7ICAgICAgICA8cGF0aCBkPSJNIDUzLjk5OTk5NjE4NTMwMjczIDgzLjAwMDMwNTE3NTc4MTI1IEMgNDkuMDAwMjI4ODgxODM1OTQgODMuMDAwMzA1MTc1NzgxMjUgNDQuMTE3MjEwMzg4MTgzNTkgODIuMTc0MTE4MDQxOTkyMTkgMzkuNDU4NzQwMjM0Mzc1IDgwLjU0MjEyMTg4NzIwNzAzIEMgMzcuODI2NjE4MTk0NTgwMDggNzUuODgzMjA5MjI4NTE1NjIgMzcuMDAwMzA4OTkwNDc4NTIgNzAuOTk5Njg3MTk0ODI0MjIgMzcuMDAwMzA4OTkwNDc4NTIgNjUuOTk5NzAyNDUzNjEzMjggQyAzNy4wMDAzMDg5OTA0Nzg1MiA2MC4wNTgwMTM5MTYwMTU2MiAzOC4xNjMwOTM1NjY4OTQ1MyA1NC4yOTYxODgzNTQ0OTIxOSA0MC40NTYzODI3NTE0NjQ4NCA0OC44NzQyNjM3NjM0Mjc3MyBDIDQyLjY3MjI4MzE3MjYwNzQyIDQzLjYzNTI4ODIzODUyNTM5IDQ1Ljg0NTM3MTI0NjMzNzg5IDM4LjkyOTM2MzI1MDczMjQyIDQ5Ljg4NzUxOTgzNjQyNTc4IDM0Ljg4NzIxNDY2MDY0NDUzIEMgNTMuOTI5NjY4NDI2NTEzNjcgMzAuODQ1MDY0MTYzMjA4MDEgNTguNjM1NTgxOTcwMjE0ODQgMjcuNjcxOTc3OTk2ODI2MTcgNjMuODc0NTU3NDk1MTE3MTkgMjUuNDU2MDc3NTc1NjgzNTkgQyA2OS4yOTY0ODU5MDA4Nzg5MSAyMy4xNjI3OTAyOTg0NjE5MSA3NS4wNTgzMTkwOTE3OTY4OCAyMi4wMDAwMDE5MDczNDg2MyA4MC45OTk5OTIzNzA2MDU0NyAyMi4wMDAwMDE5MDczNDg2MyBDIDg1Ljk5OTc3ODc0NzU1ODU5IDIyLjAwMDAwMTkwNzM0ODYzIDkwLjg4MjkwNDA1MjczNDM4IDIyLjgyNjIyNzE4ODExMDM1IDk1LjU0MTQ1MDUwMDQ4ODI4IDI0LjQ1ODI1MDA0NTc3NjM3IEMgOTcuMTczNDg0ODAyMjQ2MDkgMjkuMTE2ODA5ODQ0OTcwNyA5Ny45OTk3MTAwODMwMDc4MSAzMy45OTk5Mjc1MjA3NTE5NSA5Ny45OTk3MTAwODMwMDc4MSAzOC45OTk3MDI0NTM2MTMyOCBDIDk3Ljk5OTcxMDA4MzAwNzgxIDQ0Ljk0MTYxNjA1ODM0OTYxIDk2LjgzNjkwNjQzMzEwNTQ3IDUwLjcwMzYyODU0MDAzOTA2IDk0LjU0MzYxNzI0ODUzNTE2IDU2LjEyNTY5MDQ2MDIwNTA4IEMgOTIuMzI3NzIwNjQyMDg5ODQgNjEuMzY0Nzc2NjExMzI4MTIgODkuMTU0NjE3MzA5NTcwMzEgNjYuMDcwNzkzMTUxODU1NDcgODUuMTEyNDcyNTM0MTc5NjkgNzAuMTEyOTkxMzMzMDA3ODEgQyA4MS4wNzAzMzUzODgxODM1OSA3NC4xNTUxNzQyNTUzNzEwOSA3Ni4zNjQ0MTA0MDAzOTA2MiA3Ny4zMjgzMDA0NzYwNzQyMiA3MS4xMjU0MzQ4NzU0ODgyOCA3OS41NDQyMTIzNDEzMDg1OSBDIDY1LjcwMzUyMTcyODUxNTYyIDgxLjgzNzUwMTUyNTg3ODkxIDU5Ljk0MTY4MDkwODIwMzEyIDgzLjAwMDMwNTE3NTc4MTI1IDUzLjk5OTk5NjE4NTMwMjczIDgzLjAwMDMwNTE3NTc4MTI1IFoiIHN0cm9rZT0ibm9uZSIvPiYjeGE7ICAgICAgICA8cGF0aCBkPSJNIDU0LjAwMDAwNzYyOTM5NDUzIDc5LjAwMDMwNTE3NTc4MTI1IEMgNzYuMDU1OTIzNDYxOTE0MDYgNzkuMDAwMzA1MTc1NzgxMjUgOTMuOTk5NzEwMDgzMDA3ODEgNjEuMDU2MTAyNzUyNjg1NTUgOTMuOTk5NzEwMDgzMDA3ODEgMzguOTk5NzAyNDUzNjEzMjggQyA5My45OTk3MTAwODMwMDc4MSAzNS4xMTIxMjkyMTE0MjU3OCA5My40NTA4OTcyMTY3OTY4OCAzMS4zMDMxMzg3MzI5MTAxNiA5Mi4zNjUwNTg4OTg5MjU3OCAyNy42MzQ2NjA3MjA4MjUyIEMgODguNjk2NTcxMzUwMDk3NjYgMjYuNTQ4ODIwNDk1NjA1NDcgODQuODg3NTczMjQyMTg3NSAyNi4wMDAwMDE5MDczNDg2MyA4MS4wMDAwMDc2MjkzOTQ1MyAyNi4wMDAwMDE5MDczNDg2MyBDIDU4Ljk0NDA5MTc5Njg3NSAyNi4wMDAwMDE5MDczNDg2MyA0MS4wMDAzMDg5OTA0Nzg1MiA0My45NDM3ODY2MjEwOTM3NSA0MS4wMDAzMDg5OTA0Nzg1MiA2NS45OTk3MDI0NTM2MTMyOCBDIDQxLjAwMDMwODk5MDQ3ODUyIDY5Ljg4Nzc0MTA4ODg2NzE5IDQxLjU0OTA1NzAwNjgzNTk0IDczLjY5NjYzMjM4NTI1MzkxIDQyLjYzNTE0MzI4MDAyOTMgNzcuMzY1NzA3Mzk3NDYwOTQgQyA0Ni4zMDM1NjU5NzkwMDM5MSA3OC40NTE1MjI4MjcxNDg0NCA1MC4xMTI0NDU4MzEyOTg4MyA3OS4wMDAzMDUxNzU3ODEyNSA1NC4wMDAwMDc2MjkzOTQ1MyA3OS4wMDAzMDUxNzU3ODEyNSBNIDU0LjAwMDAwNzYyOTM5NDUzIDg3LjAwMDMwNTE3NTc4MTI1IEMgNDcuNzY3NDI1NTM3MTA5MzggODcuMDAwMzA1MTc1NzgxMjUgNDEuODEzNDA3ODk3OTQ5MjIgODUuODEyODA1MTc1NzgxMjUgMzYuMzQ5NzU4MTQ4MTkzMzYgODMuNjUxMDg0ODk5OTAyMzQgQyAzNC4xODgwNTY5NDU4MDA3OCA3OC4xODczMTY4OTQ1MzEyNSAzMy4wMDAzMDg5OTA0Nzg1MiA3Mi4yMzI0ODI5MTAxNTYyNSAzMy4wMDAzMDg5OTA0Nzg1MiA2NS45OTk3MDI0NTM2MTMyOCBDIDMzLjAwMDMwODk5MDQ3ODUyIDM5LjQ5MDIwMzg1NzQyMTg4IDU0LjQ5MDUwOTAzMzIwMzEyIDE4LjAwMDAwMTkwNzM0ODYzIDgxLjAwMDAwNzYyOTM5NDUzIDE4LjAwMDAwMTkwNzM0ODYzIEMgODcuMjMyNTg5NzIxNjc5NjkgMTguMDAwMDAxOTA3MzQ4NjMgOTMuMTg2Nzc1MjA3NTE5NTMgMTkuMTg3NTY4NjY0NTUwNzggOTguNjUwNDIxMTQyNTc4MTIgMjEuMzQ5Mjg1MTI1NzMyNDIgQyAxMDAuODEyMTQxNDE4NDU3IDI2LjgxMjkxOTYxNjY5OTIyIDEwMS45OTk3MTAwODMwMDc4IDMyLjc2NzEyMDM2MTMyODEyIDEwMS45OTk3MTAwODMwMDc4IDM4Ljk5OTcwMjQ1MzYxMzI4IEMgMTAxLjk5OTcxMDA4MzAwNzggNjUuNTEwMTAxMzE4MzU5MzggODAuNTA5NDkwOTY2Nzk2ODggODcuMDAwMzA1MTc1NzgxMjUgNTQuMDAwMDA3NjI5Mzk0NTMgODcuMDAwMzA1MTc1NzgxMjUgWiIgc3Ryb2tlPSJub25lIiBmaWxsPSIjMzMzIi8+JiN4YTsgICAgICA8L2c+JiN4YTsgICAgICA8ZyBpZD0iVW5pb24iIHRyYW5zZm9ybT0idHJhbnNsYXRlKDYwMiA0NzQpIiBmaWxsPSJub25lIj4mI3hhOyAgICAgICAgPHBhdGggZD0iTTM2LjM1LDgzLjY1MWE0OC4wMDgsNDguMDA4LDAsMSwxLDYyLjMtNjIuMyw0OC4wMDgsNDguMDA4LDAsMSwxLTYyLjMsNjIuM1oiIHN0cm9rZT0ibm9uZSIvPiYjeGE7ICAgICAgICA8cGF0aCBkPSJNIDgxLjAwMDAwNzYyOTM5NDUzIDEwNi4wMDAzMjA0MzQ1NzAzIEMgMTAzLjA1NTkzODcyMDcwMzEgMTA2LjAwMDMyMDQzNDU3MDMgMTIwLjk5OTcyNTM0MTc5NjkgODguMDU2MTA2NTY3MzgyODEgMTIwLjk5OTcyNTM0MTc5NjkgNjUuOTk5NzAyNDUzNjEzMjggQyAxMjAuOTk5NzI1MzQxNzk2OSA0OS40NzM2NTE4ODU5ODYzMyAxMTEuMDcxODE1NDkwNzIyNyAzNC44NjcyNDg1MzUxNTYyNSA5NS43MDcxNzYyMDg0OTYwOSAyOC43ODgxNzU1ODI4ODU3NCBMIDkyLjQ4NTk4NDgwMjI0NjA5IDI3LjUxMzcwMDQ4NTIyOTQ5IEwgOTEuMjExNTA5NzA0NTg5ODQgMjQuMjkyNTA5MDc4OTc5NDkgQyA4NS4xMzI0Mzg2NTk2Njc5NyA4LjkyNzkxNDYxOTQ0NTgwMSA3MC41MjYwNTQzODIzMjQyMiAtMC45OTk5OTAyODQ0NDI5MDE2IDU0LjAwMDAwNzYyOTM5NDUzIC0wLjk5OTk5MDI4NDQ0MjkwMTYgQyAzMS45NDQwNzg0NDU0MzQ1NyAtMC45OTk5OTAyODQ0NDI5MDE2IDE0LjAwMDI5MzczMTY4OTQ1IDE2Ljk0Mzc5NjE1NzgzNjkxIDE0LjAwMDI5MzczMTY4OTQ1IDM4Ljk5OTY5ODYzODkxNjAyIEMgMTQuMDAwMjkzNzMxNjg5NDUgNTUuNTI2MjQ4OTMxODg0NzcgMjMuOTI4MjcwMzM5OTY1ODIgNzAuMTMzMDEwODY0MjU3ODEgMzkuMjkzMDA2ODk2OTcyNjYgNzYuMjEyMTczNDYxOTE0MDYgTCA0Mi41MTQyNDQwNzk1ODk4NCA3Ny40ODY2NzkwNzcxNDg0NCBMIDQzLjc4ODY5NjI4OTA2MjUgODAuNzA3OTE2MjU5NzY1NjIgQyA0OS44Njc2MDMzMDIwMDE5NSA5Ni4wNzI0NjM5ODkyNTc4MSA2NC40NzM5MTUxMDAwOTc2NiAxMDYuMDAwMzIwNDM0NTcwMyA4MS4wMDAwMDc2MjkzOTQ1MyAxMDYuMDAwMzIwNDM0NTcwMyBNIDgxLjAwMDAwNzYyOTM5NDUzIDExNC4wMDAzMjA0MzQ1NzAzIEMgNjAuNzIzMDc5NjgxMzk2NDggMTE0LjAwMDMyMDQzNDU3MDMgNDMuMzgyNjI1NTc5ODMzOTggMTAxLjQyNjc1MDE4MzEwNTUgMzYuMzQ5NzY5NTkyMjg1MTYgODMuNjUxMDg0ODk5OTAyMzQgQyAxOC41NzQ0ODM4NzE0NTk5NiA3Ni42MTgxNzkzMjEyODkwNiA2LjAwMDI5MzI1NDg1MjI5NSA1OS4yNzczMjA4NjE4MTY0MSA2LjAwMDI5MzI1NDg1MjI5NSAzOC45OTk2OTg2Mzg5MTYwMiBDIDYuMDAwMjkzMjU0ODUyMjk1IDEyLjQ5MDIwMDA0MjcyNDYxIDI3LjQ5MDUwNzEyNTg1NDQ5IC04Ljk5OTk5MDQ2MzI1NjgzNiA1NC4wMDAwMDc2MjkzOTQ1MyAtOC45OTk5OTA0NjMyNTY4MzYgQyA3NC4yNzY5MzkzOTIwODk4NCAtOC45OTk5OTA0NjMyNTY4MzYgOTEuNjE3NTUzNzEwOTM3NSAzLjU3NDAwOTY1NjkwNjEyOCA5OC42NTA0MTM1MTMxODM1OSAyMS4zNDkyNzE3NzQyOTE5OSBDIDExNi40MjU2OTczMjY2NjAyIDI4LjM4MjEyOTY2OTE4OTQ1IDEyOC45OTk3MjUzNDE3OTY5IDQ1LjcyMjc3MDY5MDkxNzk3IDEyOC45OTk3MjUzNDE3OTY5IDY1Ljk5OTcwMjQ1MzYxMzI4IEMgMTI4Ljk5OTcyNTM0MTc5NjkgOTIuNTEwMTAxMzE4MzU5MzggMTA3LjUwOTUwNjIyNTU4NTkgMTE0LjAwMDMyMDQzNDU3MDMgODEuMDAwMDA3NjI5Mzk0NTMgMTE0LjAwMDMyMDQzNDU3MDMgWiIgc3Ryb2tlPSJub25lIiBmaWxsPSIjMzMzIi8+JiN4YTsgICAgICA8L2c+JiN4YTsgICAgPC9nPiYjeGE7ICAgIDxwYXRoIGlkPSJCb3VuZGVyIiBkPSJNMCwwSDEzOVYxMzlIMFoiIHRyYW5zZm9ybT0idHJhbnNsYXRlKDM4OSAxNDQpIiBmaWxsPSJub25lIi8+JiN4YTsgIDwvZz4mI3hhOzwvc3ZnPg==;labelBackgroundColor=none;labelBorderColor=none;sketch=0;fontColor=#000000;strokeColor=default;fillColor=#333333;gradientColor=none;" parent="S2MOjZ_E0dFiskpMWZ23-8" vertex="1">
          <mxGeometry x="45" y="25" width="80" height="80" as="geometry" />
        </mxCell>
        <mxCell id="S2MOjZ_E0dFiskpMWZ23-11" value="&lt;b&gt;............&lt;/b&gt;" style="text;html=1;strokeColor=none;fillColor=none;align=center;verticalAlign=middle;whiteSpace=wrap;rounded=0;labelBackgroundColor=none;labelBorderColor=none;sketch=0;fontColor=#000000;" parent="S2MOjZ_E0dFiskpMWZ23-8" vertex="1">
          <mxGeometry width="170" height="30" as="geometry" />
        </mxCell>
        <mxCell id="S2MOjZ_E0dFiskpMWZ23-13" value="" style="group" parent="S2MOjZ_E0dFiskpMWZ23-18" vertex="1" connectable="0">
          <mxGeometry x="24" y="30" width="170" height="129" as="geometry" />
        </mxCell>
        <mxCell id="S2MOjZ_E0dFiskpMWZ23-14" value="&lt;b&gt;Type:&lt;/b&gt; Window Loaded" style="text;html=1;strokeColor=none;fillColor=none;align=center;verticalAlign=middle;whiteSpace=wrap;rounded=0;labelBackgroundColor=none;labelBorderColor=none;sketch=0;fontColor=#000000;" parent="S2MOjZ_E0dFiskpMWZ23-13" vertex="1">
          <mxGeometry x="15" y="100" width="140" height="30" as="geometry" />
        </mxCell>
        <mxCell id="S2MOjZ_E0dFiskpMWZ23-15" value="" style="shape=image;verticalLabelPosition=bottom;verticalAlign=top;imageAspect=0;aspect=fixed;image=data:image/svg+xml,PHN2ZyB4bWxucz0iaHR0cDovL3d3dy53My5vcmcvMjAwMC9zdmciIHdpZHRoPSIxMzkiIGhlaWdodD0iMTM5IiB2aWV3Qm94PSIwIDAgMTM5IDEzOSI+JiN4YTsgIDxnIGlkPSJUcmlnZ2VyIiB0cmFuc2Zvcm09InRyYW5zbGF0ZSgtMzg5IC0xNDQpIj4mI3hhOyAgICA8ZyBpZD0iVHJpZ2dlci0yIiBkYXRhLW5hbWU9IlRyaWdnZXIiIHRyYW5zZm9ybT0idHJhbnNsYXRlKC0yMTEgLTMxMykiPiYjeGE7ICAgICAgPGcgaWQ9IkludGVyc2VjdGlvbiIgdHJhbnNmb3JtPSJ0cmFuc2xhdGUoNjAyIDQ3MykiIGZpbGw9IiMzMzMiPiYjeGE7ICAgICAgICA8cGF0aCBkPSJNIDUzLjk5OTk5NjE4NTMwMjczIDgzLjAwMDMwNTE3NTc4MTI1IEMgNDkuMDAwMjI4ODgxODM1OTQgODMuMDAwMzA1MTc1NzgxMjUgNDQuMTE3MjEwMzg4MTgzNTkgODIuMTc0MTE4MDQxOTkyMTkgMzkuNDU4NzQwMjM0Mzc1IDgwLjU0MjEyMTg4NzIwNzAzIEMgMzcuODI2NjE4MTk0NTgwMDggNzUuODgzMjA5MjI4NTE1NjIgMzcuMDAwMzA4OTkwNDc4NTIgNzAuOTk5Njg3MTk0ODI0MjIgMzcuMDAwMzA4OTkwNDc4NTIgNjUuOTk5NzAyNDUzNjEzMjggQyAzNy4wMDAzMDg5OTA0Nzg1MiA2MC4wNTgwMTM5MTYwMTU2MiAzOC4xNjMwOTM1NjY4OTQ1MyA1NC4yOTYxODgzNTQ0OTIxOSA0MC40NTYzODI3NTE0NjQ4NCA0OC44NzQyNjM3NjM0Mjc3MyBDIDQyLjY3MjI4MzE3MjYwNzQyIDQzLjYzNTI4ODIzODUyNTM5IDQ1Ljg0NTM3MTI0NjMzNzg5IDM4LjkyOTM2MzI1MDczMjQyIDQ5Ljg4NzUxOTgzNjQyNTc4IDM0Ljg4NzIxNDY2MDY0NDUzIEMgNTMuOTI5NjY4NDI2NTEzNjcgMzAuODQ1MDY0MTYzMjA4MDEgNTguNjM1NTgxOTcwMjE0ODQgMjcuNjcxOTc3OTk2ODI2MTcgNjMuODc0NTU3NDk1MTE3MTkgMjUuNDU2MDc3NTc1NjgzNTkgQyA2OS4yOTY0ODU5MDA4Nzg5MSAyMy4xNjI3OTAyOTg0NjE5MSA3NS4wNTgzMTkwOTE3OTY4OCAyMi4wMDAwMDE5MDczNDg2MyA4MC45OTk5OTIzNzA2MDU0NyAyMi4wMDAwMDE5MDczNDg2MyBDIDg1Ljk5OTc3ODc0NzU1ODU5IDIyLjAwMDAwMTkwNzM0ODYzIDkwLjg4MjkwNDA1MjczNDM4IDIyLjgyNjIyNzE4ODExMDM1IDk1LjU0MTQ1MDUwMDQ4ODI4IDI0LjQ1ODI1MDA0NTc3NjM3IEMgOTcuMTczNDg0ODAyMjQ2MDkgMjkuMTE2ODA5ODQ0OTcwNyA5Ny45OTk3MTAwODMwMDc4MSAzMy45OTk5Mjc1MjA3NTE5NSA5Ny45OTk3MTAwODMwMDc4MSAzOC45OTk3MDI0NTM2MTMyOCBDIDk3Ljk5OTcxMDA4MzAwNzgxIDQ0Ljk0MTYxNjA1ODM0OTYxIDk2LjgzNjkwNjQzMzEwNTQ3IDUwLjcwMzYyODU0MDAzOTA2IDk0LjU0MzYxNzI0ODUzNTE2IDU2LjEyNTY5MDQ2MDIwNTA4IEMgOTIuMzI3NzIwNjQyMDg5ODQgNjEuMzY0Nzc2NjExMzI4MTIgODkuMTU0NjE3MzA5NTcwMzEgNjYuMDcwNzkzMTUxODU1NDcgODUuMTEyNDcyNTM0MTc5NjkgNzAuMTEyOTkxMzMzMDA3ODEgQyA4MS4wNzAzMzUzODgxODM1OSA3NC4xNTUxNzQyNTUzNzEwOSA3Ni4zNjQ0MTA0MDAzOTA2MiA3Ny4zMjgzMDA0NzYwNzQyMiA3MS4xMjU0MzQ4NzU0ODgyOCA3OS41NDQyMTIzNDEzMDg1OSBDIDY1LjcwMzUyMTcyODUxNTYyIDgxLjgzNzUwMTUyNTg3ODkxIDU5Ljk0MTY4MDkwODIwMzEyIDgzLjAwMDMwNTE3NTc4MTI1IDUzLjk5OTk5NjE4NTMwMjczIDgzLjAwMDMwNTE3NTc4MTI1IFoiIHN0cm9rZT0ibm9uZSIvPiYjeGE7ICAgICAgICA8cGF0aCBkPSJNIDU0LjAwMDAwNzYyOTM5NDUzIDc5LjAwMDMwNTE3NTc4MTI1IEMgNzYuMDU1OTIzNDYxOTE0MDYgNzkuMDAwMzA1MTc1NzgxMjUgOTMuOTk5NzEwMDgzMDA3ODEgNjEuMDU2MTAyNzUyNjg1NTUgOTMuOTk5NzEwMDgzMDA3ODEgMzguOTk5NzAyNDUzNjEzMjggQyA5My45OTk3MTAwODMwMDc4MSAzNS4xMTIxMjkyMTE0MjU3OCA5My40NTA4OTcyMTY3OTY4OCAzMS4zMDMxMzg3MzI5MTAxNiA5Mi4zNjUwNTg4OTg5MjU3OCAyNy42MzQ2NjA3MjA4MjUyIEMgODguNjk2NTcxMzUwMDk3NjYgMjYuNTQ4ODIwNDk1NjA1NDcgODQuODg3NTczMjQyMTg3NSAyNi4wMDAwMDE5MDczNDg2MyA4MS4wMDAwMDc2MjkzOTQ1MyAyNi4wMDAwMDE5MDczNDg2MyBDIDU4Ljk0NDA5MTc5Njg3NSAyNi4wMDAwMDE5MDczNDg2MyA0MS4wMDAzMDg5OTA0Nzg1MiA0My45NDM3ODY2MjEwOTM3NSA0MS4wMDAzMDg5OTA0Nzg1MiA2NS45OTk3MDI0NTM2MTMyOCBDIDQxLjAwMDMwODk5MDQ3ODUyIDY5Ljg4Nzc0MTA4ODg2NzE5IDQxLjU0OTA1NzAwNjgzNTk0IDczLjY5NjYzMjM4NTI1MzkxIDQyLjYzNTE0MzI4MDAyOTMgNzcuMzY1NzA3Mzk3NDYwOTQgQyA0Ni4zMDM1NjU5NzkwMDM5MSA3OC40NTE1MjI4MjcxNDg0NCA1MC4xMTI0NDU4MzEyOTg4MyA3OS4wMDAzMDUxNzU3ODEyNSA1NC4wMDAwMDc2MjkzOTQ1MyA3OS4wMDAzMDUxNzU3ODEyNSBNIDU0LjAwMDAwNzYyOTM5NDUzIDg3LjAwMDMwNTE3NTc4MTI1IEMgNDcuNzY3NDI1NTM3MTA5MzggODcuMDAwMzA1MTc1NzgxMjUgNDEuODEzNDA3ODk3OTQ5MjIgODUuODEyODA1MTc1NzgxMjUgMzYuMzQ5NzU4MTQ4MTkzMzYgODMuNjUxMDg0ODk5OTAyMzQgQyAzNC4xODgwNTY5NDU4MDA3OCA3OC4xODczMTY4OTQ1MzEyNSAzMy4wMDAzMDg5OTA0Nzg1MiA3Mi4yMzI0ODI5MTAxNTYyNSAzMy4wMDAzMDg5OTA0Nzg1MiA2NS45OTk3MDI0NTM2MTMyOCBDIDMzLjAwMDMwODk5MDQ3ODUyIDM5LjQ5MDIwMzg1NzQyMTg4IDU0LjQ5MDUwOTAzMzIwMzEyIDE4LjAwMDAwMTkwNzM0ODYzIDgxLjAwMDAwNzYyOTM5NDUzIDE4LjAwMDAwMTkwNzM0ODYzIEMgODcuMjMyNTg5NzIxNjc5NjkgMTguMDAwMDAxOTA3MzQ4NjMgOTMuMTg2Nzc1MjA3NTE5NTMgMTkuMTg3NTY4NjY0NTUwNzggOTguNjUwNDIxMTQyNTc4MTIgMjEuMzQ5Mjg1MTI1NzMyNDIgQyAxMDAuODEyMTQxNDE4NDU3IDI2LjgxMjkxOTYxNjY5OTIyIDEwMS45OTk3MTAwODMwMDc4IDMyLjc2NzEyMDM2MTMyODEyIDEwMS45OTk3MTAwODMwMDc4IDM4Ljk5OTcwMjQ1MzYxMzI4IEMgMTAxLjk5OTcxMDA4MzAwNzggNjUuNTEwMTAxMzE4MzU5MzggODAuNTA5NDkwOTY2Nzk2ODggODcuMDAwMzA1MTc1NzgxMjUgNTQuMDAwMDA3NjI5Mzk0NTMgODcuMDAwMzA1MTc1NzgxMjUgWiIgc3Ryb2tlPSJub25lIiBmaWxsPSIjMzMzIi8+JiN4YTsgICAgICA8L2c+JiN4YTsgICAgICA8ZyBpZD0iVW5pb24iIHRyYW5zZm9ybT0idHJhbnNsYXRlKDYwMiA0NzQpIiBmaWxsPSJub25lIj4mI3hhOyAgICAgICAgPHBhdGggZD0iTTM2LjM1LDgzLjY1MWE0OC4wMDgsNDguMDA4LDAsMSwxLDYyLjMtNjIuMyw0OC4wMDgsNDguMDA4LDAsMSwxLTYyLjMsNjIuM1oiIHN0cm9rZT0ibm9uZSIvPiYjeGE7ICAgICAgICA8cGF0aCBkPSJNIDgxLjAwMDAwNzYyOTM5NDUzIDEwNi4wMDAzMjA0MzQ1NzAzIEMgMTAzLjA1NTkzODcyMDcwMzEgMTA2LjAwMDMyMDQzNDU3MDMgMTIwLjk5OTcyNTM0MTc5NjkgODguMDU2MTA2NTY3MzgyODEgMTIwLjk5OTcyNTM0MTc5NjkgNjUuOTk5NzAyNDUzNjEzMjggQyAxMjAuOTk5NzI1MzQxNzk2OSA0OS40NzM2NTE4ODU5ODYzMyAxMTEuMDcxODE1NDkwNzIyNyAzNC44NjcyNDg1MzUxNTYyNSA5NS43MDcxNzYyMDg0OTYwOSAyOC43ODgxNzU1ODI4ODU3NCBMIDkyLjQ4NTk4NDgwMjI0NjA5IDI3LjUxMzcwMDQ4NTIyOTQ5IEwgOTEuMjExNTA5NzA0NTg5ODQgMjQuMjkyNTA5MDc4OTc5NDkgQyA4NS4xMzI0Mzg2NTk2Njc5NyA4LjkyNzkxNDYxOTQ0NTgwMSA3MC41MjYwNTQzODIzMjQyMiAtMC45OTk5OTAyODQ0NDI5MDE2IDU0LjAwMDAwNzYyOTM5NDUzIC0wLjk5OTk5MDI4NDQ0MjkwMTYgQyAzMS45NDQwNzg0NDU0MzQ1NyAtMC45OTk5OTAyODQ0NDI5MDE2IDE0LjAwMDI5MzczMTY4OTQ1IDE2Ljk0Mzc5NjE1NzgzNjkxIDE0LjAwMDI5MzczMTY4OTQ1IDM4Ljk5OTY5ODYzODkxNjAyIEMgMTQuMDAwMjkzNzMxNjg5NDUgNTUuNTI2MjQ4OTMxODg0NzcgMjMuOTI4MjcwMzM5OTY1ODIgNzAuMTMzMDEwODY0MjU3ODEgMzkuMjkzMDA2ODk2OTcyNjYgNzYuMjEyMTczNDYxOTE0MDYgTCA0Mi41MTQyNDQwNzk1ODk4NCA3Ny40ODY2NzkwNzcxNDg0NCBMIDQzLjc4ODY5NjI4OTA2MjUgODAuNzA3OTE2MjU5NzY1NjIgQyA0OS44Njc2MDMzMDIwMDE5NSA5Ni4wNzI0NjM5ODkyNTc4MSA2NC40NzM5MTUxMDAwOTc2NiAxMDYuMDAwMzIwNDM0NTcwMyA4MS4wMDAwMDc2MjkzOTQ1MyAxMDYuMDAwMzIwNDM0NTcwMyBNIDgxLjAwMDAwNzYyOTM5NDUzIDExNC4wMDAzMjA0MzQ1NzAzIEMgNjAuNzIzMDc5NjgxMzk2NDggMTE0LjAwMDMyMDQzNDU3MDMgNDMuMzgyNjI1NTc5ODMzOTggMTAxLjQyNjc1MDE4MzEwNTUgMzYuMzQ5NzY5NTkyMjg1MTYgODMuNjUxMDg0ODk5OTAyMzQgQyAxOC41NzQ0ODM4NzE0NTk5NiA3Ni42MTgxNzkzMjEyODkwNiA2LjAwMDI5MzI1NDg1MjI5NSA1OS4yNzczMjA4NjE4MTY0MSA2LjAwMDI5MzI1NDg1MjI5NSAzOC45OTk2OTg2Mzg5MTYwMiBDIDYuMDAwMjkzMjU0ODUyMjk1IDEyLjQ5MDIwMDA0MjcyNDYxIDI3LjQ5MDUwNzEyNTg1NDQ5IC04Ljk5OTk5MDQ2MzI1NjgzNiA1NC4wMDAwMDc2MjkzOTQ1MyAtOC45OTk5OTA0NjMyNTY4MzYgQyA3NC4yNzY5MzkzOTIwODk4NCAtOC45OTk5OTA0NjMyNTY4MzYgOTEuNjE3NTUzNzEwOTM3NSAzLjU3NDAwOTY1NjkwNjEyOCA5OC42NTA0MTM1MTMxODM1OSAyMS4zNDkyNzE3NzQyOTE5OSBDIDExNi40MjU2OTczMjY2NjAyIDI4LjM4MjEyOTY2OTE4OTQ1IDEyOC45OTk3MjUzNDE3OTY5IDQ1LjcyMjc3MDY5MDkxNzk3IDEyOC45OTk3MjUzNDE3OTY5IDY1Ljk5OTcwMjQ1MzYxMzI4IEMgMTI4Ljk5OTcyNTM0MTc5NjkgOTIuNTEwMTAxMzE4MzU5MzggMTA3LjUwOTUwNjIyNTU4NTkgMTE0LjAwMDMyMDQzNDU3MDMgODEuMDAwMDA3NjI5Mzk0NTMgMTE0LjAwMDMyMDQzNDU3MDMgWiIgc3Ryb2tlPSJub25lIiBmaWxsPSIjMzMzIi8+JiN4YTsgICAgICA8L2c+JiN4YTsgICAgPC9nPiYjeGE7ICAgIDxwYXRoIGlkPSJCb3VuZGVyIiBkPSJNMCwwSDEzOVYxMzlIMFoiIHRyYW5zZm9ybT0idHJhbnNsYXRlKDM4OSAxNDQpIiBmaWxsPSJub25lIi8+JiN4YTsgIDwvZz4mI3hhOzwvc3ZnPg==;labelBackgroundColor=none;labelBorderColor=none;sketch=0;fontColor=#000000;strokeColor=default;fillColor=#333333;gradientColor=none;" parent="S2MOjZ_E0dFiskpMWZ23-13" vertex="1">
          <mxGeometry x="45" y="25" width="80" height="80" as="geometry" />
        </mxCell>
        <mxCell id="S2MOjZ_E0dFiskpMWZ23-16" value="pt - All Pages" style="text;html=1;strokeColor=none;fillColor=none;align=center;verticalAlign=middle;whiteSpace=wrap;rounded=0;labelBackgroundColor=none;labelBorderColor=none;sketch=0;fontColor=#000000;" parent="S2MOjZ_E0dFiskpMWZ23-13" vertex="1">
          <mxGeometry width="170" height="30" as="geometry" />
        </mxCell>
      </root>
    </mxGraphModel>
  </diagram>
  <diagram id="MnFfkccgEoaFlZj0t8Pe" name="HEKIHE-3581">
    <mxGraphModel dx="2125" dy="750" grid="1" gridSize="10" guides="1" tooltips="1" connect="1" arrows="1" fold="1" page="1" pageScale="1" pageWidth="827" pageHeight="1169" math="0" shadow="0">
      <root>
        <mxCell id="y4GAqFiVdhMxvugA_l28-0" />
        <mxCell id="y4GAqFiVdhMxvugA_l28-1" parent="y4GAqFiVdhMxvugA_l28-0" />
        <mxCell id="6komnG2e2GPlpOnymxOn-1" value="" style="group" vertex="1" connectable="0" parent="y4GAqFiVdhMxvugA_l28-1">
          <mxGeometry x="-280" y="310" width="170" height="129" as="geometry" />
        </mxCell>
        <mxCell id="6komnG2e2GPlpOnymxOn-2" value="&lt;b&gt;Type:&lt;/b&gt; Window Loaded" style="text;html=1;strokeColor=none;fillColor=none;align=center;verticalAlign=middle;whiteSpace=wrap;rounded=0;labelBackgroundColor=none;labelBorderColor=none;sketch=0;fontColor=#000000;" vertex="1" parent="6komnG2e2GPlpOnymxOn-1">
          <mxGeometry x="15" y="100" width="140" height="30" as="geometry" />
        </mxCell>
        <mxCell id="6komnG2e2GPlpOnymxOn-3" value="" style="shape=image;verticalLabelPosition=bottom;verticalAlign=top;imageAspect=0;aspect=fixed;image=data:image/svg+xml,PHN2ZyB4bWxucz0iaHR0cDovL3d3dy53My5vcmcvMjAwMC9zdmciIHdpZHRoPSIxMzkiIGhlaWdodD0iMTM5IiB2aWV3Qm94PSIwIDAgMTM5IDEzOSI+JiN4YTsgIDxnIGlkPSJUcmlnZ2VyIiB0cmFuc2Zvcm09InRyYW5zbGF0ZSgtMzg5IC0xNDQpIj4mI3hhOyAgICA8ZyBpZD0iVHJpZ2dlci0yIiBkYXRhLW5hbWU9IlRyaWdnZXIiIHRyYW5zZm9ybT0idHJhbnNsYXRlKC0yMTEgLTMxMykiPiYjeGE7ICAgICAgPGcgaWQ9IkludGVyc2VjdGlvbiIgdHJhbnNmb3JtPSJ0cmFuc2xhdGUoNjAyIDQ3MykiIGZpbGw9IiMzMzMiPiYjeGE7ICAgICAgICA8cGF0aCBkPSJNIDUzLjk5OTk5NjE4NTMwMjczIDgzLjAwMDMwNTE3NTc4MTI1IEMgNDkuMDAwMjI4ODgxODM1OTQgODMuMDAwMzA1MTc1NzgxMjUgNDQuMTE3MjEwMzg4MTgzNTkgODIuMTc0MTE4MDQxOTkyMTkgMzkuNDU4NzQwMjM0Mzc1IDgwLjU0MjEyMTg4NzIwNzAzIEMgMzcuODI2NjE4MTk0NTgwMDggNzUuODgzMjA5MjI4NTE1NjIgMzcuMDAwMzA4OTkwNDc4NTIgNzAuOTk5Njg3MTk0ODI0MjIgMzcuMDAwMzA4OTkwNDc4NTIgNjUuOTk5NzAyNDUzNjEzMjggQyAzNy4wMDAzMDg5OTA0Nzg1MiA2MC4wNTgwMTM5MTYwMTU2MiAzOC4xNjMwOTM1NjY4OTQ1MyA1NC4yOTYxODgzNTQ0OTIxOSA0MC40NTYzODI3NTE0NjQ4NCA0OC44NzQyNjM3NjM0Mjc3MyBDIDQyLjY3MjI4MzE3MjYwNzQyIDQzLjYzNTI4ODIzODUyNTM5IDQ1Ljg0NTM3MTI0NjMzNzg5IDM4LjkyOTM2MzI1MDczMjQyIDQ5Ljg4NzUxOTgzNjQyNTc4IDM0Ljg4NzIxNDY2MDY0NDUzIEMgNTMuOTI5NjY4NDI2NTEzNjcgMzAuODQ1MDY0MTYzMjA4MDEgNTguNjM1NTgxOTcwMjE0ODQgMjcuNjcxOTc3OTk2ODI2MTcgNjMuODc0NTU3NDk1MTE3MTkgMjUuNDU2MDc3NTc1NjgzNTkgQyA2OS4yOTY0ODU5MDA4Nzg5MSAyMy4xNjI3OTAyOTg0NjE5MSA3NS4wNTgzMTkwOTE3OTY4OCAyMi4wMDAwMDE5MDczNDg2MyA4MC45OTk5OTIzNzA2MDU0NyAyMi4wMDAwMDE5MDczNDg2MyBDIDg1Ljk5OTc3ODc0NzU1ODU5IDIyLjAwMDAwMTkwNzM0ODYzIDkwLjg4MjkwNDA1MjczNDM4IDIyLjgyNjIyNzE4ODExMDM1IDk1LjU0MTQ1MDUwMDQ4ODI4IDI0LjQ1ODI1MDA0NTc3NjM3IEMgOTcuMTczNDg0ODAyMjQ2MDkgMjkuMTE2ODA5ODQ0OTcwNyA5Ny45OTk3MTAwODMwMDc4MSAzMy45OTk5Mjc1MjA3NTE5NSA5Ny45OTk3MTAwODMwMDc4MSAzOC45OTk3MDI0NTM2MTMyOCBDIDk3Ljk5OTcxMDA4MzAwNzgxIDQ0Ljk0MTYxNjA1ODM0OTYxIDk2LjgzNjkwNjQzMzEwNTQ3IDUwLjcwMzYyODU0MDAzOTA2IDk0LjU0MzYxNzI0ODUzNTE2IDU2LjEyNTY5MDQ2MDIwNTA4IEMgOTIuMzI3NzIwNjQyMDg5ODQgNjEuMzY0Nzc2NjExMzI4MTIgODkuMTU0NjE3MzA5NTcwMzEgNjYuMDcwNzkzMTUxODU1NDcgODUuMTEyNDcyNTM0MTc5NjkgNzAuMTEyOTkxMzMzMDA3ODEgQyA4MS4wNzAzMzUzODgxODM1OSA3NC4xNTUxNzQyNTUzNzEwOSA3Ni4zNjQ0MTA0MDAzOTA2MiA3Ny4zMjgzMDA0NzYwNzQyMiA3MS4xMjU0MzQ4NzU0ODgyOCA3OS41NDQyMTIzNDEzMDg1OSBDIDY1LjcwMzUyMTcyODUxNTYyIDgxLjgzNzUwMTUyNTg3ODkxIDU5Ljk0MTY4MDkwODIwMzEyIDgzLjAwMDMwNTE3NTc4MTI1IDUzLjk5OTk5NjE4NTMwMjczIDgzLjAwMDMwNTE3NTc4MTI1IFoiIHN0cm9rZT0ibm9uZSIvPiYjeGE7ICAgICAgICA8cGF0aCBkPSJNIDU0LjAwMDAwNzYyOTM5NDUzIDc5LjAwMDMwNTE3NTc4MTI1IEMgNzYuMDU1OTIzNDYxOTE0MDYgNzkuMDAwMzA1MTc1NzgxMjUgOTMuOTk5NzEwMDgzMDA3ODEgNjEuMDU2MTAyNzUyNjg1NTUgOTMuOTk5NzEwMDgzMDA3ODEgMzguOTk5NzAyNDUzNjEzMjggQyA5My45OTk3MTAwODMwMDc4MSAzNS4xMTIxMjkyMTE0MjU3OCA5My40NTA4OTcyMTY3OTY4OCAzMS4zMDMxMzg3MzI5MTAxNiA5Mi4zNjUwNTg4OTg5MjU3OCAyNy42MzQ2NjA3MjA4MjUyIEMgODguNjk2NTcxMzUwMDk3NjYgMjYuNTQ4ODIwNDk1NjA1NDcgODQuODg3NTczMjQyMTg3NSAyNi4wMDAwMDE5MDczNDg2MyA4MS4wMDAwMDc2MjkzOTQ1MyAyNi4wMDAwMDE5MDczNDg2MyBDIDU4Ljk0NDA5MTc5Njg3NSAyNi4wMDAwMDE5MDczNDg2MyA0MS4wMDAzMDg5OTA0Nzg1MiA0My45NDM3ODY2MjEwOTM3NSA0MS4wMDAzMDg5OTA0Nzg1MiA2NS45OTk3MDI0NTM2MTMyOCBDIDQxLjAwMDMwODk5MDQ3ODUyIDY5Ljg4Nzc0MTA4ODg2NzE5IDQxLjU0OTA1NzAwNjgzNTk0IDczLjY5NjYzMjM4NTI1MzkxIDQyLjYzNTE0MzI4MDAyOTMgNzcuMzY1NzA3Mzk3NDYwOTQgQyA0Ni4zMDM1NjU5NzkwMDM5MSA3OC40NTE1MjI4MjcxNDg0NCA1MC4xMTI0NDU4MzEyOTg4MyA3OS4wMDAzMDUxNzU3ODEyNSA1NC4wMDAwMDc2MjkzOTQ1MyA3OS4wMDAzMDUxNzU3ODEyNSBNIDU0LjAwMDAwNzYyOTM5NDUzIDg3LjAwMDMwNTE3NTc4MTI1IEMgNDcuNzY3NDI1NTM3MTA5MzggODcuMDAwMzA1MTc1NzgxMjUgNDEuODEzNDA3ODk3OTQ5MjIgODUuODEyODA1MTc1NzgxMjUgMzYuMzQ5NzU4MTQ4MTkzMzYgODMuNjUxMDg0ODk5OTAyMzQgQyAzNC4xODgwNTY5NDU4MDA3OCA3OC4xODczMTY4OTQ1MzEyNSAzMy4wMDAzMDg5OTA0Nzg1MiA3Mi4yMzI0ODI5MTAxNTYyNSAzMy4wMDAzMDg5OTA0Nzg1MiA2NS45OTk3MDI0NTM2MTMyOCBDIDMzLjAwMDMwODk5MDQ3ODUyIDM5LjQ5MDIwMzg1NzQyMTg4IDU0LjQ5MDUwOTAzMzIwMzEyIDE4LjAwMDAwMTkwNzM0ODYzIDgxLjAwMDAwNzYyOTM5NDUzIDE4LjAwMDAwMTkwNzM0ODYzIEMgODcuMjMyNTg5NzIxNjc5NjkgMTguMDAwMDAxOTA3MzQ4NjMgOTMuMTg2Nzc1MjA3NTE5NTMgMTkuMTg3NTY4NjY0NTUwNzggOTguNjUwNDIxMTQyNTc4MTIgMjEuMzQ5Mjg1MTI1NzMyNDIgQyAxMDAuODEyMTQxNDE4NDU3IDI2LjgxMjkxOTYxNjY5OTIyIDEwMS45OTk3MTAwODMwMDc4IDMyLjc2NzEyMDM2MTMyODEyIDEwMS45OTk3MTAwODMwMDc4IDM4Ljk5OTcwMjQ1MzYxMzI4IEMgMTAxLjk5OTcxMDA4MzAwNzggNjUuNTEwMTAxMzE4MzU5MzggODAuNTA5NDkwOTY2Nzk2ODggODcuMDAwMzA1MTc1NzgxMjUgNTQuMDAwMDA3NjI5Mzk0NTMgODcuMDAwMzA1MTc1NzgxMjUgWiIgc3Ryb2tlPSJub25lIiBmaWxsPSIjMzMzIi8+JiN4YTsgICAgICA8L2c+JiN4YTsgICAgICA8ZyBpZD0iVW5pb24iIHRyYW5zZm9ybT0idHJhbnNsYXRlKDYwMiA0NzQpIiBmaWxsPSJub25lIj4mI3hhOyAgICAgICAgPHBhdGggZD0iTTM2LjM1LDgzLjY1MWE0OC4wMDgsNDguMDA4LDAsMSwxLDYyLjMtNjIuMyw0OC4wMDgsNDguMDA4LDAsMSwxLTYyLjMsNjIuM1oiIHN0cm9rZT0ibm9uZSIvPiYjeGE7ICAgICAgICA8cGF0aCBkPSJNIDgxLjAwMDAwNzYyOTM5NDUzIDEwNi4wMDAzMjA0MzQ1NzAzIEMgMTAzLjA1NTkzODcyMDcwMzEgMTA2LjAwMDMyMDQzNDU3MDMgMTIwLjk5OTcyNTM0MTc5NjkgODguMDU2MTA2NTY3MzgyODEgMTIwLjk5OTcyNTM0MTc5NjkgNjUuOTk5NzAyNDUzNjEzMjggQyAxMjAuOTk5NzI1MzQxNzk2OSA0OS40NzM2NTE4ODU5ODYzMyAxMTEuMDcxODE1NDkwNzIyNyAzNC44NjcyNDg1MzUxNTYyNSA5NS43MDcxNzYyMDg0OTYwOSAyOC43ODgxNzU1ODI4ODU3NCBMIDkyLjQ4NTk4NDgwMjI0NjA5IDI3LjUxMzcwMDQ4NTIyOTQ5IEwgOTEuMjExNTA5NzA0NTg5ODQgMjQuMjkyNTA5MDc4OTc5NDkgQyA4NS4xMzI0Mzg2NTk2Njc5NyA4LjkyNzkxNDYxOTQ0NTgwMSA3MC41MjYwNTQzODIzMjQyMiAtMC45OTk5OTAyODQ0NDI5MDE2IDU0LjAwMDAwNzYyOTM5NDUzIC0wLjk5OTk5MDI4NDQ0MjkwMTYgQyAzMS45NDQwNzg0NDU0MzQ1NyAtMC45OTk5OTAyODQ0NDI5MDE2IDE0LjAwMDI5MzczMTY4OTQ1IDE2Ljk0Mzc5NjE1NzgzNjkxIDE0LjAwMDI5MzczMTY4OTQ1IDM4Ljk5OTY5ODYzODkxNjAyIEMgMTQuMDAwMjkzNzMxNjg5NDUgNTUuNTI2MjQ4OTMxODg0NzcgMjMuOTI4MjcwMzM5OTY1ODIgNzAuMTMzMDEwODY0MjU3ODEgMzkuMjkzMDA2ODk2OTcyNjYgNzYuMjEyMTczNDYxOTE0MDYgTCA0Mi41MTQyNDQwNzk1ODk4NCA3Ny40ODY2NzkwNzcxNDg0NCBMIDQzLjc4ODY5NjI4OTA2MjUgODAuNzA3OTE2MjU5NzY1NjIgQyA0OS44Njc2MDMzMDIwMDE5NSA5Ni4wNzI0NjM5ODkyNTc4MSA2NC40NzM5MTUxMDAwOTc2NiAxMDYuMDAwMzIwNDM0NTcwMyA4MS4wMDAwMDc2MjkzOTQ1MyAxMDYuMDAwMzIwNDM0NTcwMyBNIDgxLjAwMDAwNzYyOTM5NDUzIDExNC4wMDAzMjA0MzQ1NzAzIEMgNjAuNzIzMDc5NjgxMzk2NDggMTE0LjAwMDMyMDQzNDU3MDMgNDMuMzgyNjI1NTc5ODMzOTggMTAxLjQyNjc1MDE4MzEwNTUgMzYuMzQ5NzY5NTkyMjg1MTYgODMuNjUxMDg0ODk5OTAyMzQgQyAxOC41NzQ0ODM4NzE0NTk5NiA3Ni42MTgxNzkzMjEyODkwNiA2LjAwMDI5MzI1NDg1MjI5NSA1OS4yNzczMjA4NjE4MTY0MSA2LjAwMDI5MzI1NDg1MjI5NSAzOC45OTk2OTg2Mzg5MTYwMiBDIDYuMDAwMjkzMjU0ODUyMjk1IDEyLjQ5MDIwMDA0MjcyNDYxIDI3LjQ5MDUwNzEyNTg1NDQ5IC04Ljk5OTk5MDQ2MzI1NjgzNiA1NC4wMDAwMDc2MjkzOTQ1MyAtOC45OTk5OTA0NjMyNTY4MzYgQyA3NC4yNzY5MzkzOTIwODk4NCAtOC45OTk5OTA0NjMyNTY4MzYgOTEuNjE3NTUzNzEwOTM3NSAzLjU3NDAwOTY1NjkwNjEyOCA5OC42NTA0MTM1MTMxODM1OSAyMS4zNDkyNzE3NzQyOTE5OSBDIDExNi40MjU2OTczMjY2NjAyIDI4LjM4MjEyOTY2OTE4OTQ1IDEyOC45OTk3MjUzNDE3OTY5IDQ1LjcyMjc3MDY5MDkxNzk3IDEyOC45OTk3MjUzNDE3OTY5IDY1Ljk5OTcwMjQ1MzYxMzI4IEMgMTI4Ljk5OTcyNTM0MTc5NjkgOTIuNTEwMTAxMzE4MzU5MzggMTA3LjUwOTUwNjIyNTU4NTkgMTE0LjAwMDMyMDQzNDU3MDMgODEuMDAwMDA3NjI5Mzk0NTMgMTE0LjAwMDMyMDQzNDU3MDMgWiIgc3Ryb2tlPSJub25lIiBmaWxsPSIjMzMzIi8+JiN4YTsgICAgICA8L2c+JiN4YTsgICAgPC9nPiYjeGE7ICAgIDxwYXRoIGlkPSJCb3VuZGVyIiBkPSJNMCwwSDEzOVYxMzlIMFoiIHRyYW5zZm9ybT0idHJhbnNsYXRlKDM4OSAxNDQpIiBmaWxsPSJub25lIi8+JiN4YTsgIDwvZz4mI3hhOzwvc3ZnPg==;labelBackgroundColor=none;labelBorderColor=none;sketch=0;fontColor=#000000;strokeColor=default;fillColor=#333333;gradientColor=none;" vertex="1" parent="6komnG2e2GPlpOnymxOn-1">
          <mxGeometry x="45" y="25" width="80" height="80" as="geometry" />
        </mxCell>
        <mxCell id="6komnG2e2GPlpOnymxOn-4" value="Window Loaded" style="text;html=1;strokeColor=none;fillColor=none;align=center;verticalAlign=middle;whiteSpace=wrap;rounded=0;labelBackgroundColor=none;labelBorderColor=none;sketch=0;fontColor=#000000;" vertex="1" parent="6komnG2e2GPlpOnymxOn-1">
          <mxGeometry width="170" height="30" as="geometry" />
        </mxCell>
        <mxCell id="6komnG2e2GPlpOnymxOn-5" value="" style="group" vertex="1" connectable="0" parent="y4GAqFiVdhMxvugA_l28-1">
          <mxGeometry x="-40" y="310" width="180" height="130" as="geometry" />
        </mxCell>
        <mxCell id="6komnG2e2GPlpOnymxOn-6" value="&lt;b&gt;Type:&lt;/b&gt; Custom HTML" style="text;html=1;strokeColor=none;fillColor=none;align=center;verticalAlign=middle;whiteSpace=wrap;rounded=0;sketch=1;" vertex="1" parent="6komnG2e2GPlpOnymxOn-5">
          <mxGeometry y="100" width="180" height="30" as="geometry" />
        </mxCell>
        <mxCell id="6komnG2e2GPlpOnymxOn-7" value="Download - PDF and ZIP&amp;nbsp;- Event Listener" style="text;html=1;strokeColor=none;fillColor=none;align=center;verticalAlign=middle;whiteSpace=wrap;rounded=0;sketch=1;" vertex="1" parent="6komnG2e2GPlpOnymxOn-5">
          <mxGeometry x="10" width="160" height="30" as="geometry" />
        </mxCell>
        <mxCell id="6komnG2e2GPlpOnymxOn-8" value="" style="shape=image;verticalLabelPosition=bottom;verticalAlign=top;imageAspect=0;aspect=fixed;image=data:image/svg+xml,PHN2ZyB4bWxucz0iaHR0cDovL3d3dy53My5vcmcvMjAwMC9zdmciIHdpZHRoPSIxMzkiIGhlaWdodD0iMTM5IiB2aWV3Qm94PSIwIDAgMTM5IDEzOSI+JiN4YTsgIDxnIGlkPSJHVE0iIHRyYW5zZm9ybT0idHJhbnNsYXRlKC02NzIgLTgwKSI+JiN4YTsgICAgPGcgaWQ9IkdUTS0yIiBkYXRhLW5hbWU9IkdUTSIgdHJhbnNmb3JtPSJ0cmFuc2xhdGUoNjc5Ljk5NyA4OC4wMDIpIj4mI3hhOyAgICAgIDxwYXRoIGlkPSJQYXRoXzEiIGRhdGEtbmFtZT0iUGF0aCAxIiBkPSJNNzIuMTMsMTE4LjIyLDUwLjgsOTYuODZsNDUuODMtNDYuMywyMS43MiwyMS43Mkw3Mi4xMywxMTguMjJaIiB0cmFuc2Zvcm09InRyYW5zbGF0ZSgwLjEzMyAwLjEwOCkiIGZpbGw9IiM4YWI0ZjgiLz4mI3hhOyAgICAgIDxwYXRoIGlkPSJQYXRoXzIiIGRhdGEtbmFtZT0iUGF0aCAyIiBkPSJNNzIuMjksMjYuMjUxLDUwLjU2LDQuNSw0LjUsNTAuNmExNS4zNzUsMTUuMzc1LDAsMCwwLDAsMjEuNzMxaDBsNDYuMDYsNDYuMSwyMS4zMS0yMS40MkwzNy4wNyw2MS41WiIgdHJhbnNmb3JtPSJ0cmFuc2xhdGUoMCAwKSIgZmlsbD0iIzQyODVmNCIvPiYjeGE7ICAgICAgPHBhdGggaWQ9IlBhdGhfMyIgZGF0YS1uYW1lPSJQYXRoIDMiIGQ9Ik0xMTguMzUsNTAuNTYsNzIuMjksNC41QTE1LjM2MiwxNS4zNjIsMCwxLDAsNTAuNTYsMjYuMjJMOTYuNjUsNzIuMjhhMTUuMzU5LDE1LjM1OSwwLDEsMCwyMS43MjEtMjEuNzIxWiIgdHJhbnNmb3JtPSJ0cmFuc2xhdGUoMC4xMzMpIiBmaWxsPSIjOGFiNGY4Ii8+JiN4YTsgICAgICA8cGF0aCBpZD0iUGF0aF80IiBkYXRhLW5hbWU9IlBhdGggNCIgZD0iTTc2LjQ4LDEwNy42NmExNS4yMywxNS4yMywwLDEsMC0xNS4yMiwxNS4yMywxNS4yMywxNS4yMywwLDAsMCwxNS4yMi0xNS4yM1oiIHRyYW5zZm9ybT0idHJhbnNsYXRlKDAuMDY2IDAuMTA4KSIgZmlsbD0iIzI0NmZkYiIvPiYjeGE7ICAgIDwvZz4mI3hhOyAgICA8cmVjdCBpZD0iQm91bmRlciIgd2lkdGg9IjEzOSIgaGVpZ2h0PSIxMzkiIHRyYW5zZm9ybT0idHJhbnNsYXRlKDY3MiA4MCkiIGZpbGw9Im5vbmUiLz4mI3hhOyAgPC9nPiYjeGE7PC9zdmc+;labelBackgroundColor=none;labelBorderColor=none;sketch=0;fontColor=#000000;strokeColor=default;fillColor=#333333;gradientColor=none;" vertex="1" parent="6komnG2e2GPlpOnymxOn-5">
          <mxGeometry x="50" y="25" width="80" height="80" as="geometry" />
        </mxCell>
        <mxCell id="6komnG2e2GPlpOnymxOn-9" value="" style="group" vertex="1" connectable="0" parent="y4GAqFiVdhMxvugA_l28-1">
          <mxGeometry x="827" y="55" width="130" height="104.5" as="geometry" />
        </mxCell>
        <mxCell id="6komnG2e2GPlpOnymxOn-10" value="Google Analytics" style="text;html=1;strokeColor=none;fillColor=none;align=center;verticalAlign=middle;whiteSpace=wrap;rounded=0;labelBackgroundColor=none;labelBorderColor=none;sketch=0;fontColor=#000000;" vertex="1" parent="6komnG2e2GPlpOnymxOn-9">
          <mxGeometry y="74.5" width="130" height="30" as="geometry" />
        </mxCell>
        <mxCell id="6komnG2e2GPlpOnymxOn-11" value="" style="shape=image;verticalLabelPosition=bottom;verticalAlign=top;imageAspect=0;aspect=fixed;image=data:image/svg+xml,PHN2ZyB4bWxucz0iaHR0cDovL3d3dy53My5vcmcvMjAwMC9zdmciIHdpZHRoPSIxMjQuODQ5OTc1NTg1OTM3NSIgaGVpZ2h0PSIxMzkiIHZpZXdCb3g9IjAgMCAxMjQuODQ5OTc1NTg1OTM3NSAxMzkiPiYjeGE7ICA8ZyBpZD0iR0EiIHRyYW5zZm9ybT0idHJhbnNsYXRlKC0xMDQ4IC0yMDgpIj4mI3hhOyAgICA8cmVjdCBpZD0iQm91bmRlciIgd2lkdGg9IjEyNC44NSIgaGVpZ2h0PSIxMzkiIHRyYW5zZm9ybT0idHJhbnNsYXRlKDEwNDggMjA4KSIgZmlsbD0ibm9uZSIvPiYjeGE7ICAgIDxnIGlkPSJHQS0yIiBkYXRhLW5hbWU9IkdBIiB0cmFuc2Zvcm09InRyYW5zbGF0ZSg0NDYgMTU3KSI+JiN4YTsgICAgICA8Y2lyY2xlIGlkPSJFbGxpcHNlXzUiIGRhdGEtbmFtZT0iRWxsaXBzZSA1IiBjeD0iMTQiIGN5PSIxNCIgcj0iMTQiIHRyYW5zZm9ybT0idHJhbnNsYXRlKDYxMCAxNTIpIiBmaWxsPSIjZTM3NDAwIi8+JiN4YTsgICAgICA8cmVjdCBpZD0iUmVjdGFuZ2xlXzIiIGRhdGEtbmFtZT0iUmVjdGFuZ2xlIDIiIHdpZHRoPSIyOCIgaGVpZ2h0PSI2OS44NTYiIHJ4PSIxNCIgdHJhbnNmb3JtPSJ0cmFuc2xhdGUoNjUwLjU0NSAxMTAuMzE2KSIgZmlsbD0iI2UzNzQwMCIvPiYjeGE7ICAgICAgPHJlY3QgaWQ9IlJlY3RhbmdsZV8zIiBkYXRhLW5hbWU9IlJlY3RhbmdsZSAzIiB3aWR0aD0iMjgiIGhlaWdodD0iMTIxLjIzNyIgcng9IjE0IiB0cmFuc2Zvcm09InRyYW5zbGF0ZSg2OTAuOTQ4IDU5KSIgZmlsbD0iI2Y5YWIwMCIvPiYjeGE7ICAgIDwvZz4mI3hhOyAgPC9nPiYjeGE7PC9zdmc+;labelBackgroundColor=none;labelBorderColor=none;sketch=0;fontColor=#000000;strokeColor=default;fillColor=#333333;gradientColor=none;" vertex="1" parent="6komnG2e2GPlpOnymxOn-9">
          <mxGeometry x="29.02999999999986" width="71.94" height="80" as="geometry" />
        </mxCell>
        <mxCell id="6komnG2e2GPlpOnymxOn-12" value="" style="group" vertex="1" connectable="0" parent="y4GAqFiVdhMxvugA_l28-1">
          <mxGeometry x="540" y="50" width="180" height="130" as="geometry" />
        </mxCell>
        <mxCell id="6komnG2e2GPlpOnymxOn-13" value="&lt;b&gt;Type:&lt;/b&gt;&amp;nbsp;Universal Analytics" style="text;html=1;strokeColor=none;fillColor=none;align=center;verticalAlign=middle;whiteSpace=wrap;rounded=0;sketch=1;" vertex="1" parent="6komnG2e2GPlpOnymxOn-12">
          <mxGeometry y="100" width="180" height="30" as="geometry" />
        </mxCell>
        <mxCell id="6komnG2e2GPlpOnymxOn-14" value="Download - PDF and ZIP - Cross Domain GA" style="text;html=1;strokeColor=none;fillColor=none;align=center;verticalAlign=middle;whiteSpace=wrap;rounded=0;sketch=1;" vertex="1" parent="6komnG2e2GPlpOnymxOn-12">
          <mxGeometry x="10" width="160" height="30" as="geometry" />
        </mxCell>
        <mxCell id="6komnG2e2GPlpOnymxOn-15" value="" style="shape=image;verticalLabelPosition=bottom;verticalAlign=top;imageAspect=0;aspect=fixed;image=data:image/svg+xml,PHN2ZyB4bWxucz0iaHR0cDovL3d3dy53My5vcmcvMjAwMC9zdmciIHdpZHRoPSIxMzkiIGhlaWdodD0iMTM5IiB2aWV3Qm94PSIwIDAgMTM5IDEzOSI+JiN4YTsgIDxnIGlkPSJHVE0iIHRyYW5zZm9ybT0idHJhbnNsYXRlKC02NzIgLTgwKSI+JiN4YTsgICAgPGcgaWQ9IkdUTS0yIiBkYXRhLW5hbWU9IkdUTSIgdHJhbnNmb3JtPSJ0cmFuc2xhdGUoNjc5Ljk5NyA4OC4wMDIpIj4mI3hhOyAgICAgIDxwYXRoIGlkPSJQYXRoXzEiIGRhdGEtbmFtZT0iUGF0aCAxIiBkPSJNNzIuMTMsMTE4LjIyLDUwLjgsOTYuODZsNDUuODMtNDYuMywyMS43MiwyMS43Mkw3Mi4xMywxMTguMjJaIiB0cmFuc2Zvcm09InRyYW5zbGF0ZSgwLjEzMyAwLjEwOCkiIGZpbGw9IiM4YWI0ZjgiLz4mI3hhOyAgICAgIDxwYXRoIGlkPSJQYXRoXzIiIGRhdGEtbmFtZT0iUGF0aCAyIiBkPSJNNzIuMjksMjYuMjUxLDUwLjU2LDQuNSw0LjUsNTAuNmExNS4zNzUsMTUuMzc1LDAsMCwwLDAsMjEuNzMxaDBsNDYuMDYsNDYuMSwyMS4zMS0yMS40MkwzNy4wNyw2MS41WiIgdHJhbnNmb3JtPSJ0cmFuc2xhdGUoMCAwKSIgZmlsbD0iIzQyODVmNCIvPiYjeGE7ICAgICAgPHBhdGggaWQ9IlBhdGhfMyIgZGF0YS1uYW1lPSJQYXRoIDMiIGQ9Ik0xMTguMzUsNTAuNTYsNzIuMjksNC41QTE1LjM2MiwxNS4zNjIsMCwxLDAsNTAuNTYsMjYuMjJMOTYuNjUsNzIuMjhhMTUuMzU5LDE1LjM1OSwwLDEsMCwyMS43MjEtMjEuNzIxWiIgdHJhbnNmb3JtPSJ0cmFuc2xhdGUoMC4xMzMpIiBmaWxsPSIjOGFiNGY4Ii8+JiN4YTsgICAgICA8cGF0aCBpZD0iUGF0aF80IiBkYXRhLW5hbWU9IlBhdGggNCIgZD0iTTc2LjQ4LDEwNy42NmExNS4yMywxNS4yMywwLDEsMC0xNS4yMiwxNS4yMywxNS4yMywxNS4yMywwLDAsMCwxNS4yMi0xNS4yM1oiIHRyYW5zZm9ybT0idHJhbnNsYXRlKDAuMDY2IDAuMTA4KSIgZmlsbD0iIzI0NmZkYiIvPiYjeGE7ICAgIDwvZz4mI3hhOyAgICA8cmVjdCBpZD0iQm91bmRlciIgd2lkdGg9IjEzOSIgaGVpZ2h0PSIxMzkiIHRyYW5zZm9ybT0idHJhbnNsYXRlKDY3MiA4MCkiIGZpbGw9Im5vbmUiLz4mI3hhOyAgPC9nPiYjeGE7PC9zdmc+;labelBackgroundColor=none;labelBorderColor=none;sketch=0;fontColor=#000000;strokeColor=default;fillColor=#333333;gradientColor=none;" vertex="1" parent="6komnG2e2GPlpOnymxOn-12">
          <mxGeometry x="50" y="25" width="80" height="80" as="geometry" />
        </mxCell>
        <mxCell id="6komnG2e2GPlpOnymxOn-16" value="" style="group" vertex="1" connectable="0" parent="y4GAqFiVdhMxvugA_l28-1">
          <mxGeometry x="540" y="310" width="180" height="130" as="geometry" />
        </mxCell>
        <mxCell id="6komnG2e2GPlpOnymxOn-17" value="&lt;b&gt;Type:&lt;/b&gt;&amp;nbsp;Universal Analytics" style="text;html=1;strokeColor=none;fillColor=none;align=center;verticalAlign=middle;whiteSpace=wrap;rounded=0;sketch=1;" vertex="1" parent="6komnG2e2GPlpOnymxOn-16">
          <mxGeometry y="100" width="180" height="30" as="geometry" />
        </mxCell>
        <mxCell id="6komnG2e2GPlpOnymxOn-18" value="Download - PDF and ZIP - Download Area GA" style="text;html=1;strokeColor=none;fillColor=none;align=center;verticalAlign=middle;whiteSpace=wrap;rounded=0;sketch=1;" vertex="1" parent="6komnG2e2GPlpOnymxOn-16">
          <mxGeometry x="10" width="160" height="30" as="geometry" />
        </mxCell>
        <mxCell id="6komnG2e2GPlpOnymxOn-19" value="" style="shape=image;verticalLabelPosition=bottom;verticalAlign=top;imageAspect=0;aspect=fixed;image=data:image/svg+xml,PHN2ZyB4bWxucz0iaHR0cDovL3d3dy53My5vcmcvMjAwMC9zdmciIHdpZHRoPSIxMzkiIGhlaWdodD0iMTM5IiB2aWV3Qm94PSIwIDAgMTM5IDEzOSI+JiN4YTsgIDxnIGlkPSJHVE0iIHRyYW5zZm9ybT0idHJhbnNsYXRlKC02NzIgLTgwKSI+JiN4YTsgICAgPGcgaWQ9IkdUTS0yIiBkYXRhLW5hbWU9IkdUTSIgdHJhbnNmb3JtPSJ0cmFuc2xhdGUoNjc5Ljk5NyA4OC4wMDIpIj4mI3hhOyAgICAgIDxwYXRoIGlkPSJQYXRoXzEiIGRhdGEtbmFtZT0iUGF0aCAxIiBkPSJNNzIuMTMsMTE4LjIyLDUwLjgsOTYuODZsNDUuODMtNDYuMywyMS43MiwyMS43Mkw3Mi4xMywxMTguMjJaIiB0cmFuc2Zvcm09InRyYW5zbGF0ZSgwLjEzMyAwLjEwOCkiIGZpbGw9IiM4YWI0ZjgiLz4mI3hhOyAgICAgIDxwYXRoIGlkPSJQYXRoXzIiIGRhdGEtbmFtZT0iUGF0aCAyIiBkPSJNNzIuMjksMjYuMjUxLDUwLjU2LDQuNSw0LjUsNTAuNmExNS4zNzUsMTUuMzc1LDAsMCwwLDAsMjEuNzMxaDBsNDYuMDYsNDYuMSwyMS4zMS0yMS40MkwzNy4wNyw2MS41WiIgdHJhbnNmb3JtPSJ0cmFuc2xhdGUoMCAwKSIgZmlsbD0iIzQyODVmNCIvPiYjeGE7ICAgICAgPHBhdGggaWQ9IlBhdGhfMyIgZGF0YS1uYW1lPSJQYXRoIDMiIGQ9Ik0xMTguMzUsNTAuNTYsNzIuMjksNC41QTE1LjM2MiwxNS4zNjIsMCwxLDAsNTAuNTYsMjYuMjJMOTYuNjUsNzIuMjhhMTUuMzU5LDE1LjM1OSwwLDEsMCwyMS43MjEtMjEuNzIxWiIgdHJhbnNmb3JtPSJ0cmFuc2xhdGUoMC4xMzMpIiBmaWxsPSIjOGFiNGY4Ii8+JiN4YTsgICAgICA8cGF0aCBpZD0iUGF0aF80IiBkYXRhLW5hbWU9IlBhdGggNCIgZD0iTTc2LjQ4LDEwNy42NmExNS4yMywxNS4yMywwLDEsMC0xNS4yMiwxNS4yMywxNS4yMywxNS4yMywwLDAsMCwxNS4yMi0xNS4yM1oiIHRyYW5zZm9ybT0idHJhbnNsYXRlKDAuMDY2IDAuMTA4KSIgZmlsbD0iIzI0NmZkYiIvPiYjeGE7ICAgIDwvZz4mI3hhOyAgICA8cmVjdCBpZD0iQm91bmRlciIgd2lkdGg9IjEzOSIgaGVpZ2h0PSIxMzkiIHRyYW5zZm9ybT0idHJhbnNsYXRlKDY3MiA4MCkiIGZpbGw9Im5vbmUiLz4mI3hhOyAgPC9nPiYjeGE7PC9zdmc+;labelBackgroundColor=none;labelBorderColor=none;sketch=0;fontColor=#000000;strokeColor=default;fillColor=#333333;gradientColor=none;" vertex="1" parent="6komnG2e2GPlpOnymxOn-16">
          <mxGeometry x="50" y="25" width="80" height="80" as="geometry" />
        </mxCell>
        <mxCell id="6komnG2e2GPlpOnymxOn-20" value="" style="group" vertex="1" connectable="0" parent="y4GAqFiVdhMxvugA_l28-1">
          <mxGeometry x="550" y="540" width="180" height="130" as="geometry" />
        </mxCell>
        <mxCell id="6komnG2e2GPlpOnymxOn-21" value="&lt;b&gt;Type:&lt;/b&gt;&amp;nbsp;Universal Analytics" style="text;html=1;strokeColor=none;fillColor=none;align=center;verticalAlign=middle;whiteSpace=wrap;rounded=0;sketch=1;" vertex="1" parent="6komnG2e2GPlpOnymxOn-20">
          <mxGeometry y="100" width="180" height="30" as="geometry" />
        </mxCell>
        <mxCell id="6komnG2e2GPlpOnymxOn-22" value="Download - PDF and ZIP" style="text;html=1;strokeColor=none;fillColor=none;align=center;verticalAlign=middle;whiteSpace=wrap;rounded=0;sketch=1;" vertex="1" parent="6komnG2e2GPlpOnymxOn-20">
          <mxGeometry x="10" width="160" height="30" as="geometry" />
        </mxCell>
        <mxCell id="6komnG2e2GPlpOnymxOn-23" value="" style="shape=image;verticalLabelPosition=bottom;verticalAlign=top;imageAspect=0;aspect=fixed;image=data:image/svg+xml,PHN2ZyB4bWxucz0iaHR0cDovL3d3dy53My5vcmcvMjAwMC9zdmciIHdpZHRoPSIxMzkiIGhlaWdodD0iMTM5IiB2aWV3Qm94PSIwIDAgMTM5IDEzOSI+JiN4YTsgIDxnIGlkPSJHVE0iIHRyYW5zZm9ybT0idHJhbnNsYXRlKC02NzIgLTgwKSI+JiN4YTsgICAgPGcgaWQ9IkdUTS0yIiBkYXRhLW5hbWU9IkdUTSIgdHJhbnNmb3JtPSJ0cmFuc2xhdGUoNjc5Ljk5NyA4OC4wMDIpIj4mI3hhOyAgICAgIDxwYXRoIGlkPSJQYXRoXzEiIGRhdGEtbmFtZT0iUGF0aCAxIiBkPSJNNzIuMTMsMTE4LjIyLDUwLjgsOTYuODZsNDUuODMtNDYuMywyMS43MiwyMS43Mkw3Mi4xMywxMTguMjJaIiB0cmFuc2Zvcm09InRyYW5zbGF0ZSgwLjEzMyAwLjEwOCkiIGZpbGw9IiM4YWI0ZjgiLz4mI3hhOyAgICAgIDxwYXRoIGlkPSJQYXRoXzIiIGRhdGEtbmFtZT0iUGF0aCAyIiBkPSJNNzIuMjksMjYuMjUxLDUwLjU2LDQuNSw0LjUsNTAuNmExNS4zNzUsMTUuMzc1LDAsMCwwLDAsMjEuNzMxaDBsNDYuMDYsNDYuMSwyMS4zMS0yMS40MkwzNy4wNyw2MS41WiIgdHJhbnNmb3JtPSJ0cmFuc2xhdGUoMCAwKSIgZmlsbD0iIzQyODVmNCIvPiYjeGE7ICAgICAgPHBhdGggaWQ9IlBhdGhfMyIgZGF0YS1uYW1lPSJQYXRoIDMiIGQ9Ik0xMTguMzUsNTAuNTYsNzIuMjksNC41QTE1LjM2MiwxNS4zNjIsMCwxLDAsNTAuNTYsMjYuMjJMOTYuNjUsNzIuMjhhMTUuMzU5LDE1LjM1OSwwLDEsMCwyMS43MjEtMjEuNzIxWiIgdHJhbnNmb3JtPSJ0cmFuc2xhdGUoMC4xMzMpIiBmaWxsPSIjOGFiNGY4Ii8+JiN4YTsgICAgICA8cGF0aCBpZD0iUGF0aF80IiBkYXRhLW5hbWU9IlBhdGggNCIgZD0iTTc2LjQ4LDEwNy42NmExNS4yMywxNS4yMywwLDEsMC0xNS4yMiwxNS4yMywxNS4yMywxNS4yMywwLDAsMCwxNS4yMi0xNS4yM1oiIHRyYW5zZm9ybT0idHJhbnNsYXRlKDAuMDY2IDAuMTA4KSIgZmlsbD0iIzI0NmZkYiIvPiYjeGE7ICAgIDwvZz4mI3hhOyAgICA8cmVjdCBpZD0iQm91bmRlciIgd2lkdGg9IjEzOSIgaGVpZ2h0PSIxMzkiIHRyYW5zZm9ybT0idHJhbnNsYXRlKDY3MiA4MCkiIGZpbGw9Im5vbmUiLz4mI3hhOyAgPC9nPiYjeGE7PC9zdmc+;labelBackgroundColor=none;labelBorderColor=none;sketch=0;fontColor=#000000;strokeColor=default;fillColor=#333333;gradientColor=none;" vertex="1" parent="6komnG2e2GPlpOnymxOn-20">
          <mxGeometry x="50" y="25" width="80" height="80" as="geometry" />
        </mxCell>
        <mxCell id="6komnG2e2GPlpOnymxOn-24" value="" style="group" vertex="1" connectable="0" parent="y4GAqFiVdhMxvugA_l28-1">
          <mxGeometry x="827" y="323" width="130" height="104.5" as="geometry" />
        </mxCell>
        <mxCell id="6komnG2e2GPlpOnymxOn-25" value="Google Analytics" style="text;html=1;strokeColor=none;fillColor=none;align=center;verticalAlign=middle;whiteSpace=wrap;rounded=0;labelBackgroundColor=none;labelBorderColor=none;sketch=0;fontColor=#000000;" vertex="1" parent="6komnG2e2GPlpOnymxOn-24">
          <mxGeometry y="74.5" width="130" height="30" as="geometry" />
        </mxCell>
        <mxCell id="6komnG2e2GPlpOnymxOn-26" value="" style="shape=image;verticalLabelPosition=bottom;verticalAlign=top;imageAspect=0;aspect=fixed;image=data:image/svg+xml,PHN2ZyB4bWxucz0iaHR0cDovL3d3dy53My5vcmcvMjAwMC9zdmciIHdpZHRoPSIxMjQuODQ5OTc1NTg1OTM3NSIgaGVpZ2h0PSIxMzkiIHZpZXdCb3g9IjAgMCAxMjQuODQ5OTc1NTg1OTM3NSAxMzkiPiYjeGE7ICA8ZyBpZD0iR0EiIHRyYW5zZm9ybT0idHJhbnNsYXRlKC0xMDQ4IC0yMDgpIj4mI3hhOyAgICA8cmVjdCBpZD0iQm91bmRlciIgd2lkdGg9IjEyNC44NSIgaGVpZ2h0PSIxMzkiIHRyYW5zZm9ybT0idHJhbnNsYXRlKDEwNDggMjA4KSIgZmlsbD0ibm9uZSIvPiYjeGE7ICAgIDxnIGlkPSJHQS0yIiBkYXRhLW5hbWU9IkdBIiB0cmFuc2Zvcm09InRyYW5zbGF0ZSg0NDYgMTU3KSI+JiN4YTsgICAgICA8Y2lyY2xlIGlkPSJFbGxpcHNlXzUiIGRhdGEtbmFtZT0iRWxsaXBzZSA1IiBjeD0iMTQiIGN5PSIxNCIgcj0iMTQiIHRyYW5zZm9ybT0idHJhbnNsYXRlKDYxMCAxNTIpIiBmaWxsPSIjZTM3NDAwIi8+JiN4YTsgICAgICA8cmVjdCBpZD0iUmVjdGFuZ2xlXzIiIGRhdGEtbmFtZT0iUmVjdGFuZ2xlIDIiIHdpZHRoPSIyOCIgaGVpZ2h0PSI2OS44NTYiIHJ4PSIxNCIgdHJhbnNmb3JtPSJ0cmFuc2xhdGUoNjUwLjU0NSAxMTAuMzE2KSIgZmlsbD0iI2UzNzQwMCIvPiYjeGE7ICAgICAgPHJlY3QgaWQ9IlJlY3RhbmdsZV8zIiBkYXRhLW5hbWU9IlJlY3RhbmdsZSAzIiB3aWR0aD0iMjgiIGhlaWdodD0iMTIxLjIzNyIgcng9IjE0IiB0cmFuc2Zvcm09InRyYW5zbGF0ZSg2OTAuOTQ4IDU5KSIgZmlsbD0iI2Y5YWIwMCIvPiYjeGE7ICAgIDwvZz4mI3hhOyAgPC9nPiYjeGE7PC9zdmc+;labelBackgroundColor=none;labelBorderColor=none;sketch=0;fontColor=#000000;strokeColor=default;fillColor=#333333;gradientColor=none;" vertex="1" parent="6komnG2e2GPlpOnymxOn-24">
          <mxGeometry x="29.02999999999986" y="-8" width="71.94" height="80" as="geometry" />
        </mxCell>
        <mxCell id="6komnG2e2GPlpOnymxOn-27" value="" style="group" vertex="1" connectable="0" parent="y4GAqFiVdhMxvugA_l28-1">
          <mxGeometry x="827" y="550" width="130" height="104.5" as="geometry" />
        </mxCell>
        <mxCell id="6komnG2e2GPlpOnymxOn-28" value="Google Analytics" style="text;html=1;strokeColor=none;fillColor=none;align=center;verticalAlign=middle;whiteSpace=wrap;rounded=0;labelBackgroundColor=none;labelBorderColor=none;sketch=0;fontColor=#000000;" vertex="1" parent="6komnG2e2GPlpOnymxOn-27">
          <mxGeometry y="74.5" width="130" height="30" as="geometry" />
        </mxCell>
        <mxCell id="6komnG2e2GPlpOnymxOn-29" value="" style="shape=image;verticalLabelPosition=bottom;verticalAlign=top;imageAspect=0;aspect=fixed;image=data:image/svg+xml,PHN2ZyB4bWxucz0iaHR0cDovL3d3dy53My5vcmcvMjAwMC9zdmciIHdpZHRoPSIxMjQuODQ5OTc1NTg1OTM3NSIgaGVpZ2h0PSIxMzkiIHZpZXdCb3g9IjAgMCAxMjQuODQ5OTc1NTg1OTM3NSAxMzkiPiYjeGE7ICA8ZyBpZD0iR0EiIHRyYW5zZm9ybT0idHJhbnNsYXRlKC0xMDQ4IC0yMDgpIj4mI3hhOyAgICA8cmVjdCBpZD0iQm91bmRlciIgd2lkdGg9IjEyNC44NSIgaGVpZ2h0PSIxMzkiIHRyYW5zZm9ybT0idHJhbnNsYXRlKDEwNDggMjA4KSIgZmlsbD0ibm9uZSIvPiYjeGE7ICAgIDxnIGlkPSJHQS0yIiBkYXRhLW5hbWU9IkdBIiB0cmFuc2Zvcm09InRyYW5zbGF0ZSg0NDYgMTU3KSI+JiN4YTsgICAgICA8Y2lyY2xlIGlkPSJFbGxpcHNlXzUiIGRhdGEtbmFtZT0iRWxsaXBzZSA1IiBjeD0iMTQiIGN5PSIxNCIgcj0iMTQiIHRyYW5zZm9ybT0idHJhbnNsYXRlKDYxMCAxNTIpIiBmaWxsPSIjZTM3NDAwIi8+JiN4YTsgICAgICA8cmVjdCBpZD0iUmVjdGFuZ2xlXzIiIGRhdGEtbmFtZT0iUmVjdGFuZ2xlIDIiIHdpZHRoPSIyOCIgaGVpZ2h0PSI2OS44NTYiIHJ4PSIxNCIgdHJhbnNmb3JtPSJ0cmFuc2xhdGUoNjUwLjU0NSAxMTAuMzE2KSIgZmlsbD0iI2UzNzQwMCIvPiYjeGE7ICAgICAgPHJlY3QgaWQ9IlJlY3RhbmdsZV8zIiBkYXRhLW5hbWU9IlJlY3RhbmdsZSAzIiB3aWR0aD0iMjgiIGhlaWdodD0iMTIxLjIzNyIgcng9IjE0IiB0cmFuc2Zvcm09InRyYW5zbGF0ZSg2OTAuOTQ4IDU5KSIgZmlsbD0iI2Y5YWIwMCIvPiYjeGE7ICAgIDwvZz4mI3hhOyAgPC9nPiYjeGE7PC9zdmc+;labelBackgroundColor=none;labelBorderColor=none;sketch=0;fontColor=#000000;strokeColor=default;fillColor=#333333;gradientColor=none;" vertex="1" parent="6komnG2e2GPlpOnymxOn-27">
          <mxGeometry x="29.02999999999986" y="-5" width="71.94" height="80" as="geometry" />
        </mxCell>
        <mxCell id="6komnG2e2GPlpOnymxOn-30" style="edgeStyle=orthogonalEdgeStyle;rounded=0;orthogonalLoop=1;jettySize=auto;html=1;exitX=1;exitY=0.5;exitDx=0;exitDy=0;entryX=0;entryY=0.5;entryDx=0;entryDy=0;" edge="1" parent="y4GAqFiVdhMxvugA_l28-1" source="6komnG2e2GPlpOnymxOn-3" target="6komnG2e2GPlpOnymxOn-8">
          <mxGeometry relative="1" as="geometry" />
        </mxCell>
        <mxCell id="6komnG2e2GPlpOnymxOn-31" style="edgeStyle=orthogonalEdgeStyle;rounded=0;orthogonalLoop=1;jettySize=auto;html=1;exitX=1;exitY=0.5;exitDx=0;exitDy=0;entryX=0;entryY=0.5;entryDx=0;entryDy=0;" edge="1" parent="y4GAqFiVdhMxvugA_l28-1" source="6komnG2e2GPlpOnymxOn-8" target="6komnG2e2GPlpOnymxOn-15">
          <mxGeometry relative="1" as="geometry">
            <Array as="points">
              <mxPoint x="420" y="375" />
              <mxPoint x="420" y="115" />
            </Array>
          </mxGeometry>
        </mxCell>
        <mxCell id="6komnG2e2GPlpOnymxOn-32" style="edgeStyle=orthogonalEdgeStyle;rounded=0;orthogonalLoop=1;jettySize=auto;html=1;exitX=1;exitY=0.5;exitDx=0;exitDy=0;entryX=0;entryY=0.5;entryDx=0;entryDy=0;" edge="1" parent="y4GAqFiVdhMxvugA_l28-1" source="6komnG2e2GPlpOnymxOn-8" target="6komnG2e2GPlpOnymxOn-19">
          <mxGeometry relative="1" as="geometry" />
        </mxCell>
        <mxCell id="6komnG2e2GPlpOnymxOn-33" style="edgeStyle=orthogonalEdgeStyle;rounded=0;orthogonalLoop=1;jettySize=auto;html=1;exitX=1;exitY=0.5;exitDx=0;exitDy=0;entryX=0;entryY=0.5;entryDx=0;entryDy=0;startArrow=none;" edge="1" parent="y4GAqFiVdhMxvugA_l28-1" source="6komnG2e2GPlpOnymxOn-37" target="6komnG2e2GPlpOnymxOn-23">
          <mxGeometry relative="1" as="geometry">
            <Array as="points">
              <mxPoint x="420" y="375" />
              <mxPoint x="420" y="605" />
            </Array>
          </mxGeometry>
        </mxCell>
        <mxCell id="6komnG2e2GPlpOnymxOn-34" style="edgeStyle=orthogonalEdgeStyle;rounded=0;orthogonalLoop=1;jettySize=auto;html=1;exitX=1;exitY=0.5;exitDx=0;exitDy=0;entryX=0;entryY=0.75;entryDx=0;entryDy=0;" edge="1" parent="y4GAqFiVdhMxvugA_l28-1" source="6komnG2e2GPlpOnymxOn-15" target="6komnG2e2GPlpOnymxOn-11">
          <mxGeometry relative="1" as="geometry" />
        </mxCell>
        <mxCell id="6komnG2e2GPlpOnymxOn-35" style="edgeStyle=orthogonalEdgeStyle;rounded=0;orthogonalLoop=1;jettySize=auto;html=1;exitX=1;exitY=0.5;exitDx=0;exitDy=0;entryX=0;entryY=0.75;entryDx=0;entryDy=0;" edge="1" parent="y4GAqFiVdhMxvugA_l28-1" source="6komnG2e2GPlpOnymxOn-19" target="6komnG2e2GPlpOnymxOn-26">
          <mxGeometry relative="1" as="geometry" />
        </mxCell>
        <mxCell id="6komnG2e2GPlpOnymxOn-36" style="edgeStyle=orthogonalEdgeStyle;rounded=0;orthogonalLoop=1;jettySize=auto;html=1;exitX=1;exitY=0.5;exitDx=0;exitDy=0;entryX=0;entryY=0.75;entryDx=0;entryDy=0;" edge="1" parent="y4GAqFiVdhMxvugA_l28-1" source="6komnG2e2GPlpOnymxOn-23" target="6komnG2e2GPlpOnymxOn-29">
          <mxGeometry relative="1" as="geometry" />
        </mxCell>
        <mxCell id="6komnG2e2GPlpOnymxOn-37" value="&lt;b&gt;Data Layer&lt;/b&gt;" style="whiteSpace=wrap;html=1;align=center;sketch=0;strokeColor=#d6b656;fillColor=#fff2cc;labelBackgroundColor=none;" vertex="1" parent="y4GAqFiVdhMxvugA_l28-1">
          <mxGeometry x="220" y="354.5" width="100" height="40" as="geometry" />
        </mxCell>
        <mxCell id="6komnG2e2GPlpOnymxOn-39" value="" style="edgeStyle=orthogonalEdgeStyle;rounded=0;orthogonalLoop=1;jettySize=auto;html=1;exitX=1;exitY=0.5;exitDx=0;exitDy=0;entryX=0;entryY=0.5;entryDx=0;entryDy=0;endArrow=none;" edge="1" parent="y4GAqFiVdhMxvugA_l28-1" source="6komnG2e2GPlpOnymxOn-8" target="6komnG2e2GPlpOnymxOn-37">
          <mxGeometry relative="1" as="geometry">
            <mxPoint x="90" y="375" as="sourcePoint" />
            <mxPoint x="600" y="605" as="targetPoint" />
            <Array as="points" />
          </mxGeometry>
        </mxCell>
      </root>
    </mxGraphModel>
  </diagram>
</mxfile>
